<svg width="548" height="618" viewBox="0 0 548 618" fill="none" xmlns="http://www.w3.org/2000/svg">
<g filter="url(#filter0_d_0_120)">
<path d="M541.461 396.29C534.252 437.01 513.52 474.085 482.637 501.482C471.975 510.914 460.437 519.301 448.182 526.528C404.989 552.726 351.459 568.605 295.731 581.629L286.194 583.783C277.911 585.67 269.414 586.445 260.927 586.087C172.293 582.38 111.921 450.589 93.146 311.886C76.7674 188.41 104.182 48.5539 226.921 42.2424C273.011 39.9381 326.791 62.9803 376.726 100.048C380.321 102.703 383.916 105.458 387.462 108.263L389.659 110.016C482.887 184.553 559.038 305.424 541.461 396.29Z" fill="#FDE6D6"/>
<path d="M107.194 511.821C114.114 525.823 116.653 543.563 102.764 549.243C87.2327 555.621 62.4422 545.356 55.2739 521.986C50.6443 507.038 52.2373 486.209 65.2299 478.186C75.833 471.31 98.931 494.68 107.194 511.821Z" fill="#F5F9FD"/>
<path d="M488.298 196.278C482.051 190.804 477.054 182.668 482.351 177.194C487.648 171.719 501.94 171.267 510.336 181.262C515.683 187.64 519.381 198.086 515.333 204.464C511.735 209.888 496.094 202.958 488.298 196.278Z" fill="#FFAD69"/>
<path fill-rule="evenodd" clip-rule="evenodd" d="M193.11 116.746C189.928 116.395 186.698 116.145 183.468 115.994C183.212 116.07 182.938 115.97 182.784 115.745C182.631 115.519 182.631 115.217 182.784 114.992C182.938 114.766 183.212 114.666 183.468 114.742C186.358 114.742 189.328 115.073 192.233 115.396C192.526 115.429 192.818 115.461 193.11 115.493C193.273 115.505 193.424 115.588 193.525 115.722C193.626 115.855 193.668 116.027 193.64 116.195C193.601 116.48 193.385 116.705 193.11 116.746ZM144.351 119.5C144.087 119.479 143.858 119.303 143.765 119.049C143.671 118.704 143.867 118.345 144.204 118.248C147.283 117.396 150.508 116.645 153.978 115.993C154.133 115.948 154.301 115.971 154.439 116.056C154.578 116.142 154.676 116.282 154.711 116.444C154.771 116.789 154.555 117.12 154.222 117.196C150.997 117.847 147.821 118.598 144.742 119.45L144.351 119.5ZM223.046 122.011C226.21 122.863 229.373 123.765 232.537 124.767H232.982C233.309 124.767 233.575 124.498 233.575 124.166C233.575 123.834 233.309 123.564 232.982 123.564C229.769 122.512 226.556 121.611 223.442 120.759C223.264 120.697 223.07 120.718 222.908 120.814C222.747 120.91 222.635 121.073 222.601 121.26C222.558 121.585 222.743 121.897 223.046 122.011ZM125.355 126.252C125.137 126.234 124.941 126.104 124.832 125.905C124.694 125.59 124.82 125.217 125.117 125.061C127.971 123.722 130.92 122.431 133.964 121.29C134.109 121.226 134.273 121.227 134.417 121.292C134.561 121.358 134.673 121.483 134.726 121.637C134.827 121.952 134.683 122.295 134.393 122.431C131.396 123.573 128.447 124.863 125.641 126.203L125.355 126.252ZM241.994 127.567C245.138 128.669 248.332 129.872 251.475 131.074L251.931 131.124C252.267 131.124 252.54 130.855 252.54 130.523C252.54 130.191 252.267 129.922 251.931 129.922C248.788 128.719 245.594 127.517 242.4 126.415C242.08 126.33 241.743 126.476 241.589 126.765C241.487 127.097 241.665 127.449 241.994 127.567ZM107.52 137.273C107.311 137.288 107.109 137.186 106.995 137.007C106.876 136.887 106.81 136.724 106.81 136.555C106.81 136.385 106.876 136.222 106.995 136.102C109.885 134.027 112.827 132.058 115.875 130.302C116.184 130.188 116.529 130.314 116.696 130.6C116.863 130.887 116.805 131.253 116.558 131.473C113.563 133.229 110.568 135.145 107.783 137.167C107.72 137.215 107.649 137.251 107.573 137.273H107.52ZM268.636 139.278H268.925H268.973C269.173 139.272 269.355 139.165 269.455 138.995C269.52 138.858 269.526 138.7 269.472 138.558C269.417 138.416 269.307 138.302 269.166 138.24C266.277 136.87 263.339 135.596 260.354 134.321C260.213 134.257 260.053 134.251 259.908 134.305C259.763 134.358 259.646 134.466 259.583 134.604C259.444 134.904 259.571 135.259 259.872 135.407C262.809 136.634 265.795 137.956 268.636 139.278ZM92.4117 150.246C92.2845 150.282 92.1482 150.279 92.0226 150.236C91.904 150.124 91.8373 149.972 91.8373 149.813C91.8373 149.654 91.904 149.502 92.0226 149.39C94.4895 146.948 97.2714 144.408 99.6859 142.465C99.9499 142.224 100.367 142.224 100.631 142.465C100.884 142.715 100.884 143.111 100.631 143.362C98.0588 145.504 95.3819 147.795 93.0723 150.187C92.8773 150.314 92.6274 150.336 92.4117 150.246ZM304.901 158.317H304.593C301.717 156.604 298.739 154.94 295.761 153.423C295.568 153.309 295.454 153.106 295.461 152.89C295.468 152.675 295.595 152.479 295.794 152.376C295.994 152.274 296.236 152.281 296.428 152.395C297.984 153.239 299.54 154.109 301.081 154.971L301.083 154.972L301.084 154.973C302.492 155.761 303.888 156.541 305.261 157.289C305.377 157.399 305.442 157.549 305.442 157.705C305.442 157.861 305.377 158.011 305.261 158.121C305.171 158.227 305.043 158.297 304.901 158.317ZM80.0312 165.284H80.3719C80.5683 165.372 80.7984 165.333 80.9558 165.186C82.5418 162.602 84.2411 160.436 85.9539 158.252L85.9539 158.252L85.954 158.252L85.954 158.252L85.954 158.252L85.954 158.252L85.954 158.252L85.9541 158.252L85.9541 158.252L85.9541 158.252L85.9541 158.252L85.9542 158.252L85.9543 158.252C86.1856 157.957 86.4173 157.662 86.6489 157.365C86.7746 157.254 86.8466 157.093 86.8466 156.925C86.8466 156.757 86.7746 156.596 86.6489 156.485C86.5393 156.375 86.3905 156.313 86.2353 156.313C86.0801 156.313 85.9312 156.375 85.8217 156.485C83.8266 159.027 81.8803 161.666 80.0312 164.453C79.9213 164.563 79.8595 164.712 79.8595 164.868C79.8595 165.024 79.9213 165.174 80.0312 165.284ZM321.824 169.297C321.708 169.352 321.572 169.352 321.456 169.297L312.736 163.506C312.432 163.32 312.337 162.927 312.526 162.627C312.715 162.327 313.114 162.235 313.419 162.42C316.396 164.282 319.337 166.195 322.244 168.159C322.466 168.412 322.466 168.786 322.244 169.038C322.157 169.188 321.999 169.285 321.824 169.297ZM70.2596 182.311C70.0972 182.249 69.9709 182.123 69.9126 181.965C69.8544 181.808 69.8701 181.634 69.9555 181.489C71.3743 178.538 72.9452 175.636 74.5667 172.83C74.63 172.572 74.8567 172.379 75.1331 172.349C75.4095 172.318 75.676 172.457 75.799 172.695C75.922 172.934 75.875 173.22 75.6815 173.411C74.06 176.168 72.5398 179.07 71.0703 182.021C71.004 182.163 70.8809 182.273 70.7285 182.328C70.5761 182.382 70.4072 182.376 70.2596 182.311ZM353.37 193.351C353.499 193.399 353.643 193.399 353.772 193.351C353.913 193.358 354.053 193.325 354.174 193.256C354.287 193.148 354.351 193.003 354.351 192.851C354.351 192.699 354.287 192.554 354.174 192.446C352.365 191.131 350.702 189.835 349.064 188.559L349.064 188.559C348.154 187.85 347.251 187.146 346.335 186.449C346.057 186.304 345.709 186.37 345.511 186.605C345.313 186.84 345.321 187.176 345.531 187.401C347.474 188.716 349.225 190.098 350.984 191.486L350.984 191.487L350.985 191.488L350.986 191.488C351.773 192.11 352.562 192.733 353.37 193.351ZM63.525 202.38C63.217 202.24 63.0492 201.894 63.1257 201.556C64.1738 198.207 65.2717 194.91 66.4695 191.768C66.6215 191.47 66.953 191.32 67.268 191.407C67.4234 191.465 67.5489 191.585 67.6151 191.741C67.6812 191.897 67.682 192.075 67.6174 192.231C66.4695 195.322 65.3716 198.619 64.3235 201.916C64.2266 202.272 63.8695 202.479 63.525 202.38ZM369.437 206.323C369.368 206.323 369.299 206.312 369.233 206.29C366.725 203.978 364.116 201.717 361.506 199.508C361.282 199.24 361.282 198.85 361.506 198.583C361.763 198.335 362.17 198.335 362.427 198.583L370.154 205.365C370.377 205.633 370.377 206.023 370.154 206.29C369.94 206.442 369.66 206.453 369.437 206.323ZM57.7347 220.182C57.8302 220.323 57.9828 220.416 58.1536 220.439C58.3431 220.454 58.5298 220.386 58.6643 220.254C58.7988 220.122 58.8675 219.939 58.8523 219.752C59.551 216.565 60.2996 213.329 61.148 210.192C61.2137 209.869 61.0192 209.551 60.6988 209.456C60.5334 209.395 60.3491 209.409 60.1951 209.494C60.0411 209.579 59.9332 209.727 59.9003 209.897C59.7387 210.582 59.5772 211.26 59.4169 211.934L59.4167 211.934C58.7847 214.588 58.172 217.161 57.6545 219.703C57.6099 219.867 57.6391 220.041 57.7347 220.182ZM397.653 234.409C397.513 234.471 397.352 234.471 397.212 234.409C395.011 232.064 392.712 229.624 390.462 227.471C390.226 227.23 390.226 226.85 390.462 226.61C390.716 226.401 391.088 226.401 391.342 226.61C392.312 227.599 393.291 228.625 394.267 229.648L394.27 229.651L394.27 229.651L394.271 229.651L394.271 229.651L394.271 229.652L394.271 229.652C395.559 231.001 396.842 232.344 398.093 233.596C398.329 233.836 398.329 234.216 398.093 234.457C397.944 234.483 397.792 234.466 397.653 234.409ZM54.098 239.789C54.0677 240.126 54.3081 240.427 54.6469 240.477C54.9724 240.511 55.2719 240.3 55.3456 239.986C55.7449 236.595 56.1941 233.302 56.6931 230.156C56.739 229.998 56.7091 229.828 56.6119 229.694C56.5148 229.56 56.361 229.477 56.1941 229.468C56.0349 229.44 55.8709 229.476 55.7393 229.569C55.6077 229.661 55.5197 229.802 55.4954 229.96C54.9464 233.204 54.4972 236.496 54.098 239.789ZM410.652 249.447C410.488 249.516 410.304 249.516 410.14 249.447L403.441 241.572C403.326 241.455 403.261 241.297 403.261 241.132C403.261 240.966 403.326 240.808 403.441 240.691C403.558 240.558 403.725 240.481 403.901 240.481C404.077 240.481 404.245 240.558 404.362 240.691C405.987 242.529 407.64 244.48 409.3 246.44L409.301 246.442L409.303 246.443C409.888 247.134 410.474 247.826 411.061 248.515C411.307 248.775 411.307 249.186 411.061 249.447C410.929 249.499 410.783 249.499 410.652 249.447ZM52.643 260.332C52.7568 260.453 52.9172 260.521 53.0851 260.521C53.4078 260.525 53.6843 260.295 53.7339 259.982C53.7943 258.659 53.9034 257.327 54.0121 256.001C54.1729 254.038 54.3328 252.086 54.3328 250.187C54.3364 249.843 54.0804 249.55 53.7339 249.501C53.5666 249.487 53.4011 249.543 53.2778 249.655C53.1544 249.766 53.0845 249.924 53.0851 250.089C53.0314 250.784 52.9732 251.481 52.9147 252.18L52.9147 252.181C52.7015 254.733 52.4862 257.308 52.4862 259.884C52.4722 260.048 52.5291 260.211 52.643 260.332ZM423.674 265.476C423.524 265.549 423.352 265.549 423.202 265.476C421.268 262.773 419.335 260.12 417.401 257.567C417.295 257.455 417.235 257.301 417.235 257.142C417.235 256.982 417.295 256.829 417.401 256.716C417.509 256.587 417.663 256.513 417.826 256.513C417.988 256.513 418.143 256.587 418.25 256.716C418.824 257.493 419.407 258.261 419.995 259.035L419.996 259.037C421.339 260.805 422.706 262.606 424.051 264.625C424.279 264.877 424.279 265.275 424.051 265.526L423.674 265.476ZM52.7836 279.973C52.7836 280.298 53.0517 280.561 53.3825 280.561H53.4324C53.6003 280.562 53.7607 280.493 53.8745 280.372C53.9884 280.251 54.0453 280.088 54.0313 279.924V273.067V270.129C54.0319 269.964 53.962 269.807 53.8386 269.695C53.7153 269.583 53.5498 269.527 53.3825 269.541C53.0517 269.541 52.7836 269.804 52.7836 270.129V273.067V279.973ZM434.639 281.516C434.46 281.579 434.264 281.579 434.085 281.516C432.271 278.906 430.357 276.248 428.392 273.541C428.278 273.433 428.214 273.285 428.214 273.131C428.214 272.976 428.278 272.829 428.392 272.72C428.646 272.487 429.046 272.487 429.299 272.72C431.314 275.378 433.228 278.084 435.042 280.694C435.255 280.93 435.255 281.28 435.042 281.516C434.914 281.57 434.768 281.57 434.639 281.516ZM445.188 298.294C445.28 298.483 445.468 298.601 445.672 298.597L446.01 298.294C446.12 298.18 446.181 298.025 446.181 297.864C446.181 297.702 446.12 297.548 446.01 297.434C444.608 294.552 442.914 291.67 441.173 288.737C440.937 288.524 440.587 288.524 440.351 288.737C440.139 289 440.139 289.384 440.351 289.647C441.279 291.375 442.259 293.103 443.24 294.832L443.241 294.835C443.895 295.988 444.549 297.141 445.188 298.294ZM54.705 300.552C54.3928 300.553 54.1322 300.319 54.1061 300.013C54.1061 298.013 53.926 296.012 53.7498 294.054C53.6326 292.752 53.5171 291.469 53.4573 290.218C53.4563 289.884 53.7175 289.607 54.0562 289.581C54.2235 289.567 54.389 289.623 54.5124 289.735C54.6357 289.847 54.7056 290.004 54.705 290.169C54.705 292.452 54.9104 294.786 55.1186 297.152C55.2007 298.085 55.2833 299.022 55.3538 299.964C55.3678 300.128 55.311 300.291 55.1971 300.412C55.0832 300.533 54.9228 300.602 54.7549 300.601L54.705 300.552ZM455.15 315.286C455.288 315.491 455.525 315.62 455.784 315.631V315.582C456.114 315.427 456.254 315.058 456.101 314.744C454.568 311.837 452.93 308.881 451.239 305.925C451.056 305.636 450.663 305.528 450.341 305.679C450.118 305.919 450.118 306.276 450.341 306.516C452.032 309.472 453.67 312.429 455.15 315.286ZM56.0037 320.641C55.681 320.645 55.4045 320.415 55.3549 320.102C54.9556 316.87 54.5564 313.589 54.207 310.307C54.1784 310.143 54.2217 309.975 54.3264 309.845C54.431 309.714 54.5871 309.633 54.756 309.622C55.0973 309.592 55.4033 309.828 55.4547 310.16C55.804 313.393 56.2033 316.674 56.6026 319.955C56.6312 320.119 56.5878 320.287 56.4832 320.418C56.3786 320.549 56.2225 320.63 56.0536 320.641H56.0037ZM461.967 334.25C462.066 334.504 462.3 334.669 462.559 334.669L462.757 334.617C462.91 334.558 463.035 334.435 463.1 334.276C463.165 334.118 463.166 333.937 463.102 333.778C461.967 330.526 460.683 327.275 459.349 324.023C459.195 323.696 458.824 323.557 458.51 323.708C458.365 323.777 458.252 323.905 458.197 324.062C458.141 324.22 458.147 324.395 458.214 324.548C459.547 327.799 460.781 331.051 461.967 334.25ZM59.2219 340.632C58.9265 340.636 58.6722 340.429 58.623 340.145C58.0241 336.927 57.4751 333.66 56.9761 330.393C56.9475 330.225 56.9896 330.052 57.0929 329.914C57.1962 329.777 57.352 329.686 57.5251 329.662C57.8664 329.632 58.1724 329.867 58.2238 330.198C58.6001 332.625 59.0048 335.051 59.4165 337.52L59.4166 337.52L59.4166 337.52L59.4167 337.521C59.5509 338.326 59.6859 339.135 59.8208 339.95C59.8826 340.285 59.6622 340.608 59.3217 340.681L59.2219 340.632ZM469.523 353.199C469.572 353.496 469.826 353.711 470.122 353.707L470.271 353.656C470.433 353.621 470.573 353.518 470.658 353.374C470.743 353.23 470.766 353.056 470.72 352.894C469.822 349.692 468.824 346.388 467.776 343.135C467.731 342.967 467.618 342.827 467.466 342.75C467.313 342.672 467.136 342.664 466.977 342.728C466.813 342.774 466.675 342.889 466.599 343.044C466.523 343.199 466.515 343.38 466.578 343.541C467.626 346.744 468.624 350.047 469.523 353.199ZM63.4138 360.721C63.1184 360.725 62.8641 360.517 62.8149 360.232C62.0663 357.001 61.3676 353.771 60.7687 350.443C60.7241 350.28 60.7533 350.106 60.8489 349.965C60.9444 349.824 61.0971 349.731 61.2678 349.709C61.4269 349.68 61.5909 349.716 61.7225 349.809C61.8541 349.901 61.9421 350.041 61.9665 350.198C62.2353 351.496 62.5127 352.811 62.7952 354.15L62.7956 354.152C63.1946 356.043 63.6037 357.981 64.0127 359.987C64.0578 360.143 64.0351 360.31 63.9501 360.449C63.865 360.588 63.7251 360.687 63.5635 360.721H63.4138ZM472.908 372.256C472.979 372.549 473.25 372.753 473.557 372.745L473.657 372.696C473.817 372.672 473.96 372.586 474.054 372.457C474.148 372.328 474.185 372.167 474.156 372.011C473.657 368.683 473.058 365.453 472.309 362.223C472.234 361.889 471.904 361.673 471.561 361.733C471.24 361.828 471.046 362.146 471.112 362.468C471.81 365.893 472.409 369.123 472.908 372.256ZM68.6205 380.761C68.3404 380.77 68.0916 380.578 68.0216 380.299V379.785C67.1732 376.447 66.3248 373.109 65.5262 369.514C65.4884 369.167 65.6991 368.842 66.0253 368.744C66.3492 368.699 66.6602 368.891 66.7739 369.206L66.7742 369.207L66.7743 369.208C67.5727 372.545 68.3711 375.883 69.2194 379.169V379.683C69.3153 380.037 69.1144 380.405 68.7702 380.504L68.6205 380.761ZM475.257 392.2C475.257 392.523 475.525 392.785 475.855 392.785L475.905 392.737C476.244 392.711 476.505 392.435 476.504 392.103C476.481 390.59 476.369 389.056 476.257 387.52C476.131 385.789 476.005 384.056 476.005 382.351C475.992 382.182 475.912 382.026 475.78 381.916C475.649 381.806 475.479 381.752 475.306 381.765C475.138 381.777 474.981 381.858 474.877 381.988C474.772 382.118 474.729 382.285 474.758 382.448C475.007 385.715 475.257 388.982 475.257 392.2ZM73.768 399.799C73.5061 399.799 73.2699 399.639 73.1691 399.392C72.2209 396.134 71.2727 392.826 70.3743 389.568C70.3292 389.405 70.3519 389.231 70.437 389.087C70.522 388.942 70.6619 388.84 70.8235 388.804C70.9757 388.757 71.1402 388.773 71.2807 388.849C71.4212 388.926 71.526 389.056 71.5721 389.211C72.4704 392.52 73.4187 395.778 74.3669 398.985C74.4672 399.322 74.2918 399.679 73.9677 399.799H73.768ZM473.706 412.635C473.812 412.758 473.969 412.828 474.134 412.825L474.334 412.776C474.598 412.717 474.798 412.502 474.833 412.238C474.908 411.554 474.99 410.866 475.072 410.174C475.373 407.643 475.681 405.058 475.681 402.442C475.661 402.117 475.41 401.851 475.082 401.805C474.915 401.792 474.749 401.848 474.626 401.959C474.503 402.071 474.433 402.228 474.433 402.393C474.234 405.724 473.934 409.005 473.585 412.189C473.555 412.348 473.599 412.511 473.706 412.635ZM79.8896 418.837C79.6199 418.816 79.3865 418.634 79.2907 418.372L79.2903 418.371L79.2902 418.37C78.2423 415.113 77.1944 411.856 76.1965 408.547C76.1698 408.237 76.3523 407.949 76.6375 407.85C76.9227 407.752 77.2359 407.869 77.3942 408.134C78.3924 411.443 79.4405 414.701 80.4885 417.958C80.5513 418.123 80.5437 418.307 80.4674 418.465C80.3912 418.623 80.2537 418.739 80.0893 418.786L79.8896 418.837ZM470.087 432.635C470.025 432.988 470.246 433.328 470.586 433.405L470.886 433.868C471.092 433.814 471.264 433.666 471.351 433.466C471.439 433.266 471.433 433.036 471.335 432.841C472.034 429.298 472.682 425.91 473.182 422.573C473.21 422.409 473.174 422.24 473.08 422.105C472.986 421.97 472.842 421.879 472.682 421.854C472.339 421.791 472.009 422.017 471.934 422.368C471.435 425.859 470.786 429.247 470.087 432.635ZM86.0552 437.876C85.7933 437.876 85.5571 437.712 85.4563 437.461C84.3084 434.251 83.1606 430.988 82.0626 427.726C81.9386 427.397 82.095 427.026 82.412 426.898C82.7289 426.769 83.0864 426.931 83.2105 427.26C83.5931 428.348 83.9702 429.435 84.3473 430.522C85.1014 432.697 85.8556 434.872 86.6541 437.047C86.7544 437.389 86.579 437.753 86.2548 437.876H86.0552ZM465.575 452.087C465.475 452.425 465.65 452.785 465.974 452.906H466.174C466.436 452.906 466.672 452.744 466.773 452.496C467.821 449.272 468.819 445.946 469.717 442.67C469.8 442.331 469.599 441.987 469.268 441.903C468.937 441.818 468.602 442.024 468.52 442.363C467.621 445.587 466.673 448.863 465.575 452.087ZM93.1986 456.912C92.9591 456.929 92.7369 456.781 92.6502 456.546C91.3539 453.301 90.1076 450.056 88.911 446.811C88.8291 446.646 88.8206 446.452 88.8879 446.281C88.9553 446.109 89.0915 445.977 89.26 445.921C89.5897 445.816 89.9401 446 90.0577 446.34C91.2542 449.585 92.5006 452.83 93.7968 456.023C93.9083 456.369 93.7594 456.749 93.4478 456.912H93.1986ZM458.214 470.063C458.078 470.371 458.202 470.734 458.494 470.885C458.791 471.025 459.141 470.897 459.288 470.595C460.642 467.743 461.904 464.746 463.118 461.749C463.217 461.442 463.076 461.108 462.791 460.975C462.655 460.91 462.499 460.904 462.359 460.959C462.218 461.013 462.105 461.124 462.044 461.265C460.829 464.263 459.568 467.211 458.214 470.063ZM101.247 474.95C101.026 474.951 100.823 474.82 100.731 474.613C99.416 471.68 98.1481 468.746 96.8802 465.765C96.8169 465.625 96.811 465.464 96.864 465.32C96.9169 465.175 97.0243 465.058 97.162 464.995C97.3096 464.916 97.4837 464.908 97.6378 464.973C97.7918 465.038 97.9098 465.169 97.9603 465.332C98.9186 467.634 99.9348 469.937 100.941 472.216L100.941 472.216L100.941 472.217L100.942 472.218L100.942 472.22C101.217 472.843 101.492 473.465 101.764 474.084C101.9 474.39 101.775 474.751 101.482 474.902L101.247 474.95ZM448.341 487.909H448.619L448.712 487.959C448.955 488.017 449.207 487.92 449.361 487.708C450.069 486.365 450.808 485 451.554 483.623L451.554 483.621L451.555 483.619C452.372 482.11 453.197 480.587 453.997 479.064C454.174 478.865 454.217 478.568 454.104 478.32C453.992 478.073 453.748 477.929 453.495 477.96C453.242 477.991 453.035 478.192 452.977 478.46C451.586 481.375 450.01 484.24 448.341 487.055C448.236 487.168 448.177 487.322 448.177 487.482C448.177 487.642 448.236 487.796 448.341 487.909ZM110.149 492.986C109.9 492.987 109.673 492.854 109.569 492.645C107.933 489.728 106.35 486.761 104.872 483.892C104.801 483.751 104.794 483.589 104.854 483.442C104.913 483.296 105.034 483.178 105.189 483.114C105.429 482.916 105.792 482.916 106.033 483.114L110.73 491.867C110.891 492.164 110.775 492.525 110.466 492.694L110.149 492.986ZM436.373 504.989H436.755H436.851C436.944 505.017 437.044 505.017 437.138 504.989C439.193 502.383 441.153 499.677 443.018 497.021C443.126 496.908 443.187 496.755 443.187 496.595C443.187 496.435 443.126 496.282 443.018 496.169C442.91 496.055 442.764 495.992 442.612 495.992C442.459 495.992 442.313 496.055 442.205 496.169C440.68 498.546 439.092 500.588 437.465 502.678C437.103 503.144 436.738 503.612 436.373 504.087C436.142 504.339 436.142 504.737 436.373 504.989ZM119.11 511.022C118.897 511.023 118.699 510.908 118.585 510.718L118.224 510.037C116.81 507.364 115.352 504.608 113.813 501.81C113.75 501.521 113.875 501.224 114.12 501.082C114.365 500.94 114.669 500.99 114.863 501.202C116.39 504.239 117.964 507.226 119.635 510.06C119.836 510.307 119.836 510.674 119.635 510.921L119.11 511.022ZM422.423 518.938C422.546 518.999 422.692 518.999 422.816 518.938C422.931 519.015 423.07 519.049 423.208 519.035C425.372 517.047 427.494 514.776 429.498 512.63L430.033 512.058C430.27 511.816 430.27 511.434 430.033 511.192C429.922 511.083 429.772 511.022 429.616 511.022C429.459 511.022 429.309 511.083 429.198 511.192C428.02 512.347 426.797 513.616 425.555 514.906L425.55 514.912L425.549 514.913L425.549 514.913L425.548 514.913C424.516 515.986 423.469 517.073 422.423 518.12C422.298 518.221 422.225 518.371 422.225 518.529C422.225 518.688 422.298 518.838 422.423 518.938ZM129.386 528.056C129.18 528.048 128.99 527.935 128.873 527.75C127.239 524.946 125.559 521.989 123.926 519.083C123.729 518.834 123.729 518.465 123.926 518.216C124.031 518.101 124.174 518.036 124.323 518.036C124.471 518.036 124.614 518.101 124.719 518.216C126.055 520.662 127.457 523.109 128.842 525.525L128.844 525.529L129.324 526.366L129.619 526.883C129.816 527.132 129.816 527.501 129.619 527.75L129.386 528.056ZM407.434 532.81C407.562 532.963 407.748 533.055 407.947 533.066L408.101 533.015C408.121 533 408.141 532.984 408.159 532.968C408.172 532.956 408.185 532.944 408.197 532.931C408.218 532.909 408.237 532.886 408.255 532.861L416.051 526.152C416.298 525.895 416.298 525.488 416.051 525.231C415.935 525.115 415.779 525.05 415.615 525.05C415.451 525.05 415.294 525.115 415.179 525.231C414.161 526.107 413.159 526.984 412.161 527.857L412.16 527.858L412.16 527.858L412.159 527.859C410.591 529.23 409.032 530.594 407.434 531.939C407.318 532.055 407.253 532.211 407.253 532.375C407.253 532.538 407.318 532.695 407.434 532.81ZM141.219 545.09C141.011 545.083 140.822 544.964 140.719 544.775C138.77 542.041 136.821 539.15 134.922 536.206C134.703 535.933 134.703 535.534 134.922 535.26C135.173 535.007 135.57 535.007 135.821 535.26C137.72 538.151 139.669 541.042 141.569 543.828C141.681 543.947 141.745 544.108 141.745 544.275C141.745 544.443 141.681 544.604 141.569 544.722C141.531 544.845 141.462 544.954 141.369 545.037L141.219 545.09ZM391.454 545.035C391.608 545.108 391.785 545.108 391.94 545.035L392.085 544.986C392.131 545.01 392.18 545.027 392.231 545.035C394.949 543.09 397.571 541.095 400.095 539.1C400.204 538.988 400.266 538.835 400.266 538.676C400.266 538.517 400.204 538.364 400.095 538.252C399.986 538.139 399.837 538.076 399.682 538.076C399.527 538.076 399.379 538.139 399.27 538.252C397.002 540.044 394.656 541.796 392.267 543.581L392.261 543.585L392.259 543.586L392.258 543.587L392.257 543.588L392.256 543.589L391.454 544.188C391.344 544.3 391.283 544.452 391.283 544.612C391.283 544.771 391.344 544.923 391.454 545.035ZM376.012 556.112C375.794 556.116 375.594 555.995 375.495 555.799C375.378 555.682 375.312 555.522 375.312 555.356C375.312 555.19 375.378 555.03 375.495 554.913C378.494 553.036 381.441 551.159 384.232 549.282C384.349 549.164 384.507 549.098 384.672 549.098C384.837 549.098 384.995 549.164 385.111 549.282C385.228 549.399 385.294 549.559 385.294 549.725C385.294 549.891 385.228 550.051 385.111 550.168C382.319 552.045 379.372 553.922 376.374 555.799L376.012 556.112ZM153.534 560.018C153.703 560.081 153.89 560.081 154.059 560.018L154.531 560.12C154.784 559.863 154.784 559.458 154.531 559.201C153.36 557.735 152.174 556.37 150.989 555.007L150.988 555.007L150.988 555.006L150.988 555.006L150.988 555.006L150.987 555.005L150.987 555.005L150.987 555.005L150.987 555.005L150.986 555.004L150.986 555.004L150.986 555.004L150.986 555.004L150.986 555.003L150.985 555.003L150.985 555.003L150.985 555.002L150.985 555.002L150.984 555.002L150.984 555.002L150.984 555.001L150.984 555.001L150.983 555.001L150.983 555.001L150.983 555L150.983 555L150.983 555L150.982 554.999L150.981 554.998C149.94 553.8 148.899 552.602 147.869 551.337C147.652 551.069 147.252 551.023 146.977 551.235C146.702 551.447 146.655 551.835 146.872 552.103C149.075 554.912 151.279 557.516 153.534 560.018ZM358.959 566.132C358.73 566.114 358.526 565.99 358.412 565.801C358.26 565.513 358.369 565.162 358.661 564.997C361.592 563.485 364.523 561.924 367.305 560.27C367.548 560.07 367.907 560.07 368.15 560.27C368.262 560.376 368.325 560.521 368.325 560.672C368.325 560.822 368.262 560.967 368.15 561.073L359.455 565.801L358.959 566.132ZM166.686 575.114C166.81 575.162 166.947 575.162 167.071 575.114V575.065C167.207 575.134 167.367 575.134 167.504 575.065C167.626 574.964 167.697 574.813 167.697 574.653C167.697 574.493 167.626 574.342 167.504 574.241C165.291 572.157 163.031 569.733 160.771 567.31L160.771 567.309C160.529 567.076 160.147 567.076 159.905 567.309C159.783 567.411 159.712 567.562 159.712 567.721C159.712 567.881 159.783 568.032 159.905 568.133C162.181 570.557 164.442 572.884 166.686 575.114ZM340.98 575.15C340.752 575.152 340.545 575.012 340.451 574.792C340.37 574.638 340.355 574.455 340.41 574.289C340.465 574.122 340.585 573.989 340.739 573.924L349.299 569.325C349.488 569.13 349.773 569.082 350.01 569.206C350.247 569.331 350.385 569.599 350.354 569.878C350.324 570.157 350.133 570.385 349.876 570.449C346.99 572.033 344.153 573.566 341.22 575.048L340.98 575.15ZM322.468 583.734C322.555 583.988 322.783 584.161 323.043 584.168L323.304 584.114L332.808 579.559C333.091 579.516 333.319 579.294 333.376 579.003C333.434 578.712 333.309 578.414 333.065 578.259C332.821 578.104 332.509 578.125 332.286 578.312C330.06 579.429 327.808 580.491 325.548 581.557L325.546 581.558L325.54 581.561C324.621 581.994 323.702 582.428 322.782 582.867C322.628 582.938 322.509 583.069 322.45 583.232C322.391 583.396 322.398 583.576 322.468 583.734ZM183.064 587.147C182.95 587.183 182.827 587.183 182.713 587.147C181.168 586.033 179.694 584.886 178.165 583.696L178.163 583.695C177.116 582.881 176.044 582.046 174.905 581.189C174.643 580.981 174.609 580.614 174.83 580.368C175.051 580.121 175.443 580.09 175.706 580.297L176.266 580.751C178.62 582.657 180.913 584.513 183.464 586.209C183.593 586.316 183.667 586.47 183.667 586.631C183.667 586.793 183.593 586.947 183.464 587.053C183.312 587.137 183.13 587.154 182.963 587.1L183.064 587.147ZM303.501 591.841C303.584 592.06 303.797 592.199 304.026 592.183L304.264 592.134C307.221 590.912 310.131 589.641 313.088 588.322C313.228 588.258 313.337 588.139 313.391 587.992C313.444 587.845 313.438 587.682 313.374 587.539C313.229 587.257 312.912 587.115 312.611 587.197C309.702 588.517 306.744 589.788 303.787 591.01C303.49 591.163 303.363 591.53 303.501 591.841ZM200.011 599.179H199.703C196.997 597.779 194.292 596.215 191.625 594.674L191.624 594.673L191.622 594.672L190.817 594.207C190.6 593.964 190.6 593.604 190.817 593.362C190.932 593.249 191.09 593.186 191.253 593.186C191.417 593.186 191.574 593.249 191.69 593.362C194.566 595.201 197.546 596.892 200.473 598.334C200.69 598.576 200.69 598.936 200.473 599.179C200.318 599.216 200.154 599.199 200.011 599.129V599.179ZM285.55 598.764C285.636 598.999 285.864 599.159 286.122 599.165L286.382 599.115L296.059 595.408C296.376 595.27 296.534 594.924 296.423 594.606C296.281 594.3 295.921 594.149 295.591 594.255L285.914 597.963C285.741 598.004 285.598 598.12 285.527 598.277C285.455 598.434 285.464 598.614 285.55 598.764ZM267.156 606.061C266.869 606.07 266.614 605.882 266.543 605.61C266.44 605.279 266.62 604.926 266.951 604.808C268.433 604.357 269.965 603.806 271.498 603.255L276.606 601.401C276.762 601.336 276.937 601.337 277.092 601.404C277.247 601.47 277.367 601.596 277.423 601.752C277.508 601.902 277.516 602.082 277.446 602.239C277.376 602.397 277.236 602.513 277.066 602.554L271.958 604.457C270.425 605.009 268.841 605.56 267.309 606.011L267.156 606.061ZM208.018 603.575C211.198 604.896 214.448 606.05 217.754 607.032V606.982C218.079 607.067 218.421 606.921 218.578 606.632C218.677 606.286 218.47 605.927 218.114 605.83C214.86 604.864 211.661 603.727 208.534 602.423C208.193 602.311 207.819 602.461 207.658 602.774C207.548 603.091 207.704 603.438 208.018 603.575ZM247.142 610C246.82 610 246.56 609.731 246.56 609.399C246.531 609.236 246.574 609.069 246.677 608.942C246.78 608.816 246.933 608.745 247.093 608.747C250.35 608.52 253.589 608.085 256.794 607.445C257.127 607.383 257.448 607.604 257.521 607.946C257.549 608.106 257.513 608.27 257.422 608.402C257.331 608.534 257.192 608.623 257.036 608.647C253.832 609.298 250.592 609.749 247.336 610H247.142ZM236.79 609.941C233.537 609.74 230.299 609.338 227.092 608.738C226.927 608.715 226.778 608.62 226.686 608.476C226.593 608.332 226.564 608.154 226.608 607.987C226.631 607.826 226.717 607.682 226.845 607.588C226.972 607.494 227.132 607.457 227.286 607.486C230.493 608.086 233.731 608.488 236.984 608.688C237.147 608.687 237.303 608.758 237.413 608.881C237.524 609.005 237.579 609.171 237.565 609.339C237.556 609.533 237.464 609.712 237.314 609.828C237.164 609.944 236.972 609.985 236.79 609.941ZM384.152 220.303C384.242 220.345 384.342 220.362 384.439 220.354C384.641 220.469 384.897 220.471 385.103 220.352C385.358 220.104 385.358 219.712 385.103 219.464C383.223 217.629 381.113 215.794 379.058 214.008C378.516 213.536 377.977 213.068 377.447 212.603C377.182 212.365 376.762 212.365 376.497 212.603C376.378 212.715 376.311 212.865 376.311 213.023C376.311 213.18 376.378 213.331 376.497 213.442C378.065 214.909 379.772 216.418 381.495 217.942C382.382 218.726 383.273 219.515 384.152 220.303ZM337.476 181.363H337.818C337.961 181.363 338.1 181.31 338.208 181.212C338.319 181.099 338.381 180.946 338.381 180.785C338.381 180.625 338.319 180.472 338.208 180.359C335.571 178.352 332.934 176.344 330.247 174.387C329.973 174.286 329.666 174.39 329.504 174.639C329.342 174.889 329.367 175.22 329.564 175.441C332.201 177.348 334.887 179.355 337.476 181.363ZM287.949 148.297H287.651C284.732 146.69 281.797 145.133 278.845 143.627C278.668 143.536 278.543 143.369 278.504 143.173C278.465 142.978 278.518 142.775 278.646 142.623C278.719 142.471 278.853 142.357 279.014 142.309C279.175 142.261 279.348 142.284 279.491 142.372C282.377 143.828 285.362 145.435 288.298 147.041C288.41 147.154 288.473 147.308 288.473 147.468C288.473 147.628 288.41 147.782 288.298 147.895C288.268 148.069 288.157 148.219 287.999 148.297H287.949ZM203.132 117.434C206.459 117.935 209.688 118.586 212.917 119.288C213.226 119.35 213.529 119.151 213.602 118.837C213.662 118.492 213.446 118.16 213.112 118.085C209.737 117.334 206.458 116.732 203.327 116.181C203.171 116.152 203.01 116.189 202.881 116.284C202.752 116.378 202.666 116.522 202.642 116.682C202.582 117.027 202.798 117.359 203.132 117.434ZM162.891 116.54C163.003 116.645 163.154 116.696 163.305 116.682H163.256C166.502 116.331 169.798 116.031 173.093 116.031C173.259 116.031 173.417 115.961 173.529 115.837C173.641 115.714 173.697 115.547 173.684 115.38C173.66 115.058 173.409 114.802 173.093 114.778C169.749 114.879 166.453 115.129 163.256 115.48C163.094 115.477 162.939 115.549 162.834 115.675C162.729 115.801 162.686 115.969 162.715 116.131C162.714 116.286 162.778 116.435 162.891 116.54Z" fill="#D8D5DB"/>
<path d="M472.765 396.507C472.765 397.108 472.765 397.609 472.765 398.161C471.519 412.146 459.556 441.972 447.843 468.339C448.242 477.863 448.541 486.384 448.591 493.402C448.591 494.705 448.591 495.909 448.591 497.112H447.145C447.494 503.327 447.943 514.105 448.292 526.486C405.178 552.702 351.746 568.593 296.122 581.626L286.602 583.781C278.333 585.67 269.852 586.445 261.381 586.087C260.871 583.989 260.687 581.825 260.833 579.671C262.011 551.41 264.941 523.251 269.605 495.357L266.515 494.906C277.829 456.509 283.511 401.118 286.452 353.047C286.801 347.382 287.1 341.868 287.349 336.404C280.122 343.823 275.138 348.435 275.138 348.435L259.836 323.121C240.945 336.856 223.102 348.986 214.379 354.6C207.152 361.418 194.841 362.42 185.171 349.588C169.521 328.986 147.44 242.516 144.848 227.829C144.47 227.685 144.117 227.482 143.802 227.228C140.213 222.215 127.653 194.896 128.849 189.582C130.045 184.269 135.927 172.79 142.755 171.236C141.958 168.78 141.06 166.223 139.764 162.664C136.874 154.744 133.434 146.724 138.618 147.626C143.802 148.528 155.664 177.702 157.708 182.715C158.007 180.359 158.306 178.454 158.306 178.454C159.901 173.742 168.275 171.236 167.029 178.454C165.583 188.48 169.072 193.492 168.923 201.763C168.923 202.214 168.923 202.716 168.923 203.417C168.943 203.718 168.943 204.019 168.923 204.32C168.949 204.536 168.949 204.755 168.923 204.971C168.923 204.971 168.923 205.222 168.923 205.322C167.709 211.482 165.557 217.417 162.543 222.917C167.976 240.762 192.897 287.43 207.401 313.145C216.273 305.727 227.338 296.904 238.802 288.082L237.805 286.428C237.805 286.428 296.919 230.837 327.523 226.626C327.971 224.471 328.27 222.115 328.569 219.659C328.868 217.202 329.068 213.042 329.167 209.633C306.688 209.382 304.595 192.74 306.838 171.587L303.299 170.684L308.532 157.05V156.047C307.958 155.375 307.624 154.527 307.585 153.641C307.585 151.987 308.034 150.584 308.931 150.533C309.059 150.483 309.202 150.483 309.33 150.533C309.33 149.33 309.729 148.127 309.878 146.924C310.277 144.268 310.775 141.912 311.274 139.455C309.941 139.192 308.57 139.192 307.236 139.455L306.838 136.999C308.486 136.704 310.174 136.704 311.822 136.999C313.476 130.278 316.149 123.854 319.747 117.951C312.57 117.45 309.18 115.094 314.165 109.279C321.89 100.256 358.475 95.7446 376.917 99.5542C383.396 100.908 387.633 103.264 387.683 106.772C387.683 107.174 387.683 107.424 387.683 107.775C389.569 106.972 391.193 105.652 392.368 103.965L394.462 105.369C393.259 107.081 391.692 108.502 389.876 109.529L389.128 109.93C408.866 122.863 380.954 192.139 380.854 192.139C380.306 204.019 379.957 215.749 380.007 224.02C397.751 226.075 408.966 231.288 416.392 239.459C436.329 255.549 466.933 321.567 466.933 321.567L454.422 324.875C463.344 353.648 470.92 382.521 473.114 392.196C473.179 393.642 473.062 395.09 472.765 396.507Z" fill="#D1CDD3"/>
<rect opacity="0.3" x="380.303" y="285.571" width="334.381" height="261.523" rx="34" transform="rotate(180 380.303 285.571)" fill="#4D8DFF"/>
<path opacity="0.3" fill-rule="evenodd" clip-rule="evenodd" d="M43.9665 308.617H358.303C368.929 308.617 379.117 304.379 386.617 296.84C394.116 289.301 398.309 279.081 398.27 268.439V40.0282C398.27 17.9212 380.376 0 358.303 0H43.9665C21.8936 0 4 17.9212 4 40.0282V268.589C4 290.696 21.8936 308.617 43.9665 308.617ZM4.99815 39.9736C5.02569 18.4616 22.4201 1.02961 43.8856 1.00201H358.384C379.85 1.02961 397.244 18.4616 397.272 39.9736V268.644C397.244 290.156 379.85 307.588 358.384 307.615H43.8856C22.4201 307.588 5.02569 290.156 4.99815 268.644V39.9736Z" fill="#4D8DFF"/>
<g opacity="0.3">
<rect x="129.767" y="101.202" width="55.8965" height="44.0882" rx="6" transform="rotate(180 129.767 101.202)" fill="#4D8DFF"/>
<rect x="203.63" y="101.202" width="55.8965" height="44.0882" rx="6" transform="rotate(180 203.63 101.202)" fill="#4D8DFF"/>
<rect x="278.492" y="101.202" width="55.8965" height="44.0882" rx="6" transform="rotate(180 278.492 101.202)" fill="#4D8DFF"/>
<rect x="352.355" y="101.202" width="55.8965" height="44.0882" rx="6" transform="rotate(180 352.355 101.202)" fill="#4D8DFF"/>
</g>
<g opacity="0.3">
<rect x="129.767" y="176.353" width="55.8965" height="44.0882" rx="6" transform="rotate(180 129.767 176.353)" fill="#4D8DFF"/>
<rect x="203.63" y="176.353" width="55.8965" height="44.0882" rx="6" transform="rotate(180 203.63 176.353)" fill="#4D8DFF"/>
<rect x="278.492" y="176.353" width="55.8965" height="44.0882" rx="6" transform="rotate(180 278.492 176.353)" fill="#4D8DFF"/>
<rect x="352.355" y="176.353" width="55.8965" height="44.0882" rx="6" transform="rotate(180 352.355 176.353)" fill="#4D8DFF"/>
</g>
<g opacity="0.3">
<rect x="129.767" y="251.503" width="55.8965" height="44.0882" rx="6" transform="rotate(180 129.767 251.503)" fill="#4D8DFF"/>
<rect x="203.63" y="251.503" width="55.8965" height="44.0882" rx="6" transform="rotate(180 203.63 251.503)" fill="#4D8DFF"/>
<rect x="278.492" y="251.503" width="55.8965" height="44.0882" rx="6" transform="rotate(180 278.492 251.503)" fill="#4D8DFF"/>
<rect x="352.355" y="251.503" width="55.8965" height="44.0882" rx="6" transform="rotate(180 352.355 251.503)" fill="#4D8DFF"/>
</g>
<rect x="285.479" y="94.1884" width="55.8965" height="44.0882" rx="6" transform="rotate(180 285.479 94.1884)" fill="#4D8DFF"/>
<rect x="285.479" y="244.489" width="55.8965" height="44.0882" rx="6" transform="rotate(180 285.479 244.489)" fill="#FF4E4A"/>
<rect x="136.754" y="169.339" width="55.8965" height="44.0882" rx="6" transform="rotate(180 136.754 169.339)" fill="#FFC84D"/>
<path d="M419.231 149.299C417.523 160.263 414.208 219.714 415.564 233.294C416.921 246.874 350.27 250.999 359.16 235.859C368.05 220.72 361.722 170.474 361.722 170.474L419.231 149.299Z" fill="#FFAD69"/>
<path d="M415.238 150.301L362.336 169.617C364.317 186.147 364.788 202.823 363.743 219.439C385.547 210.458 380.724 192.195 380.724 182.361C380.724 173.43 415.289 152.006 415.238 150.301Z" fill="#D88344"/>
<path d="M345.567 153.307L337.383 171.208L347.364 175.351L345.567 153.307Z" fill="#D88344"/>
<path d="M345.599 146.908C340.597 180.696 332.394 214.383 373.21 208.811C414.026 203.238 420.328 150.824 420.228 140.883C419.578 88.0671 355.203 80.5364 345.599 146.908Z" fill="#FFAD69"/>
<path d="M425.32 110.043C427.429 108.948 429.261 107.382 430.675 105.466L428.573 104.057C427.296 105.779 425.562 107.104 423.569 107.88C423.596 107.529 423.596 107.175 423.569 106.824C423.569 93.1421 360.219 97.0656 349.76 109.289C343.555 116.532 350.161 118.443 360.869 118.091C360.074 118.706 359.481 119.547 359.168 120.506C352.112 155.263 385.439 189.467 389.192 192.385H416.413C416.413 192.385 444.936 122.819 425.32 110.043Z" fill="#232323"/>
<path d="M507.951 392.752C504.378 376.647 485.766 306.96 470.975 273.547L433.205 281.675C433.205 281.675 457.575 364.054 470.529 394.809C467.501 411.365 452.214 488.376 442.784 509.899C438.615 519.934 454.398 523.797 458.22 518.98C462.041 514.164 505.42 426.065 507.852 398.571C507.852 397.969 507.852 397.468 507.852 396.916C508.1 395.542 508.133 394.137 507.951 392.752Z" fill="#FFAD69"/>
<path d="M451.109 239.064C471.116 254.78 502.078 321.606 502.078 321.606L436.554 338.677C436.554 338.677 398.439 197.693 451.109 239.064Z" fill="#E5AA33"/>
<path d="M483.113 501.739C472.467 511.203 460.947 519.619 448.711 526.872C405.584 553.161 352.137 569.095 296.496 582.164C296.446 581.512 296.446 580.856 296.496 580.204C298.291 549.089 301.482 513.551 306.467 490.982L449.11 493.847L482.814 494.551C482.814 496.26 483.113 498.672 483.113 501.739Z" fill="#232323"/>
<path d="M403.556 223.57C442.808 224.87 456.109 238.124 462.86 261.081C470.56 287.088 484.111 444.382 484.111 496.897C484.111 496.897 366.553 505.25 301.449 494.546C321.851 425.577 324.051 301.592 324.501 264.482C324.801 236.924 353.753 221.92 403.556 223.57Z" fill="#FFC84D"/>
<path fill-rule="evenodd" clip-rule="evenodd" d="M408.648 250.981C409.356 251.947 410.478 252.513 411.668 252.505L412.272 252.302C413.623 252.129 414.777 251.237 415.293 249.965L421.031 235.54C421.414 234.381 421.23 233.107 420.536 232.106C419.841 231.105 418.718 230.495 417.507 230.461H401.047C399.617 230.461 398.31 231.276 397.67 232.567C397.031 233.857 397.169 235.402 398.027 236.556L408.648 250.981ZM399.46 234.181C399.676 233.735 400.127 233.456 400.617 233.467H417.007C417.43 233.462 417.826 233.673 418.063 234.028C418.29 234.403 418.29 234.876 418.063 235.251L412.331 249.677C412.179 250.122 411.788 250.44 411.326 250.492C410.878 250.545 410.437 250.351 410.169 249.983L399.46 235.506C399.204 235.103 399.204 234.584 399.46 234.181Z" fill="white"/>
<path d="M324.353 273.796C324.054 292.051 323.356 321.169 321.412 353.707C338.012 333.591 354.312 309.804 355.259 291.951C356.605 267.409 342.797 265.9 324.353 273.796Z" fill="#E5AA33"/>
<path d="M346.366 281.924L326.452 248.564C326.452 248.564 271.689 288.345 242.266 312.975C227.729 287.191 202.886 240.488 197.46 222.679C200.461 217.194 202.594 211.27 203.782 205.122C203.812 205.007 203.812 204.886 203.782 204.771C203.782 204.771 203.782 204.319 203.782 204.118C203.804 203.818 203.804 203.516 203.782 203.216C203.782 202.513 203.782 201.961 203.782 201.51C203.782 193.433 200.447 188.467 201.891 178.234C202.886 171.06 194.771 173.518 193.178 178.234L192.531 182.447C190.49 177.431 178.193 147.984 173.513 147.332C168.833 146.68 171.771 154.606 174.658 162.382C175.903 165.843 176.849 168.552 177.645 170.96C170.775 172.565 164.701 184.404 163.755 189.37C162.809 194.336 175.256 222.027 178.691 227.044C178.957 227.379 179.277 227.667 179.637 227.896C182.176 242.645 204.529 329.128 219.863 349.796C229.521 362.588 241.868 361.585 249.086 354.813C266.81 343.425 321.274 305.702 346.366 281.924Z" fill="#FFAD69"/>
<path d="M380.213 248.803C378.217 285.593 310.336 348.697 310.336 348.697L272.503 286.546C272.503 286.546 383.907 181.89 380.213 248.803Z" fill="#FFC84D"/>
<path d="M359.82 157.243C358.279 166.132 356.019 174.971 364.495 174.314C372.972 173.658 375.13 159.819 375.284 157.192C376.003 143.05 362.851 139.666 359.82 157.243Z" fill="#FFAD69"/>
</g>
<defs>
<filter id="filter0_d_0_120" x="0" y="0" width="548" height="618" filterUnits="userSpaceOnUse" color-interpolation-filters="sRGB">
<feFlood flood-opacity="0" result="BackgroundImageFix"/>
<feColorMatrix in="SourceAlpha" type="matrix" values="0 0 0 0 0 0 0 0 0 0 0 0 0 0 0 0 0 0 127 0" result="hardAlpha"/>
<feOffset dy="4"/>
<feGaussianBlur stdDeviation="2"/>
<feComposite in2="hardAlpha" operator="out"/>
<feColorMatrix type="matrix" values="0 0 0 0 0 0 0 0 0 0 0 0 0 0 0 0 0 0 0.25 0"/>
<feBlend mode="normal" in2="BackgroundImageFix" result="effect1_dropShadow_0_120"/>
<feBlend mode="normal" in="SourceGraphic" in2="effect1_dropShadow_0_120" result="shape"/>
</filter>
</defs>
</svg>
