<svg width="61" height="15" viewBox="0 0 61 15" fill="none" xmlns="http://www.w3.org/2000/svg">
<path d="M9.04786 2.94C8.95445 3.09333 8.8577 3.20667 8.75761 3.28C8.6642 3.34667 8.54076 3.38 8.3873 3.38C8.2405 3.38 8.08037 3.33 7.90689 3.23C7.74008 3.12333 7.54324 3.01 7.31638 2.89C7.08952 2.77 6.8293 2.66 6.53571 2.56C6.24213 2.45333 5.8985 2.4 5.50483 2.4C4.81091 2.4 4.29046 2.55667 3.9435 2.87C3.59653 3.17667 3.42305 3.58 3.42305 4.08C3.42305 4.4 3.51647 4.66667 3.70329 4.88C3.89679 5.08667 4.14701 5.26667 4.45393 5.42C4.76754 5.57333 5.12117 5.71 5.51484 5.83C5.90851 5.95 6.31219 6.08333 6.72588 6.23C7.13956 6.37 7.54324 6.53667 7.93691 6.73C8.33058 6.92333 8.68088 7.16667 8.98781 7.46C9.30141 7.75333 9.55162 8.11333 9.73845 8.54C9.93195 8.96 10.0287 9.47333 10.0287 10.08C10.0287 10.74 9.91193 11.36 9.6784 11.94C9.45154 12.5133 9.12126 13.0167 8.68755 13.45C8.25385 13.8767 7.71672 14.2133 7.07618 14.46C6.4423 14.7067 5.72168 14.83 4.91433 14.83C4.45393 14.83 3.99354 14.7833 3.53315 14.69C3.07943 14.5967 2.63905 14.4667 2.21202 14.3C1.79166 14.1333 1.39465 13.9333 1.021 13.7C0.647347 13.4667 0.320401 13.2067 0.0401611 12.92L0.920914 11.5C0.99431 11.3933 1.09106 11.3067 1.21116 11.24C1.33126 11.1667 1.45804 11.13 1.59149 11.13C1.77164 11.13 1.9618 11.1967 2.16197 11.33C2.36215 11.4633 2.59234 11.61 2.85256 11.77C3.11279 11.93 3.41304 12.0767 3.75333 12.21C4.1003 12.3433 4.51399 12.41 4.9944 12.41C5.69499 12.41 6.23546 12.25 6.61578 11.93C7.00278 11.61 7.19628 11.1333 7.19628 10.5C7.19628 10.1333 7.09953 9.83667 6.90603 9.61C6.7192 9.38333 6.47233 9.19333 6.1654 9.04C5.85847 8.88667 5.50817 8.75667 5.1145 8.65C4.72083 8.53667 4.31715 8.41333 3.90346 8.28C3.48978 8.14667 3.0861 7.98667 2.69243 7.8C2.29876 7.61333 1.94846 7.36667 1.64153 7.06C1.3346 6.75333 1.08439 6.37333 0.890888 5.92C0.704062 5.46667 0.610649 4.90333 0.610649 4.23C0.610649 3.69 0.717407 3.16667 0.930922 2.66C1.14444 2.15333 1.45804 1.70333 1.87173 1.31C2.28541 0.916667 2.79251 0.6 3.39303 0.36C4.00021 0.12 4.69414 0 5.47481 0C6.34889 0 7.15624 0.136667 7.89688 0.41C8.64418 0.676667 9.27472 1.05 9.78849 1.53L9.04786 2.94Z" fill="white"/>
<path d="M27.8395 7.41C27.8395 8.47 27.6594 9.45333 27.2991 10.36C26.9455 11.2667 26.4417 12.05 25.7878 12.71C25.1406 13.37 24.3599 13.89 23.4458 14.27C22.5317 14.6433 21.5175 14.83 20.4032 14.83C19.2889 14.83 18.2747 14.6433 17.3606 14.27C16.4465 13.89 15.6625 13.37 15.0086 12.71C14.3547 12.05 13.8476 11.2667 13.4873 10.36C13.1336 9.45333 12.9568 8.47 12.9568 7.41C12.9568 6.35 13.1336 5.37 13.4873 4.47C13.8476 3.56333 14.3547 2.78 15.0086 2.12C15.6625 1.46 16.4465 0.943334 17.3606 0.57C18.2747 0.19 19.2889 0 20.4032 0C21.5175 0 22.5317 0.19 23.4458 0.57C24.3599 0.943334 25.1406 1.46333 25.7878 2.13C26.4417 2.79 26.9455 3.57333 27.2991 4.48C27.6594 5.38 27.8395 6.35667 27.8395 7.41ZM24.7669 7.41C24.7669 6.65 24.6668 5.97 24.4667 5.37C24.2665 4.76333 23.9762 4.25 23.5959 3.83C23.2223 3.40333 22.7652 3.08 22.2247 2.86C21.691 2.63333 21.0838 2.52 20.4032 2.52C19.7226 2.52 19.1121 2.63333 18.5716 2.86C18.0312 3.08 17.5708 3.40333 17.1904 3.83C16.8168 4.25 16.5299 4.76333 16.3297 5.37C16.1295 5.97 16.0295 6.65 16.0295 7.41C16.0295 8.17667 16.1295 8.86333 16.3297 9.47C16.5299 10.07 16.8168 10.58 17.1904 11C17.5708 11.42 18.0312 11.7433 18.5716 11.97C19.1121 12.19 19.7226 12.3 20.4032 12.3C21.0838 12.3 21.691 12.19 22.2247 11.97C22.7652 11.7433 23.2223 11.42 23.5959 11C23.9762 10.58 24.2665 10.07 24.4667 9.47C24.6668 8.86333 24.7669 8.17667 24.7669 7.41Z" fill="white"/>
<path d="M40.2511 12.23V14.67H31.6337V0.16H34.6363V12.23H40.2511Z" fill="white"/>
<path d="M46.7158 14.67H43.6933V0.16H46.7158V14.67Z" fill="white"/>
<path d="M59.2212 2.94C59.1278 3.09333 59.0311 3.20667 58.931 3.28C58.8376 3.34667 58.7141 3.38 58.5606 3.38C58.4139 3.38 58.2537 3.33 58.0802 3.23C57.9134 3.12333 57.7166 3.01 57.4897 2.89C57.2629 2.77 57.0026 2.66 56.7091 2.56C56.4155 2.45333 56.0719 2.4 55.6782 2.4C54.9843 2.4 54.4638 2.55667 54.1168 2.87C53.7699 3.17667 53.5964 3.58 53.5964 4.08C53.5964 4.4 53.6898 4.66667 53.8766 4.88C54.0701 5.08667 54.3204 5.26667 54.6273 5.42C54.9409 5.57333 55.2945 5.71 55.6882 5.83C56.0819 5.95 56.4855 6.08333 56.8992 6.23C57.3129 6.37 57.7166 6.53667 58.1103 6.73C58.5039 6.92333 58.8542 7.16667 59.1612 7.46C59.4748 7.75333 59.725 8.11333 59.9118 8.54C60.1053 8.96 60.2021 9.47333 60.2021 10.08C60.2021 10.74 60.0853 11.36 59.8518 11.94C59.6249 12.5133 59.2946 13.0167 58.8609 13.45C58.4272 13.8767 57.8901 14.2133 57.2495 14.46C56.6157 14.7067 55.895 14.83 55.0877 14.83C54.6273 14.83 54.1669 14.7833 53.7065 14.69C53.2528 14.5967 52.8124 14.4667 52.3854 14.3C51.965 14.1333 51.568 13.9333 51.1944 13.7C50.8207 13.4667 50.4938 13.2067 50.2135 12.92L51.0943 11.5C51.1677 11.3933 51.2644 11.3067 51.3845 11.24C51.5046 11.1667 51.6314 11.13 51.7648 11.13C51.945 11.13 52.1352 11.1967 52.3353 11.33C52.5355 11.4633 52.7657 11.61 53.0259 11.77C53.2861 11.93 53.5864 12.0767 53.9267 12.21C54.2737 12.3433 54.6873 12.41 55.1678 12.41C55.8684 12.41 56.4088 12.25 56.7891 11.93C57.1761 11.61 57.3696 11.1333 57.3696 10.5C57.3696 10.1333 57.2729 9.83667 57.0794 9.61C56.8926 9.38333 56.6457 9.19333 56.3387 9.04C56.0318 8.88667 55.6815 8.75667 55.2879 8.65C54.8942 8.53667 54.4905 8.41333 54.0768 8.28C53.6631 8.14667 53.2594 7.98667 52.8658 7.8C52.4721 7.61333 52.1218 7.36667 51.8149 7.06C51.508 6.75333 51.2577 6.37333 51.0642 5.92C50.8774 5.46667 50.784 4.90333 50.784 4.23C50.784 3.69 50.8908 3.16667 51.1043 2.66C51.3178 2.15333 51.6314 1.70333 52.0451 1.31C52.4588 0.916667 52.9659 0.6 53.5664 0.36C54.1736 0.12 54.8675 0 55.6482 0C56.5222 0 57.3296 0.136667 58.0702 0.41C58.8175 0.676667 59.4481 1.05 59.9618 1.53L59.2212 2.94Z" fill="white"/>
</svg>
