<svg width="162" height="108" viewBox="0 0 162 108" fill="none" xmlns="http://www.w3.org/2000/svg">
<rect opacity="0.3" x="30" y="75" width="112" height="13" fill="#02E0AB"/>
<path d="M27.12 76.86C27.12 77.6733 27.02 78.4067 26.82 79.06C26.62 79.7133 26.32 80.27 25.92 80.73C25.5267 81.19 25.0333 81.5433 24.44 81.79C23.8467 82.0367 23.1567 82.16 22.37 82.16C22.01 82.16 21.6567 82.1367 21.31 82.09C20.9633 82.05 20.6 81.9833 20.22 81.89C20.24 81.6233 20.2633 81.3567 20.29 81.09C20.3167 80.8233 20.34 80.5567 20.36 80.29C20.38 80.1433 20.4367 80.0267 20.53 79.94C20.63 79.8467 20.77 79.8 20.95 79.8C21.0633 79.8 21.21 79.8233 21.39 79.87C21.5767 79.9167 21.81 79.94 22.09 79.94C22.47 79.94 22.8067 79.8867 23.1 79.78C23.3933 79.6667 23.6367 79.49 23.83 79.25C24.03 79.01 24.18 78.7 24.28 78.32C24.38 77.9333 24.43 77.4667 24.43 76.92V67.54H27.12V76.86ZM45.5938 74.77C45.5938 75.83 45.4171 76.8133 45.0638 77.72C44.7171 78.62 44.2238 79.4 43.5838 80.06C42.9438 80.72 42.1738 81.2367 41.2738 81.61C40.3738 81.9767 39.3738 82.16 38.2738 82.16C37.1804 82.16 36.1838 81.9767 35.2838 81.61C34.3838 81.2367 33.6104 80.72 32.9638 80.06C32.3238 79.4 31.8271 78.62 31.4738 77.72C31.1204 76.8133 30.9438 75.83 30.9438 74.77C30.9438 73.71 31.1204 72.73 31.4738 71.83C31.8271 70.9233 32.3238 70.14 32.9638 69.48C33.6104 68.82 34.3838 68.3067 35.2838 67.94C36.1838 67.5667 37.1804 67.38 38.2738 67.38C39.0071 67.38 39.6971 67.4667 40.3438 67.64C40.9904 67.8067 41.5838 68.0467 42.1238 68.36C42.6638 68.6667 43.1471 69.0433 43.5738 69.49C44.0071 69.93 44.3738 70.4233 44.6738 70.97C44.9738 71.5167 45.2004 72.11 45.3538 72.75C45.5138 73.39 45.5938 74.0633 45.5938 74.77ZM42.8438 74.77C42.8438 73.9767 42.7371 73.2667 42.5238 72.64C42.3104 72.0067 42.0071 71.47 41.6138 71.03C41.2204 70.59 40.7404 70.2533 40.1738 70.02C39.6138 69.7867 38.9804 69.67 38.2738 69.67C37.5671 69.67 36.9304 69.7867 36.3638 70.02C35.8038 70.2533 35.3238 70.59 34.9238 71.03C34.5304 71.47 34.2271 72.0067 34.0138 72.64C33.8004 73.2667 33.6938 73.9767 33.6938 74.77C33.6938 75.5633 33.8004 76.2767 34.0138 76.91C34.2271 77.5367 34.5304 78.07 34.9238 78.51C35.3238 78.9433 35.8038 79.2767 36.3638 79.51C36.9304 79.7433 37.5671 79.86 38.2738 79.86C38.9804 79.86 39.6138 79.7433 40.1738 79.51C40.7404 79.2767 41.2204 78.9433 41.6138 78.51C42.0071 78.07 42.3104 77.5367 42.5238 76.91C42.7371 76.2767 42.8438 75.5633 42.8438 74.77ZM52.2561 82H49.5561V67.54H52.2561V82ZM69.2836 67.54V82H67.9036C67.6903 82 67.5103 81.9667 67.3636 81.9C67.2236 81.8267 67.0869 81.7067 66.9536 81.54L59.4036 71.9C59.4436 72.34 59.4636 72.7467 59.4636 73.12V82H57.0936V67.54H58.5036C58.6169 67.54 58.7136 67.5467 58.7936 67.56C58.8803 67.5667 58.9536 67.5867 59.0136 67.62C59.0803 67.6467 59.1436 67.69 59.2036 67.75C59.2636 67.8033 59.3303 67.8767 59.4036 67.97L66.9836 77.65C66.9636 77.4167 66.9469 77.1867 66.9336 76.96C66.9203 76.7333 66.9136 76.5233 66.9136 76.33V67.54H69.2836ZM92.757 67.54V82H91.377C91.1637 82 90.9837 81.9667 90.837 81.9C90.697 81.8267 90.5604 81.7067 90.427 81.54L82.877 71.9C82.917 72.34 82.937 72.7467 82.937 73.12V82H80.567V67.54H81.977C82.0904 67.54 82.187 67.5467 82.267 67.56C82.3537 67.5667 82.427 67.5867 82.487 67.62C82.5537 67.6467 82.617 67.69 82.677 67.75C82.737 67.8033 82.8037 67.8767 82.877 67.97L90.457 77.65C90.437 77.4167 90.4204 77.1867 90.407 76.96C90.3937 76.7333 90.387 76.5233 90.387 76.33V67.54H92.757ZM111.367 74.77C111.367 75.83 111.191 76.8133 110.837 77.72C110.491 78.62 109.997 79.4 109.357 80.06C108.717 80.72 107.947 81.2367 107.047 81.61C106.147 81.9767 105.147 82.16 104.047 82.16C102.954 82.16 101.957 81.9767 101.057 81.61C100.157 81.2367 99.3839 80.72 98.7372 80.06C98.0972 79.4 97.6005 78.62 97.2472 77.72C96.8939 76.8133 96.7172 75.83 96.7172 74.77C96.7172 73.71 96.8939 72.73 97.2472 71.83C97.6005 70.9233 98.0972 70.14 98.7372 69.48C99.3839 68.82 100.157 68.3067 101.057 67.94C101.957 67.5667 102.954 67.38 104.047 67.38C104.781 67.38 105.471 67.4667 106.117 67.64C106.764 67.8067 107.357 68.0467 107.897 68.36C108.437 68.6667 108.921 69.0433 109.347 69.49C109.781 69.93 110.147 70.4233 110.447 70.97C110.747 71.5167 110.974 72.11 111.127 72.75C111.287 73.39 111.367 74.0633 111.367 74.77ZM108.617 74.77C108.617 73.9767 108.511 73.2667 108.297 72.64C108.084 72.0067 107.781 71.47 107.387 71.03C106.994 70.59 106.514 70.2533 105.947 70.02C105.387 69.7867 104.754 69.67 104.047 69.67C103.341 69.67 102.704 69.7867 102.137 70.02C101.577 70.2533 101.097 70.59 100.697 71.03C100.304 71.47 100.001 72.0067 99.7872 72.64C99.5739 73.2667 99.4672 73.9767 99.4672 74.77C99.4672 75.5633 99.5739 76.2767 99.7872 76.91C100.001 77.5367 100.304 78.07 100.697 78.51C101.097 78.9433 101.577 79.2767 102.137 79.51C102.704 79.7433 103.341 79.86 104.047 79.86C104.754 79.86 105.387 79.7433 105.947 79.51C106.514 79.2767 106.994 78.9433 107.387 78.51C107.781 78.07 108.084 77.5367 108.297 76.91C108.511 76.2767 108.617 75.5633 108.617 74.77ZM134.277 67.54L129.787 82H127.357L124.197 72.12C124.11 71.88 124.03 71.5867 123.957 71.24C123.917 71.4067 123.877 71.5633 123.837 71.71C123.797 71.8567 123.753 71.9933 123.707 72.12L120.517 82H118.077L113.597 67.54H115.847C116.08 67.54 116.273 67.5967 116.427 67.71C116.587 67.8167 116.693 67.9633 116.747 68.15L119.207 76.8C119.26 77.0133 119.31 77.2467 119.357 77.5C119.41 77.7467 119.463 78.0067 119.517 78.28C119.57 78 119.627 77.7367 119.687 77.49C119.753 77.2433 119.823 77.0133 119.897 76.8L122.737 68.15C122.79 67.9967 122.893 67.8567 123.047 67.73C123.207 67.6033 123.4 67.54 123.627 67.54H124.417C124.65 67.54 124.84 67.5967 124.987 67.71C125.133 67.8233 125.243 67.97 125.317 68.15L128.147 76.8C128.287 77.2133 128.413 77.69 128.527 78.23C128.613 77.7033 128.71 77.2267 128.817 76.8L131.277 68.15C131.317 67.9833 131.417 67.84 131.577 67.72C131.743 67.6 131.94 67.54 132.167 67.54H134.277Z" fill="#02E0AB"/>
<rect opacity="0.3" x="30" y="31" width="112" height="13" fill="#53F3CD"/>
<path d="M27.12 32.86C27.12 33.6733 27.02 34.4067 26.82 35.06C26.62 35.7133 26.32 36.27 25.92 36.73C25.5267 37.19 25.0333 37.5433 24.44 37.79C23.8467 38.0367 23.1567 38.16 22.37 38.16C22.01 38.16 21.6567 38.1367 21.31 38.09C20.9633 38.05 20.6 37.9833 20.22 37.89C20.24 37.6233 20.2633 37.3567 20.29 37.09C20.3167 36.8233 20.34 36.5567 20.36 36.29C20.38 36.1433 20.4367 36.0267 20.53 35.94C20.63 35.8467 20.77 35.8 20.95 35.8C21.0633 35.8 21.21 35.8233 21.39 35.87C21.5767 35.9167 21.81 35.94 22.09 35.94C22.47 35.94 22.8067 35.8867 23.1 35.78C23.3933 35.6667 23.6367 35.49 23.83 35.25C24.03 35.01 24.18 34.7 24.28 34.32C24.38 33.9333 24.43 33.4667 24.43 32.92V23.54H27.12V32.86ZM45.5938 30.77C45.5938 31.83 45.4171 32.8133 45.0638 33.72C44.7171 34.62 44.2238 35.4 43.5838 36.06C42.9438 36.72 42.1738 37.2367 41.2738 37.61C40.3738 37.9767 39.3738 38.16 38.2738 38.16C37.1804 38.16 36.1838 37.9767 35.2838 37.61C34.3838 37.2367 33.6104 36.72 32.9638 36.06C32.3238 35.4 31.8271 34.62 31.4738 33.72C31.1204 32.8133 30.9438 31.83 30.9438 30.77C30.9438 29.71 31.1204 28.73 31.4738 27.83C31.8271 26.9233 32.3238 26.14 32.9638 25.48C33.6104 24.82 34.3838 24.3067 35.2838 23.94C36.1838 23.5667 37.1804 23.38 38.2738 23.38C39.0071 23.38 39.6971 23.4667 40.3438 23.64C40.9904 23.8067 41.5838 24.0467 42.1238 24.36C42.6638 24.6667 43.1471 25.0433 43.5738 25.49C44.0071 25.93 44.3738 26.4233 44.6738 26.97C44.9738 27.5167 45.2004 28.11 45.3538 28.75C45.5138 29.39 45.5938 30.0633 45.5938 30.77ZM42.8438 30.77C42.8438 29.9767 42.7371 29.2667 42.5238 28.64C42.3104 28.0067 42.0071 27.47 41.6138 27.03C41.2204 26.59 40.7404 26.2533 40.1738 26.02C39.6138 25.7867 38.9804 25.67 38.2738 25.67C37.5671 25.67 36.9304 25.7867 36.3638 26.02C35.8038 26.2533 35.3238 26.59 34.9238 27.03C34.5304 27.47 34.2271 28.0067 34.0138 28.64C33.8004 29.2667 33.6938 29.9767 33.6938 30.77C33.6938 31.5633 33.8004 32.2767 34.0138 32.91C34.2271 33.5367 34.5304 34.07 34.9238 34.51C35.3238 34.9433 35.8038 35.2767 36.3638 35.51C36.9304 35.7433 37.5671 35.86 38.2738 35.86C38.9804 35.86 39.6138 35.7433 40.1738 35.51C40.7404 35.2767 41.2204 34.9433 41.6138 34.51C42.0071 34.07 42.3104 33.5367 42.5238 32.91C42.7371 32.2767 42.8438 31.5633 42.8438 30.77ZM52.2561 38H49.5561V23.54H52.2561V38ZM69.2836 23.54V38H67.9036C67.6903 38 67.5103 37.9667 67.3636 37.9C67.2236 37.8267 67.0869 37.7067 66.9536 37.54L59.4036 27.9C59.4436 28.34 59.4636 28.7467 59.4636 29.12V38H57.0936V23.54H58.5036C58.6169 23.54 58.7136 23.5467 58.7936 23.56C58.8803 23.5667 58.9536 23.5867 59.0136 23.62C59.0803 23.6467 59.1436 23.69 59.2036 23.75C59.2636 23.8033 59.3303 23.8767 59.4036 23.97L66.9836 33.65C66.9636 33.4167 66.9469 33.1867 66.9336 32.96C66.9203 32.7333 66.9136 32.5233 66.9136 32.33V23.54H69.2836ZM92.757 23.54V38H91.377C91.1637 38 90.9837 37.9667 90.837 37.9C90.697 37.8267 90.5604 37.7067 90.427 37.54L82.877 27.9C82.917 28.34 82.937 28.7467 82.937 29.12V38H80.567V23.54H81.977C82.0904 23.54 82.187 23.5467 82.267 23.56C82.3537 23.5667 82.427 23.5867 82.487 23.62C82.5537 23.6467 82.617 23.69 82.677 23.75C82.737 23.8033 82.8037 23.8767 82.877 23.97L90.457 33.65C90.437 33.4167 90.4204 33.1867 90.407 32.96C90.3937 32.7333 90.387 32.5233 90.387 32.33V23.54H92.757ZM111.367 30.77C111.367 31.83 111.191 32.8133 110.837 33.72C110.491 34.62 109.997 35.4 109.357 36.06C108.717 36.72 107.947 37.2367 107.047 37.61C106.147 37.9767 105.147 38.16 104.047 38.16C102.954 38.16 101.957 37.9767 101.057 37.61C100.157 37.2367 99.3839 36.72 98.7372 36.06C98.0972 35.4 97.6005 34.62 97.2472 33.72C96.8939 32.8133 96.7172 31.83 96.7172 30.77C96.7172 29.71 96.8939 28.73 97.2472 27.83C97.6005 26.9233 98.0972 26.14 98.7372 25.48C99.3839 24.82 100.157 24.3067 101.057 23.94C101.957 23.5667 102.954 23.38 104.047 23.38C104.781 23.38 105.471 23.4667 106.117 23.64C106.764 23.8067 107.357 24.0467 107.897 24.36C108.437 24.6667 108.921 25.0433 109.347 25.49C109.781 25.93 110.147 26.4233 110.447 26.97C110.747 27.5167 110.974 28.11 111.127 28.75C111.287 29.39 111.367 30.0633 111.367 30.77ZM108.617 30.77C108.617 29.9767 108.511 29.2667 108.297 28.64C108.084 28.0067 107.781 27.47 107.387 27.03C106.994 26.59 106.514 26.2533 105.947 26.02C105.387 25.7867 104.754 25.67 104.047 25.67C103.341 25.67 102.704 25.7867 102.137 26.02C101.577 26.2533 101.097 26.59 100.697 27.03C100.304 27.47 100.001 28.0067 99.7872 28.64C99.5739 29.2667 99.4672 29.9767 99.4672 30.77C99.4672 31.5633 99.5739 32.2767 99.7872 32.91C100.001 33.5367 100.304 34.07 100.697 34.51C101.097 34.9433 101.577 35.2767 102.137 35.51C102.704 35.7433 103.341 35.86 104.047 35.86C104.754 35.86 105.387 35.7433 105.947 35.51C106.514 35.2767 106.994 34.9433 107.387 34.51C107.781 34.07 108.084 33.5367 108.297 32.91C108.511 32.2767 108.617 31.5633 108.617 30.77ZM134.277 23.54L129.787 38H127.357L124.197 28.12C124.11 27.88 124.03 27.5867 123.957 27.24C123.917 27.4067 123.877 27.5633 123.837 27.71C123.797 27.8567 123.753 27.9933 123.707 28.12L120.517 38H118.077L113.597 23.54H115.847C116.08 23.54 116.273 23.5967 116.427 23.71C116.587 23.8167 116.693 23.9633 116.747 24.15L119.207 32.8C119.26 33.0133 119.31 33.2467 119.357 33.5C119.41 33.7467 119.463 34.0067 119.517 34.28C119.57 34 119.627 33.7367 119.687 33.49C119.753 33.2433 119.823 33.0133 119.897 32.8L122.737 24.15C122.79 23.9967 122.893 23.8567 123.047 23.73C123.207 23.6033 123.4 23.54 123.627 23.54H124.417C124.65 23.54 124.84 23.5967 124.987 23.71C125.133 23.8233 125.243 23.97 125.317 24.15L128.147 32.8C128.287 33.2133 128.413 33.69 128.527 34.23C128.613 33.7033 128.71 33.2267 128.817 32.8L131.277 24.15C131.317 23.9833 131.417 23.84 131.577 23.72C131.743 23.6 131.94 23.54 132.167 23.54H134.277Z" fill="#53F3CD"/>
<rect x="0.5" y="0.5" width="161" height="107" rx="4.5" stroke="#9747FF" stroke-dasharray="10 5"/>
</svg>
