<svg width="340" height="240" viewBox="0 0 340 240" fill="none" xmlns="http://www.w3.org/2000/svg">
<rect opacity="0.3" x="92.5" y="171" width="112" height="13" fill="#E64F3A"/>
<path d="M94.04 174.59C94.1867 174.59 94.3167 174.647 94.43 174.76L95.49 175.91C94.9033 176.637 94.18 177.193 93.32 177.58C92.4667 177.967 91.44 178.16 90.24 178.16C89.1667 178.16 88.2 177.977 87.34 177.61C86.4867 177.243 85.7567 176.733 85.15 176.08C84.5433 175.427 84.0767 174.647 83.75 173.74C83.43 172.833 83.27 171.843 83.27 170.77C83.27 169.683 83.4433 168.69 83.79 167.79C84.1367 166.883 84.6233 166.103 85.25 165.45C85.8833 164.797 86.6367 164.29 87.51 163.93C88.3833 163.563 89.35 163.38 90.41 163.38C91.4633 163.38 92.3967 163.553 93.21 163.9C94.03 164.247 94.7267 164.7 95.3 165.26L94.4 166.51C94.3467 166.59 94.2767 166.66 94.19 166.72C94.11 166.78 93.9967 166.81 93.85 166.81C93.75 166.81 93.6467 166.783 93.54 166.73C93.4333 166.67 93.3167 166.6 93.19 166.52C93.0633 166.433 92.9167 166.34 92.75 166.24C92.5833 166.14 92.39 166.05 92.17 165.97C91.95 165.883 91.6933 165.813 91.4 165.76C91.1133 165.7 90.78 165.67 90.4 165.67C89.7533 165.67 89.16 165.787 88.62 166.02C88.0867 166.247 87.6267 166.58 87.24 167.02C86.8533 167.453 86.5533 167.987 86.34 168.62C86.1267 169.247 86.02 169.963 86.02 170.77C86.02 171.583 86.1333 172.307 86.36 172.94C86.5933 173.573 86.9067 174.107 87.3 174.54C87.6933 174.973 88.1567 175.307 88.69 175.54C89.2233 175.767 89.7967 175.88 90.41 175.88C90.7767 175.88 91.1067 175.86 91.4 175.82C91.7 175.78 91.9733 175.717 92.22 175.63C92.4733 175.543 92.71 175.433 92.93 175.3C93.1567 175.16 93.38 174.99 93.6 174.79C93.6667 174.73 93.7367 174.683 93.81 174.65C93.8833 174.61 93.96 174.59 94.04 174.59ZM112.41 170.77C112.41 171.83 112.233 172.813 111.88 173.72C111.533 174.62 111.04 175.4 110.4 176.06C109.76 176.72 108.99 177.237 108.09 177.61C107.19 177.977 106.19 178.16 105.09 178.16C103.997 178.16 103 177.977 102.1 177.61C101.2 177.237 100.427 176.72 99.7802 176.06C99.1402 175.4 98.6435 174.62 98.2902 173.72C97.9368 172.813 97.7602 171.83 97.7602 170.77C97.7602 169.71 97.9368 168.73 98.2902 167.83C98.6435 166.923 99.1402 166.14 99.7802 165.48C100.427 164.82 101.2 164.307 102.1 163.94C103 163.567 103.997 163.38 105.09 163.38C105.823 163.38 106.513 163.467 107.16 163.64C107.807 163.807 108.4 164.047 108.94 164.36C109.48 164.667 109.963 165.043 110.39 165.49C110.823 165.93 111.19 166.423 111.49 166.97C111.79 167.517 112.017 168.11 112.17 168.75C112.33 169.39 112.41 170.063 112.41 170.77ZM109.66 170.77C109.66 169.977 109.553 169.267 109.34 168.64C109.127 168.007 108.823 167.47 108.43 167.03C108.037 166.59 107.557 166.253 106.99 166.02C106.43 165.787 105.797 165.67 105.09 165.67C104.383 165.67 103.747 165.787 103.18 166.02C102.62 166.253 102.14 166.59 101.74 167.03C101.347 167.47 101.043 168.007 100.83 168.64C100.617 169.267 100.51 169.977 100.51 170.77C100.51 171.563 100.617 172.277 100.83 172.91C101.043 173.537 101.347 174.07 101.74 174.51C102.14 174.943 102.62 175.277 103.18 175.51C103.747 175.743 104.383 175.86 105.09 175.86C105.797 175.86 106.43 175.743 106.99 175.51C107.557 175.277 108.037 174.943 108.43 174.51C108.823 174.07 109.127 173.537 109.34 172.91C109.553 172.277 109.66 171.563 109.66 170.77ZM128.563 163.54V178H127.183C126.969 178 126.789 177.967 126.643 177.9C126.503 177.827 126.366 177.707 126.233 177.54L118.683 167.9C118.723 168.34 118.743 168.747 118.743 169.12V178H116.373V163.54H117.783C117.896 163.54 117.993 163.547 118.073 163.56C118.159 163.567 118.233 163.587 118.293 163.62C118.359 163.647 118.423 163.69 118.483 163.75C118.543 163.803 118.609 163.877 118.683 163.97L126.263 173.65C126.243 173.417 126.226 173.187 126.213 172.96C126.199 172.733 126.193 172.523 126.193 172.33V163.54H128.563ZM143.483 165.75H139.123V178H136.433V165.75H132.073V163.54H143.483V165.75ZM153.209 172.54L151.449 167.73C151.362 167.517 151.272 167.263 151.179 166.97C151.085 166.677 150.992 166.36 150.899 166.02C150.812 166.36 150.722 166.68 150.629 166.98C150.535 167.273 150.445 167.53 150.359 167.75L148.609 172.54H153.209ZM157.959 178H155.879C155.645 178 155.455 177.943 155.309 177.83C155.162 177.71 155.052 177.563 154.979 177.39L153.899 174.44H147.909L146.829 177.39C146.775 177.543 146.672 177.683 146.519 177.81C146.365 177.937 146.175 178 145.949 178H143.849L149.539 163.54H152.279L157.959 178ZM170.556 174.59C170.702 174.59 170.832 174.647 170.946 174.76L172.006 175.91C171.419 176.637 170.696 177.193 169.836 177.58C168.982 177.967 167.956 178.16 166.756 178.16C165.682 178.16 164.716 177.977 163.856 177.61C163.002 177.243 162.272 176.733 161.666 176.08C161.059 175.427 160.592 174.647 160.266 173.74C159.946 172.833 159.786 171.843 159.786 170.77C159.786 169.683 159.959 168.69 160.306 167.79C160.652 166.883 161.139 166.103 161.766 165.45C162.399 164.797 163.152 164.29 164.026 163.93C164.899 163.563 165.866 163.38 166.926 163.38C167.979 163.38 168.912 163.553 169.726 163.9C170.546 164.247 171.242 164.7 171.816 165.26L170.916 166.51C170.862 166.59 170.792 166.66 170.706 166.72C170.626 166.78 170.512 166.81 170.366 166.81C170.266 166.81 170.162 166.783 170.056 166.73C169.949 166.67 169.832 166.6 169.706 166.52C169.579 166.433 169.432 166.34 169.266 166.24C169.099 166.14 168.906 166.05 168.686 165.97C168.466 165.883 168.209 165.813 167.916 165.76C167.629 165.7 167.296 165.67 166.916 165.67C166.269 165.67 165.676 165.787 165.136 166.02C164.602 166.247 164.142 166.58 163.756 167.02C163.369 167.453 163.069 167.987 162.856 168.62C162.642 169.247 162.536 169.963 162.536 170.77C162.536 171.583 162.649 172.307 162.876 172.94C163.109 173.573 163.422 174.107 163.816 174.54C164.209 174.973 164.672 175.307 165.206 175.54C165.739 175.767 166.312 175.88 166.926 175.88C167.292 175.88 167.622 175.86 167.916 175.82C168.216 175.78 168.489 175.717 168.736 175.63C168.989 175.543 169.226 175.433 169.446 175.3C169.672 175.16 169.896 174.99 170.116 174.79C170.182 174.73 170.252 174.683 170.326 174.65C170.399 174.61 170.476 174.59 170.556 174.59ZM185.548 165.75H181.188V178H178.498V165.75H174.138V163.54H185.548V165.75ZM202.598 166.17C202.518 166.31 202.432 166.413 202.338 166.48C202.252 166.54 202.142 166.57 202.008 166.57C201.868 166.57 201.715 166.52 201.548 166.42C201.388 166.313 201.195 166.197 200.968 166.07C200.742 165.943 200.475 165.83 200.168 165.73C199.868 165.623 199.512 165.57 199.098 165.57C198.725 165.57 198.398 165.617 198.118 165.71C197.838 165.797 197.602 165.92 197.408 166.08C197.222 166.24 197.082 166.433 196.988 166.66C196.895 166.88 196.848 167.123 196.848 167.39C196.848 167.73 196.942 168.013 197.128 168.24C197.322 168.467 197.575 168.66 197.888 168.82C198.202 168.98 198.558 169.123 198.958 169.25C199.358 169.377 199.768 169.513 200.188 169.66C200.608 169.8 201.018 169.967 201.418 170.16C201.818 170.347 202.175 170.587 202.488 170.88C202.802 171.167 203.052 171.52 203.238 171.94C203.432 172.36 203.528 172.87 203.528 173.47C203.528 174.123 203.415 174.737 203.188 175.31C202.968 175.877 202.642 176.373 202.208 176.8C201.782 177.22 201.258 177.553 200.638 177.8C200.018 178.04 199.308 178.16 198.508 178.16C198.048 178.16 197.595 178.113 197.148 178.02C196.702 177.933 196.272 177.807 195.858 177.64C195.452 177.473 195.068 177.273 194.708 177.04C194.348 176.807 194.028 176.547 193.748 176.26L194.538 174.97C194.605 174.877 194.692 174.8 194.798 174.74C194.905 174.673 195.018 174.64 195.138 174.64C195.305 174.64 195.485 174.71 195.678 174.85C195.872 174.983 196.102 175.133 196.368 175.3C196.635 175.467 196.945 175.62 197.298 175.76C197.658 175.893 198.088 175.96 198.588 175.96C199.355 175.96 199.948 175.78 200.368 175.42C200.788 175.053 200.998 174.53 200.998 173.85C200.998 173.47 200.902 173.16 200.708 172.92C200.522 172.68 200.272 172.48 199.958 172.32C199.645 172.153 199.288 172.013 198.888 171.9C198.488 171.787 198.082 171.663 197.668 171.53C197.255 171.397 196.848 171.237 196.448 171.05C196.048 170.863 195.692 170.62 195.378 170.32C195.065 170.02 194.812 169.647 194.618 169.2C194.432 168.747 194.338 168.19 194.338 167.53C194.338 167.003 194.442 166.49 194.648 165.99C194.862 165.49 195.168 165.047 195.568 164.66C195.968 164.273 196.462 163.963 197.048 163.73C197.635 163.497 198.308 163.38 199.068 163.38C199.922 163.38 200.708 163.513 201.428 163.78C202.148 164.047 202.762 164.42 203.268 164.9L202.598 166.17ZM214.822 172.54L213.062 167.73C212.975 167.517 212.885 167.263 212.792 166.97C212.699 166.677 212.605 166.36 212.512 166.02C212.425 166.36 212.335 166.68 212.242 166.98C212.149 167.273 212.059 167.53 211.972 167.75L210.222 172.54H214.822ZM219.572 178H217.492C217.259 178 217.069 177.943 216.922 177.83C216.775 177.71 216.665 177.563 216.592 177.39L215.512 174.44H209.522L208.442 177.39C208.389 177.543 208.285 177.683 208.132 177.81C207.979 177.937 207.789 178 207.562 178H205.462L211.152 163.54H213.892L219.572 178ZM231.139 175.78V178H222.669V163.54H225.359V175.78H231.139ZM237.359 165.68V169.69H242.419V171.76H237.359V175.85H243.779V178H234.659V163.54H243.779V165.68H237.359ZM255.463 166.17C255.383 166.31 255.296 166.413 255.203 166.48C255.116 166.54 255.006 166.57 254.873 166.57C254.733 166.57 254.58 166.52 254.413 166.42C254.253 166.313 254.06 166.197 253.833 166.07C253.606 165.943 253.34 165.83 253.033 165.73C252.733 165.623 252.376 165.57 251.963 165.57C251.59 165.57 251.263 165.617 250.983 165.71C250.703 165.797 250.466 165.92 250.273 166.08C250.086 166.24 249.946 166.433 249.853 166.66C249.76 166.88 249.713 167.123 249.713 167.39C249.713 167.73 249.806 168.013 249.993 168.24C250.186 168.467 250.44 168.66 250.753 168.82C251.066 168.98 251.423 169.123 251.823 169.25C252.223 169.377 252.633 169.513 253.053 169.66C253.473 169.8 253.883 169.967 254.283 170.16C254.683 170.347 255.04 170.587 255.353 170.88C255.666 171.167 255.916 171.52 256.103 171.94C256.296 172.36 256.393 172.87 256.393 173.47C256.393 174.123 256.28 174.737 256.053 175.31C255.833 175.877 255.506 176.373 255.073 176.8C254.646 177.22 254.123 177.553 253.503 177.8C252.883 178.04 252.173 178.16 251.373 178.16C250.913 178.16 250.46 178.113 250.013 178.02C249.566 177.933 249.136 177.807 248.723 177.64C248.316 177.473 247.933 177.273 247.573 177.04C247.213 176.807 246.893 176.547 246.613 176.26L247.403 174.97C247.47 174.877 247.556 174.8 247.663 174.74C247.77 174.673 247.883 174.64 248.003 174.64C248.17 174.64 248.35 174.71 248.543 174.85C248.736 174.983 248.966 175.133 249.233 175.3C249.5 175.467 249.81 175.62 250.163 175.76C250.523 175.893 250.953 175.96 251.453 175.96C252.22 175.96 252.813 175.78 253.233 175.42C253.653 175.053 253.863 174.53 253.863 173.85C253.863 173.47 253.766 173.16 253.573 172.92C253.386 172.68 253.136 172.48 252.823 172.32C252.51 172.153 252.153 172.013 251.753 171.9C251.353 171.787 250.946 171.663 250.533 171.53C250.12 171.397 249.713 171.237 249.313 171.05C248.913 170.863 248.556 170.62 248.243 170.32C247.93 170.02 247.676 169.647 247.483 169.2C247.296 168.747 247.203 168.19 247.203 167.53C247.203 167.003 247.306 166.49 247.513 165.99C247.726 165.49 248.033 165.047 248.433 164.66C248.833 164.273 249.326 163.963 249.913 163.73C250.5 163.497 251.173 163.38 251.933 163.38C252.786 163.38 253.573 163.513 254.293 163.78C255.013 164.047 255.626 164.42 256.133 164.9L255.463 166.17Z" fill="#E64F3A"/>
<rect x="20.5" y="130.5" width="299" height="87" stroke="#E64F3A"/>
<rect opacity="0.3" x="92.5" y="64" width="112" height="13" fill="#F1897B"/>
<path d="M94.04 67.59C94.1867 67.59 94.3167 67.6467 94.43 67.76L95.49 68.91C94.9033 69.6367 94.18 70.1933 93.32 70.58C92.4667 70.9667 91.44 71.16 90.24 71.16C89.1667 71.16 88.2 70.9767 87.34 70.61C86.4867 70.2433 85.7567 69.7333 85.15 69.08C84.5433 68.4267 84.0767 67.6467 83.75 66.74C83.43 65.8333 83.27 64.8433 83.27 63.77C83.27 62.6833 83.4433 61.69 83.79 60.79C84.1367 59.8833 84.6233 59.1033 85.25 58.45C85.8833 57.7967 86.6367 57.29 87.51 56.93C88.3833 56.5633 89.35 56.38 90.41 56.38C91.4633 56.38 92.3967 56.5533 93.21 56.9C94.03 57.2467 94.7267 57.7 95.3 58.26L94.4 59.51C94.3467 59.59 94.2767 59.66 94.19 59.72C94.11 59.78 93.9967 59.81 93.85 59.81C93.75 59.81 93.6467 59.7833 93.54 59.73C93.4333 59.67 93.3167 59.6 93.19 59.52C93.0633 59.4333 92.9167 59.34 92.75 59.24C92.5833 59.14 92.39 59.05 92.17 58.97C91.95 58.8833 91.6933 58.8133 91.4 58.76C91.1133 58.7 90.78 58.67 90.4 58.67C89.7533 58.67 89.16 58.7867 88.62 59.02C88.0867 59.2467 87.6267 59.58 87.24 60.02C86.8533 60.4533 86.5533 60.9867 86.34 61.62C86.1267 62.2467 86.02 62.9633 86.02 63.77C86.02 64.5833 86.1333 65.3067 86.36 65.94C86.5933 66.5733 86.9067 67.1067 87.3 67.54C87.6933 67.9733 88.1567 68.3067 88.69 68.54C89.2233 68.7667 89.7967 68.88 90.41 68.88C90.7767 68.88 91.1067 68.86 91.4 68.82C91.7 68.78 91.9733 68.7167 92.22 68.63C92.4733 68.5433 92.71 68.4333 92.93 68.3C93.1567 68.16 93.38 67.99 93.6 67.79C93.6667 67.73 93.7367 67.6833 93.81 67.65C93.8833 67.61 93.96 67.59 94.04 67.59ZM112.41 63.77C112.41 64.83 112.233 65.8133 111.88 66.72C111.533 67.62 111.04 68.4 110.4 69.06C109.76 69.72 108.99 70.2367 108.09 70.61C107.19 70.9767 106.19 71.16 105.09 71.16C103.997 71.16 103 70.9767 102.1 70.61C101.2 70.2367 100.427 69.72 99.7802 69.06C99.1402 68.4 98.6435 67.62 98.2902 66.72C97.9368 65.8133 97.7602 64.83 97.7602 63.77C97.7602 62.71 97.9368 61.73 98.2902 60.83C98.6435 59.9233 99.1402 59.14 99.7802 58.48C100.427 57.82 101.2 57.3067 102.1 56.94C103 56.5667 103.997 56.38 105.09 56.38C105.823 56.38 106.513 56.4667 107.16 56.64C107.807 56.8067 108.4 57.0467 108.94 57.36C109.48 57.6667 109.963 58.0433 110.39 58.49C110.823 58.93 111.19 59.4233 111.49 59.97C111.79 60.5167 112.017 61.11 112.17 61.75C112.33 62.39 112.41 63.0633 112.41 63.77ZM109.66 63.77C109.66 62.9767 109.553 62.2667 109.34 61.64C109.127 61.0067 108.823 60.47 108.43 60.03C108.037 59.59 107.557 59.2533 106.99 59.02C106.43 58.7867 105.797 58.67 105.09 58.67C104.383 58.67 103.747 58.7867 103.18 59.02C102.62 59.2533 102.14 59.59 101.74 60.03C101.347 60.47 101.043 61.0067 100.83 61.64C100.617 62.2667 100.51 62.9767 100.51 63.77C100.51 64.5633 100.617 65.2767 100.83 65.91C101.043 66.5367 101.347 67.07 101.74 67.51C102.14 67.9433 102.62 68.2767 103.18 68.51C103.747 68.7433 104.383 68.86 105.09 68.86C105.797 68.86 106.43 68.7433 106.99 68.51C107.557 68.2767 108.037 67.9433 108.43 67.51C108.823 67.07 109.127 66.5367 109.34 65.91C109.553 65.2767 109.66 64.5633 109.66 63.77ZM128.563 56.54V71H127.183C126.969 71 126.789 70.9667 126.643 70.9C126.503 70.8267 126.366 70.7067 126.233 70.54L118.683 60.9C118.723 61.34 118.743 61.7467 118.743 62.12V71H116.373V56.54H117.783C117.896 56.54 117.993 56.5467 118.073 56.56C118.159 56.5667 118.233 56.5867 118.293 56.62C118.359 56.6467 118.423 56.69 118.483 56.75C118.543 56.8033 118.609 56.8767 118.683 56.97L126.263 66.65C126.243 66.4167 126.226 66.1867 126.213 65.96C126.199 65.7333 126.193 65.5233 126.193 65.33V56.54H128.563ZM143.483 58.75H139.123V71H136.433V58.75H132.073V56.54H143.483V58.75ZM153.209 65.54L151.449 60.73C151.362 60.5167 151.272 60.2633 151.179 59.97C151.085 59.6767 150.992 59.36 150.899 59.02C150.812 59.36 150.722 59.68 150.629 59.98C150.535 60.2733 150.445 60.53 150.359 60.75L148.609 65.54H153.209ZM157.959 71H155.879C155.645 71 155.455 70.9433 155.309 70.83C155.162 70.71 155.052 70.5633 154.979 70.39L153.899 67.44H147.909L146.829 70.39C146.775 70.5433 146.672 70.6833 146.519 70.81C146.365 70.9367 146.175 71 145.949 71H143.849L149.539 56.54H152.279L157.959 71ZM170.556 67.59C170.702 67.59 170.832 67.6467 170.946 67.76L172.006 68.91C171.419 69.6367 170.696 70.1933 169.836 70.58C168.982 70.9667 167.956 71.16 166.756 71.16C165.682 71.16 164.716 70.9767 163.856 70.61C163.002 70.2433 162.272 69.7333 161.666 69.08C161.059 68.4267 160.592 67.6467 160.266 66.74C159.946 65.8333 159.786 64.8433 159.786 63.77C159.786 62.6833 159.959 61.69 160.306 60.79C160.652 59.8833 161.139 59.1033 161.766 58.45C162.399 57.7967 163.152 57.29 164.026 56.93C164.899 56.5633 165.866 56.38 166.926 56.38C167.979 56.38 168.912 56.5533 169.726 56.9C170.546 57.2467 171.242 57.7 171.816 58.26L170.916 59.51C170.862 59.59 170.792 59.66 170.706 59.72C170.626 59.78 170.512 59.81 170.366 59.81C170.266 59.81 170.162 59.7833 170.056 59.73C169.949 59.67 169.832 59.6 169.706 59.52C169.579 59.4333 169.432 59.34 169.266 59.24C169.099 59.14 168.906 59.05 168.686 58.97C168.466 58.8833 168.209 58.8133 167.916 58.76C167.629 58.7 167.296 58.67 166.916 58.67C166.269 58.67 165.676 58.7867 165.136 59.02C164.602 59.2467 164.142 59.58 163.756 60.02C163.369 60.4533 163.069 60.9867 162.856 61.62C162.642 62.2467 162.536 62.9633 162.536 63.77C162.536 64.5833 162.649 65.3067 162.876 65.94C163.109 66.5733 163.422 67.1067 163.816 67.54C164.209 67.9733 164.672 68.3067 165.206 68.54C165.739 68.7667 166.312 68.88 166.926 68.88C167.292 68.88 167.622 68.86 167.916 68.82C168.216 68.78 168.489 68.7167 168.736 68.63C168.989 68.5433 169.226 68.4333 169.446 68.3C169.672 68.16 169.896 67.99 170.116 67.79C170.182 67.73 170.252 67.6833 170.326 67.65C170.399 67.61 170.476 67.59 170.556 67.59ZM185.548 58.75H181.188V71H178.498V58.75H174.138V56.54H185.548V58.75ZM202.598 59.17C202.518 59.31 202.432 59.4133 202.338 59.48C202.252 59.54 202.142 59.57 202.008 59.57C201.868 59.57 201.715 59.52 201.548 59.42C201.388 59.3133 201.195 59.1967 200.968 59.07C200.742 58.9433 200.475 58.83 200.168 58.73C199.868 58.6233 199.512 58.57 199.098 58.57C198.725 58.57 198.398 58.6167 198.118 58.71C197.838 58.7967 197.602 58.92 197.408 59.08C197.222 59.24 197.082 59.4333 196.988 59.66C196.895 59.88 196.848 60.1233 196.848 60.39C196.848 60.73 196.942 61.0133 197.128 61.24C197.322 61.4667 197.575 61.66 197.888 61.82C198.202 61.98 198.558 62.1233 198.958 62.25C199.358 62.3767 199.768 62.5133 200.188 62.66C200.608 62.8 201.018 62.9667 201.418 63.16C201.818 63.3467 202.175 63.5867 202.488 63.88C202.802 64.1667 203.052 64.52 203.238 64.94C203.432 65.36 203.528 65.87 203.528 66.47C203.528 67.1233 203.415 67.7367 203.188 68.31C202.968 68.8767 202.642 69.3733 202.208 69.8C201.782 70.22 201.258 70.5533 200.638 70.8C200.018 71.04 199.308 71.16 198.508 71.16C198.048 71.16 197.595 71.1133 197.148 71.02C196.702 70.9333 196.272 70.8067 195.858 70.64C195.452 70.4733 195.068 70.2733 194.708 70.04C194.348 69.8067 194.028 69.5467 193.748 69.26L194.538 67.97C194.605 67.8767 194.692 67.8 194.798 67.74C194.905 67.6733 195.018 67.64 195.138 67.64C195.305 67.64 195.485 67.71 195.678 67.85C195.872 67.9833 196.102 68.1333 196.368 68.3C196.635 68.4667 196.945 68.62 197.298 68.76C197.658 68.8933 198.088 68.96 198.588 68.96C199.355 68.96 199.948 68.78 200.368 68.42C200.788 68.0533 200.998 67.53 200.998 66.85C200.998 66.47 200.902 66.16 200.708 65.92C200.522 65.68 200.272 65.48 199.958 65.32C199.645 65.1533 199.288 65.0133 198.888 64.9C198.488 64.7867 198.082 64.6633 197.668 64.53C197.255 64.3967 196.848 64.2367 196.448 64.05C196.048 63.8633 195.692 63.62 195.378 63.32C195.065 63.02 194.812 62.6467 194.618 62.2C194.432 61.7467 194.338 61.19 194.338 60.53C194.338 60.0033 194.442 59.49 194.648 58.99C194.862 58.49 195.168 58.0467 195.568 57.66C195.968 57.2733 196.462 56.9633 197.048 56.73C197.635 56.4967 198.308 56.38 199.068 56.38C199.922 56.38 200.708 56.5133 201.428 56.78C202.148 57.0467 202.762 57.42 203.268 57.9L202.598 59.17ZM214.822 65.54L213.062 60.73C212.975 60.5167 212.885 60.2633 212.792 59.97C212.699 59.6767 212.605 59.36 212.512 59.02C212.425 59.36 212.335 59.68 212.242 59.98C212.149 60.2733 212.059 60.53 211.972 60.75L210.222 65.54H214.822ZM219.572 71H217.492C217.259 71 217.069 70.9433 216.922 70.83C216.775 70.71 216.665 70.5633 216.592 70.39L215.512 67.44H209.522L208.442 70.39C208.389 70.5433 208.285 70.6833 208.132 70.81C207.979 70.9367 207.789 71 207.562 71H205.462L211.152 56.54H213.892L219.572 71ZM231.139 68.78V71H222.669V56.54H225.359V68.78H231.139ZM237.359 58.68V62.69H242.419V64.76H237.359V68.85H243.779V71H234.659V56.54H243.779V58.68H237.359ZM255.463 59.17C255.383 59.31 255.296 59.4133 255.203 59.48C255.116 59.54 255.006 59.57 254.873 59.57C254.733 59.57 254.58 59.52 254.413 59.42C254.253 59.3133 254.06 59.1967 253.833 59.07C253.606 58.9433 253.34 58.83 253.033 58.73C252.733 58.6233 252.376 58.57 251.963 58.57C251.59 58.57 251.263 58.6167 250.983 58.71C250.703 58.7967 250.466 58.92 250.273 59.08C250.086 59.24 249.946 59.4333 249.853 59.66C249.76 59.88 249.713 60.1233 249.713 60.39C249.713 60.73 249.806 61.0133 249.993 61.24C250.186 61.4667 250.44 61.66 250.753 61.82C251.066 61.98 251.423 62.1233 251.823 62.25C252.223 62.3767 252.633 62.5133 253.053 62.66C253.473 62.8 253.883 62.9667 254.283 63.16C254.683 63.3467 255.04 63.5867 255.353 63.88C255.666 64.1667 255.916 64.52 256.103 64.94C256.296 65.36 256.393 65.87 256.393 66.47C256.393 67.1233 256.28 67.7367 256.053 68.31C255.833 68.8767 255.506 69.3733 255.073 69.8C254.646 70.22 254.123 70.5533 253.503 70.8C252.883 71.04 252.173 71.16 251.373 71.16C250.913 71.16 250.46 71.1133 250.013 71.02C249.566 70.9333 249.136 70.8067 248.723 70.64C248.316 70.4733 247.933 70.2733 247.573 70.04C247.213 69.8067 246.893 69.5467 246.613 69.26L247.403 67.97C247.47 67.8767 247.556 67.8 247.663 67.74C247.77 67.6733 247.883 67.64 248.003 67.64C248.17 67.64 248.35 67.71 248.543 67.85C248.736 67.9833 248.966 68.1333 249.233 68.3C249.5 68.4667 249.81 68.62 250.163 68.76C250.523 68.8933 250.953 68.96 251.453 68.96C252.22 68.96 252.813 68.78 253.233 68.42C253.653 68.0533 253.863 67.53 253.863 66.85C253.863 66.47 253.766 66.16 253.573 65.92C253.386 65.68 253.136 65.48 252.823 65.32C252.51 65.1533 252.153 65.0133 251.753 64.9C251.353 64.7867 250.946 64.6633 250.533 64.53C250.12 64.3967 249.713 64.2367 249.313 64.05C248.913 63.8633 248.556 63.62 248.243 63.32C247.93 63.02 247.676 62.6467 247.483 62.2C247.296 61.7467 247.203 61.19 247.203 60.53C247.203 60.0033 247.306 59.49 247.513 58.99C247.726 58.49 248.033 58.0467 248.433 57.66C248.833 57.2733 249.326 56.9633 249.913 56.73C250.5 56.4967 251.173 56.38 251.933 56.38C252.786 56.38 253.573 56.5133 254.293 56.78C255.013 57.0467 255.626 57.42 256.133 57.9L255.463 59.17Z" fill="#F1897B"/>
<rect x="20.5" y="20.5" width="299" height="89" stroke="#E4E4E4"/>
<rect x="0.5" y="0.5" width="339" height="239" rx="4.5" stroke="#9747FF" stroke-dasharray="10 5"/>
</svg>
