<svg width="114" height="66" viewBox="0 0 114 66" fill="none" xmlns="http://www.w3.org/2000/svg">
<path d="M17.0326 31.0535C17.5554 31.7031 18.8318 32.9985 17.7845 34.001C16.6835 35.0472 12.9221 37.4343 11.0172 37.3852C9.03001 37.4343 6.65072 34.827 7.04279 32.4727C7.35072 31.0899 9.02822 29.1795 9.83564 28.3262C10.6413 27.4074 19.9723 17.719 25.626 14.3512C27.1549 13.4197 30.6477 12.6682 31.6413 13.1504C32.6618 13.6253 34.205 15.0571 34.2194 18.3903C34.2042 20.6464 34.2042 22.9025 34.2194 25.1586C34.205 26.041 34.5416 26.8598 35.7232 25.9228C36.3552 25.4279 37.8322 25.3587 38.8383 25.4861C39.8444 25.6317 40.4478 26.3831 39.5902 27.0144C38.704 27.6112 35.1467 30.6824 33.8971 31.9269C34.0045 39.3465 30.2431 59.6094 29.6004 61.9474C29.0973 64.0125 27.6938 65.0004 25.9482 65.659C24.2027 66.2267 21.1807 66.365 21.6515 63.8032C22.1206 61.3142 26.6858 43.0981 27.2372 37.7108C27.3572 37.1614 26.9544 36.9558 26.4853 37.4925C26.0145 38.0474 23.6638 40.1616 21.6515 40.3308C19.6375 40.5728 18.182 39.1045 17.8919 38.6933C17.7577 38.4568 17.6234 37.911 18.2142 37.6017C18.8318 37.3651 24.9403 33.6808 28.8485 30.2876C29.0347 27.7458 29.3498 21.3997 29.3856 19.4802C29.5055 18.0574 28.3651 18.8743 27.7743 19.371C27.1567 19.8295 19.2347 26.585 16.8178 29.4142C16.2789 29.9983 16.5474 30.7479 17.0326 31.0535Z" fill="black"/>
<path d="M43.0131 30.8757C43.462 31.144 44.4105 30.8027 44.8595 30.2188C45.3609 29.5728 46.447 28.4761 46.2714 27.9195C46.1773 27.3812 45.2939 26.9013 43.8819 27.0436C42.4428 27.1768 39.9303 27.383 36.4963 32.2991C35.517 34.2243 36.0619 36.3447 37.4739 36.3502C38.2323 36.3447 38.8442 37.2352 38.3427 37.9907C37.7581 38.7389 35.9261 41.8885 37.7997 44.0144C39.7257 46.1312 42.8501 44.4889 44.2078 42.3721C45.5654 40.2462 47.5331 36.6203 48.1178 35.6932C48.4165 35.0473 48.8926 35.3885 48.7695 35.9122C48.7568 36.3447 49.1279 38.686 49.5298 39.5254C50.0131 40.5874 51.1662 40.6221 51.4848 39.4141C51.912 38.2608 53.8815 32.6148 54.8517 31.5308C55.1359 31.2462 55.4093 31.3483 55.2862 31.7498C55.2735 32.2389 55.1034 34.8739 55.8292 36.0199C56.528 37.2681 57.5797 38.3283 59.0876 37.0053C60.5665 35.5911 61.01 34.0181 61.3684 33.1732C61.5187 32.7863 61.9984 32.6914 62.1287 33.0637C62.469 34.6312 66.8805 36.7535 68.6454 30.4359C68.7124 29.8429 69.3912 29.6367 69.6229 30.217C69.7985 30.8684 70.4104 31.6239 71.4693 31.5308C72.4468 31.4852 74.6879 29.8429 75.5966 27.4797C75.841 26.9688 76.4528 27.175 76.7913 27.4797C77.1316 27.7224 78.4205 28.5436 79.6152 28.0272C80.8643 27.5856 82.765 26.0126 84.3941 22.9907C86.0233 19.9888 88.4671 14.925 89.0644 13.4651C89.4174 12.529 90.0963 12.872 89.9333 13.5746C89.622 14.5162 88.1956 20.0235 90.4764 21.8976C92.8134 23.7881 96.6148 20.5381 97.7534 19.4888C98.9228 18.3483 105.099 12.8739 106.66 11.2771C107.474 10.4779 106.728 8.63116 105.465 9.63481C104.147 10.6841 98.2421 15.8848 96.8845 16.8611C95.5268 17.9377 93.7999 19.5509 92.7573 18.7224C92.0314 18.1093 92.3373 16.1585 92.7573 15.1093C93.1519 14.1056 94.238 11.2315 94.6037 10.4012C95.0526 9.58919 94.5765 8.28809 93.8434 8.10196C93.0831 8.01437 91.997 8.28992 91.5625 9.08736C91.2856 9.487 90.6393 9.58919 90.6936 8.86838C90.7081 8.08371 90.8439 6.06546 89.7161 5.14575C88.5359 4.1494 86.9682 4.66765 85.9147 6.24247C84.6657 8.11838 83.9868 11.4724 86.0233 11.9359C86.4994 12.0874 86.8053 12.5326 86.4578 13.2498C86.0577 13.9706 83.1035 20.3356 81.7875 22.3374C80.5257 24.3045 79.4396 25.1257 78.8549 24.6367C78.3535 24.1659 78.9979 21.7042 82.2219 18.5053C82.431 18.3405 82.57 18.1015 82.6103 17.837C82.6507 17.5725 82.5895 17.3025 82.4391 17.0819C82.2219 16.6403 81.0688 16.5381 80.2669 16.8629C79.4378 17.2899 78.9979 17.5637 78.5291 17.9578C77.9788 18.248 77.6403 18.248 77.443 17.9578C77.233 17.6312 76.9615 16.9469 79.6152 15.3301C80.0841 15.0326 80.4914 14.8958 81.353 15.0016C82.2563 15.0326 82.5278 14.6549 82.765 14.3447C83.0021 14.0399 83.6809 13.1166 83.9597 12.5928C84.1552 12.0892 83.9524 11.6111 83.1994 11.4979C82.3921 11.4724 79.8451 11.4724 76.6809 14.0162C75.0934 15.237 74.1086 17.0162 74.2914 17.9578C74.3801 18.9998 74.4815 19.9925 76.5723 20.1476C77.2638 20.164 77.2312 20.8812 76.8981 21.2425C76.6212 21.7042 75.9079 22.3538 75.4862 23.2133C75.2617 23.9286 73.8099 26.06 73.2053 27.0454C72.5138 28.2389 71.2919 28.4451 71.3589 26.717C71.4603 25.8429 71.4947 23.8246 71.4675 22.9943C71.9708 21.2918 75.7034 5.27896 76.0292 2.8483C76.3152 1.51618 75.5676 0.0782222 74.8345 0.00157973C74.0742 -0.0586393 70.8828 1.5837 69.8384 8.21327C68.7106 14.8611 68.3721 16.4341 68.4264 18.1768C65.7238 18.0071 63.6203 19.7863 62.67 22.6659C61.7196 25.5345 60.7693 28.956 60.1719 30.7662C59.5474 32.6513 59.0043 33.7462 58.3255 33.6148C57.6467 33.4724 57.9852 30.6002 58.2169 29.1257C58.5282 27.7243 58.9355 25.3976 59.1944 23.9797C59.4804 22.5253 58.8016 22.2516 58.2169 22.3374C57.5779 22.3885 54.0498 24.1659 53.0035 28.5783C52.8261 29.5728 51.74 30.0509 51.9174 28.7972C52.0133 27.4505 52.0803 26.5618 51.0485 26.6075C50.5145 26.5618 49.1623 27.3137 48.3332 29.3447C47.5331 31.2827 45.5636 35.3192 44.206 37.8849C42.8483 40.5217 41.2861 42.2334 40.5132 41.498C39.6569 40.8648 41.6264 37.4432 42.251 36.571C43.0511 36.0035 44.5463 34.8411 44.0974 34.0527C43.7317 33.1987 41.5595 33.5418 40.839 34.1622C40.2 34.8429 39.2497 35.2535 38.884 34.8192C38.4351 34.4305 39.3854 33.0619 40.1873 32.1914C41.0164 31.2827 41.764 30.3228 43.0131 30.8757Z" fill="black"/>
<path d="M67.5707 22.0323C66.5688 21.6933 64.8788 24.1019 64.4647 25.5632C64.0021 27.0441 63.6264 29.5865 64.6651 29.9523C65.6286 30.3894 66.8811 27.7131 67.3703 26.4214C67.883 25.1725 68.384 22.696 67.5707 22.0323Z" fill="white"/>
<path d="M97.0015 4.55738C96.9441 2.51093 98.5599 1.04399 100.443 1C102.359 1.04208 103.975 2.51093 104 4.55738C103.975 6.51393 102.361 7.98279 100.443 8C98.5599 7.98279 96.9441 6.51393 97.0015 4.55738Z" fill="black"/>
<path d="M100.45 6.99999C101.126 6.99792 101.773 6.68739 102.251 6.13626C102.729 5.58513 102.998 4.83823 103 4.05882C102.969 2.31961 101.868 1.04706 100.45 1C99.0613 1.04706 97.9598 2.31961 98.0023 4.05882C97.988 4.43953 98.0408 4.81962 98.1575 5.17613C98.2742 5.53264 98.4523 5.85817 98.6811 6.13306C98.9098 6.40796 99.1846 6.6265 99.4886 6.77551C99.7927 6.92451 100.12 7.00088 100.45 6.99999Z" fill="white"/>
<path d="M99.5769 6H99V2H100.5C101.431 2.01905 101.902 2.36762 101.885 3.14286C101.9 3.86667 101.448 4.17714 100.846 4.28571L102 6H101.308L100.269 4.28571H99.5769V6Z" fill="black"/>
<path d="M100.8 3.98573C101.418 4.02978 101.951 3.99878 102 3.49638C101.951 3.0527 101.427 2.97277 100.933 3.00702H100V3.98573H100.8Z" fill="white"/>
</svg>
