<svg width="114" height="36" viewBox="0 0 114 36" fill="none" xmlns="http://www.w3.org/2000/svg">
<path d="M20.5299 30.663C20.0853 30.3334 20.0952 30.2474 20.971 26.7411C21.4634 24.7692 21.9177 22.5293 21.9803 21.7635L22.0943 20.3713L20.9208 22.6802C18.8308 26.7927 17.2918 28.7897 15.3 29.9737C14.0519 30.7155 11.7393 30.9654 10.1902 30.5254C7.03226 29.6288 5.90495 25.3426 8.25048 23.15C9.66297 21.8297 13.7029 22.3585 13.2503 23.8047C13.1012 24.2812 12.979 24.3197 12.058 24.1797C11.1602 24.0431 10.9561 24.0999 10.429 24.6347C9.96276 25.1076 9.82617 25.4869 9.82617 26.3105C9.82617 27.2057 9.94133 27.4729 10.5508 27.9931C11.8006 29.0596 13.7205 28.7097 15.2673 27.1335C16.336 26.0449 18.1752 22.6164 20.5301 17.324C22.9769 11.8248 24.4495 8.85618 25.7287 6.84508C26.888 5.02219 27.0722 4.86789 27.8512 5.06614C28.7333 5.29066 28.7795 6.09653 28.0097 7.84012C26.5578 11.1286 25.5144 14.9936 25.2386 18.1022L25.0799 19.8936L27.3816 16.5497C30.3029 12.3061 31.9912 10.1818 34.6429 7.41377C36.3351 5.64726 36.8935 5.20443 37.4297 5.20443C38.273 5.20443 38.5252 5.79439 38.034 6.61793C37.8319 6.9571 36.6382 8.95434 35.3816 11.0562C30.7237 18.8469 28.6151 24.5662 29.3624 27.3812C29.684 28.5927 30.2259 28.7866 31.544 28.163C32.9817 27.4827 33.7098 26.723 34.5595 25.0159C36.1133 21.8939 39.1952 19.5353 41.7209 19.5353C42.3836 19.5353 43.1379 19.6858 43.3967 19.8697C43.8003 20.1563 43.9319 20.1563 44.3184 19.8697C44.9059 19.4338 45.9581 19.4419 46.3206 19.885C46.553 20.169 46.363 20.7181 45.3077 22.8109C44.5932 24.2277 43.7636 25.8363 43.464 26.3857C43.1647 26.9348 42.9921 27.4576 43.0806 27.5475C43.6197 28.0942 46.054 25.4685 48.5323 21.6677C49.3891 20.3538 49.3957 20.3259 49.0415 19.466C48.5811 18.3487 48.5804 16.1296 49.0398 15.2282C49.426 14.471 50.4759 13.803 51.2794 13.803C51.5549 13.803 52.0902 14.117 52.4686 14.5011C53.0308 15.0712 53.157 15.4016 53.157 16.302C53.157 16.9333 52.9556 17.8048 52.686 18.3411C52.0659 19.5738 52.0796 19.6201 53.014 19.4663C53.981 19.3072 54.8054 19.8131 54.8054 20.5657C54.8054 20.8557 54.0575 22.0537 53.1365 23.2391C50.0197 27.2506 49.5165 29.2626 51.8806 28.2607C53.4212 27.6079 54.2012 26.8288 57.8681 22.2806C60.5386 18.9683 61.5599 17.8634 61.9508 17.8634C62.5528 17.8634 63.5188 18.4837 63.5188 18.8703C63.5188 19.0151 63.0779 19.7261 62.5389 20.4501L61.5587 21.7666L61.8715 22.8605C62.0434 23.462 62.2301 24.4107 62.2864 24.9691C62.3427 25.5275 62.4407 25.9842 62.5042 25.9842C62.5678 25.9842 63.2298 25.5502 63.9756 25.0197C65.0572 24.2499 65.4536 23.7794 65.9363 22.691C68.5765 16.7384 70.6688 12.1635 70.9571 11.713C71.364 11.0772 72.7115 10.9683 73.1743 11.5339C73.4868 11.9161 73.4814 11.9316 70.9689 17.9293L69.8903 20.5029L70.9053 19.8998C72.0185 19.2382 72.8844 19.1345 73.4522 19.595C73.9872 20.0288 74.3574 21.3515 74.1909 22.2343C74.0407 23.0316 72.9296 25.3766 71.8769 27.1187C71.5107 27.7247 71.3777 28.1338 71.547 28.1338C72.1826 28.1338 73.8445 26.4222 74.4721 25.1212C75.2968 23.4111 77.846 20.7678 79.4147 19.9956C80.9018 19.2635 82.7846 19.204 83.5064 19.8666C83.9331 20.2583 84.0151 20.2688 84.1368 19.9478C84.4335 19.1634 86.5973 19.2902 86.5973 20.0921C86.5973 20.2733 85.8554 21.8739 84.9488 23.6485C84.0421 25.4231 83.3003 27.108 83.3003 27.3927C83.3003 28.3058 83.9463 28.2298 85.1939 27.1703C86.1524 26.3566 86.6114 25.6837 87.5329 23.7421C89.8254 18.9114 93.3056 14.4615 96.485 12.2949C98.3362 11.0335 100.02 11.1646 100.02 12.57C100.02 13.3162 98.4954 16.6512 97.4486 18.1944C96.3788 19.7713 93.984 22.0439 91.7614 23.5914C89.3184 25.292 89.2256 25.3995 89.0462 26.7256C88.8717 28.0185 89.4748 28.7701 90.4815 28.5138C91.5318 28.2463 93.6889 25.7539 95.0659 23.2174C96.8775 19.8792 97.7781 18.4612 99.2772 16.5846C100.847 14.6191 104.198 11.7575 105.186 11.5372C106.151 11.3223 106.822 11.5769 106.981 12.218C107.147 12.8891 106.214 15.5229 105.173 17.3238C104.193 19.0175 100.953 22.3145 98.5392 24.0734C96.6435 25.4549 96.2441 26.16 96.5827 27.5283C97.0198 29.2939 99.0295 28.5563 101.232 25.822C102.512 24.2337 102.712 24.0739 103.026 24.3918C103.535 24.9082 103.271 25.6214 101.875 27.4973C100.553 29.2734 98.7511 30.6401 97.4093 30.8846C95.9308 31.1541 94.3577 30.1084 93.8227 28.5C93.7803 28.3729 93.3826 28.6165 92.9387 29.0412C91.8224 30.1089 89.9799 31 88.8881 31C88.1918 31 87.8101 30.8335 87.2856 30.3018C86.9072 29.9178 86.5973 29.3804 86.5973 29.1076C86.5973 28.8348 86.5398 28.6115 86.4694 28.6115C86.399 28.6115 85.7897 29.034 85.1153 29.5502C83.0436 31.1361 81.962 31.2587 80.9725 30.0191L80.5759 29.5222L79.7599 30.0093C79.311 30.2768 78.4388 30.6102 77.8218 30.7497C76.515 31.0454 75.5276 30.732 74.6207 29.7341L74.0656 29.1236L73.1302 29.8108C71.7024 30.8598 70.7628 31.1065 69.9058 30.657C69.0197 30.1922 68.4625 29.4014 68.4698 28.6182C68.4729 28.2862 69.1087 26.7855 69.8828 25.2832C70.6566 23.7806 71.2901 22.4641 71.2901 22.3571C71.2901 21.8985 70.6161 22.2448 69.4238 23.3148C68.3172 24.3084 67.9684 24.8599 66.8185 27.4319C65.3003 30.8278 64.732 31.4094 63.5776 30.7485C62.9022 30.3616 62.7416 29.4974 63.1641 28.5186C63.292 28.2224 62.7736 28.4845 61.6536 29.2822C58.8329 31.2914 56.5606 31.4557 55.0014 29.7628L54.3719 29.0792L53.1167 29.8411C52.2195 30.3857 51.4786 30.6336 50.5173 30.71C49.2675 30.8096 49.1222 30.7659 48.4567 30.0909C47.9363 29.5631 47.7408 29.1403 47.7408 28.5425C47.7408 27.396 49.1321 24.6961 50.5588 23.075C51.3062 22.2254 51.6552 21.6575 51.4923 21.5552C51.1758 21.357 51.2897 21.2256 49.0403 24.3901C46.5589 27.8811 45.132 29.4143 43.6828 30.1468C42.2114 30.8904 41.2339 30.9274 40.5394 30.2655L40.0194 29.7702L39.0617 30.2655C37.8147 30.9109 36.1039 30.9176 35.0747 30.2813C34.6497 30.0181 34.2418 29.6445 34.1686 29.4511C34.0609 29.1668 33.8445 29.232 33.0476 29.7881C31.3709 30.9582 29.3348 31.2336 27.9028 30.4839C26.8077 29.9106 26.4024 27.4416 26.8501 24.0734L27.0248 22.7598L26.2877 24.0734C24.245 27.7158 21.8058 31 21.1431 31C21.0557 31 20.7797 30.8483 20.5299 30.663ZM58.9374 28.5026C59.4068 28.0266 59.5149 27.6786 59.512 26.6515C59.5085 25.1872 59.3081 24.2626 59.0156 24.3619C58.6007 24.5029 56.6894 27.0698 56.6894 27.4861C56.6894 27.9552 57.6888 29.089 58.1024 29.089C58.2437 29.089 58.6195 28.8251 58.9374 28.5026ZM79.6996 27.3017C81.6566 25.6025 83.0519 21.4437 81.7289 21.2526C79.9897 21.0014 76.6999 24.7921 76.6349 27.1223C76.5878 28.8014 77.8844 28.8774 79.6996 27.3014V27.3017ZM39.0631 27.6843C40.6579 26.6585 41.9719 24.5263 42.2423 22.5262C42.4024 21.3417 42.1062 21.031 41.0688 21.2949C38.9117 21.8442 35.675 26.7951 36.6745 28.0168C37.1139 28.5537 37.8764 28.4474 39.0631 27.6843ZM93.61 19.5948C95.2929 17.9147 97.7536 14.2804 97.2084 14.2804C97.0994 14.2804 96.1729 15.1775 95.1497 16.2741C93.3649 18.1863 91.09 21.4458 91.5401 21.4458C91.6587 21.4458 92.5904 20.613 93.61 19.5948ZM101.305 19.1768C102.465 18.0943 104.799 14.2804 104.301 14.2804C103.619 14.2804 98.843 20.4126 98.843 21.2875C98.843 21.4291 99.3394 21.0661 99.946 20.4804C100.397 20.0438 100.85 19.6092 101.305 19.1768ZM51.2457 17.3618C51.4741 16.698 51.2794 15.7135 50.9198 15.7135C50.6198 15.7135 50.3204 16.7919 50.4519 17.3995C50.648 18.3048 50.9264 18.2916 51.2459 17.3618H51.2457Z" fill="black"/>
</svg>
