<svg width="114" height="60" viewBox="0 0 114 60" fill="none" xmlns="http://www.w3.org/2000/svg">
<path d="M8.38301 56.8719C12.049 49.7523 15.7253 42.6381 19.412 35.5293C24.7982 25.1548 28.2573 17.9818 28.0027 17.7145C27.841 17.5452 23.347 17.8569 18.0156 18.4074C12.6848 18.9579 7.86848 19.3168 7.31312 19.205C6.43386 19.0268 24.1922 14.7212 53.554 7.99304C58.3672 6.88997 64.6687 5.42077 67.5566 4.72837C70.4444 4.03598 75.9581 2.75632 79.8089 1.88525C83.6597 1.01368 87.3358 0.166955 87.9774 0.00278988C88.6191 -0.160858 75.4911 6.89567 58.8047 15.684C42.1184 24.4722 28.1809 31.9819 27.8311 32.3724C27.483 32.7629 26.4327 36.6018 25.4976 40.9038L23.798 48.7252L16.5046 53.6989C13.6298 55.6614 10.7523 57.62 7.87209 59.5746C6.61984 60.4177 6.65342 60.2411 8.38301 56.8714V56.8719Z" fill="black"/>
<path d="M33.4096 25.5567C35.6052 24.2128 39.6183 21.7621 42.3276 20.1109C45.0369 18.4592 47.5009 16.8509 47.8041 16.5372C48.5246 15.7896 47.6297 15.8052 38.6947 16.6916C31.4207 17.4129 31.2889 17.4531 30.9671 19.0711C30.7876 19.9763 30.2714 21.9787 29.8198 23.5211C29.0214 26.2485 28.7823 28 29.2082 28C29.3236 28 31.2145 26.9006 33.4096 25.5567Z" fill="white"/>
<path d="M70.2111 57.5647C68.6155 56.2172 63.3025 51.9149 58.4046 48.0035L49.4996 40.8922L46.7223 42.4937C45.1945 43.3744 43.8043 44.0952 43.6317 44.0952C43.4591 44.0952 44.4928 40.3738 45.9276 35.8259L48.5368 27.556L50.151 29.525C51.0387 30.6075 55.1136 35.9195 59.2065 41.3294C63.2994 46.7382 68.1675 53.0386 70.0251 55.3292C74.5645 60.9275 74.5922 61.2627 70.2111 57.5641V57.5647ZM85.864 49.7814C86.9222 46.4847 89.0347 39.679 90.5584 34.6569L93.3274 25.5261L92.2435 23.2849C91.6475 22.0524 91.0403 20.7934 90.8939 20.4869C90.7398 20.1642 91.9851 20.0991 93.8591 20.3328C97.0319 20.7278 97.1522 20.6846 100.477 17.961C106.007 13.4307 107.28 12.472 106.952 13.0857C106.78 13.4057 105.594 15.6037 104.316 17.9703C102.993 20.4206 101.686 22.8795 100.394 25.3471C99.5158 27.0371 96.6544 32.4313 94.0343 37.3337C91.4153 42.2355 88.1634 48.3902 86.8082 51.0108C85.4535 53.6309 84.2534 55.7747 84.1419 55.7747C84.031 55.7747 84.8057 53.0776 85.864 49.7814ZM28.7854 41.8717C33.8868 30.3244 34.438 29.3449 35.8441 29.3152C36.5566 29.3006 39.0976 29.0482 41.491 28.7541C43.8845 28.4601 45.9035 28.2831 45.9774 28.3601C46.0514 28.4382 44.4989 29.7061 42.5272 31.1796C39.471 33.4629 39.1089 33.9225 40.0716 34.2972C44.109 35.8706 44.1367 35.5557 39.6724 38.804L35.5395 41.8108L37.7896 43.8162L40.0408 45.8216L38.01 46.1652C36.8931 46.3546 33.7337 46.8839 30.9893 47.342L26 48.1747L28.7854 41.8717ZM57.8687 34.2785C54.961 30.2115 52.6513 26.8835 52.7366 26.8835C52.8219 26.8835 54.8305 27.5825 57.1999 28.4372L61.508 29.9903L68.748 21.8292C77.5354 11.9239 84.6531 4.22763 84.2555 5.06196C84.0942 5.40027 81.8101 9.41055 79.1788 13.9751C75.8282 19.8017 72.4999 25.6413 69.1939 31.4939C66.3335 36.5649 63.8049 40.9302 63.5742 41.1941C63.3441 41.458 60.7765 38.346 57.8687 34.2785ZM72.638 31.2826L77.1341 22.181L82.6079 21.4487C85.6184 21.0458 88.1768 20.8174 88.2934 20.9407C88.4095 21.0641 87.0651 22.1779 85.305 23.4161C83.545 24.6538 82.1055 25.9186 82.1055 26.2267C82.1055 26.5338 82.8854 26.9673 83.8394 27.1896C84.7928 27.4113 85.6934 27.7985 85.8403 28.0504C85.9873 28.3023 84.4327 29.6743 82.386 31.1004C80.3398 32.526 78.53 33.924 78.3645 34.2077C78.1996 34.4908 79.1089 35.4891 80.3855 36.4265C81.6622 37.3639 82.6269 38.2154 82.5293 38.3184C82.4317 38.4215 79.8816 38.7999 76.8619 39.159C73.8422 39.5181 70.6447 39.9408 69.757 40.0979C68.1567 40.3816 68.1824 40.3025 72.638 31.2826Z" fill="black"/>
</svg>
