<svg width="114" height="36" viewBox="0 0 114 36" fill="none" xmlns="http://www.w3.org/2000/svg">
<path d="M95.7581 25.4997C97.2761 25.4961 98.7759 24.9444 99.5489 23.7663C99.5603 24.2334 99.776 24.9233 99.843 25.1813H102C101.952 24.52 101.874 23.8301 101.869 23.1649V10.5H99.6143V16.1603C98.9426 15.3183 97.4231 14.6922 96.1828 14.7097C92.5211 14.6922 90.668 17.3454 90.6599 20.0871C90.668 22.7052 92.2954 25.4963 95.7581 25.4997ZM56.6405 14.71C56.5504 14.703 50.9133 14.7666 50.4967 20.1226C50.2171 23.2995 52.7762 25.5071 56.6405 25.4997C60.472 25.5069 62.7857 23.3101 62.7842 20.1226C62.7857 17.0166 60.2366 14.8727 56.6405 14.71ZM63.6338 10.5H66.2809V25.1813H63.6338V10.5ZM81.5424 19.0613C81.5997 17.5896 83.8839 16.5072 85.0065 16.5142C86.7269 16.5072 87.119 17.9611 87.1634 19.0613V25.1813H89.3856V18.566C89.3839 18.2159 89.3447 17.5685 89.1568 16.9386C88.7269 15.4459 86.5112 14.4695 85.3332 14.4621C83.5505 14.4693 82.3052 15.3077 81.5752 16.231L81.5424 16.1958V14.6392H79.2548V25.1815H81.5424V19.0613ZM75.4966 23.8371C75.5014 24.2651 75.5504 24.7429 75.6272 25.1813H77.8167C77.7756 24.8914 77.6777 24.5943 77.6532 24.0847V18.5307C77.6579 15.4459 75.2755 14.703 72.9147 14.71C71.6385 14.703 70.3835 14.8623 69.4178 15.3468C68.4814 15.8173 67.8539 16.6135 67.8166 17.8939H70.3003C70.256 17.42 71.0893 16.4225 72.784 16.4081C74.0404 16.4225 75.2363 16.9955 75.2348 17.6815V18.6368C73.8248 18.5979 71.207 18.6509 69.8102 19.2028C67.658 19.9779 67.2756 21.6971 67.2611 22.4223C67.2756 24.4141 68.9325 25.5073 71.1499 25.4999C72.7366 25.5071 74.6974 25.0188 75.4966 23.8371ZM40.268 18.9197H44.7451C45.9426 18.948 46.7368 20.4446 46.8365 21.2547C46.9917 22.5672 47.1582 23.8833 47.4573 25.1815H50.2352C49.5504 24.382 49.4229 22.6524 49.2548 21.7147C48.9523 19.7019 49.1875 18.6087 47.3919 18.2478V18.2125C49.4916 17.813 49.8835 16.2528 49.8756 14.3565C49.8837 11.3496 47.1092 10.5324 44.1894 10.5004H37.5882V25.1817H40.268V18.9197ZM7 10.6416H31.4444C33.9916 10.7656 35.825 12.315 35.9869 15.3466C35.9034 18.0991 34.2955 19.8925 31.4444 20.0163H16.6078V20.8653H35.8235V22.4571H15.1373V18.4244H31.4118C33.4035 18.3539 34.3742 17.3456 34.5164 15.3468C34.3152 13.1961 33.1879 12.3258 31.4118 12.2336H8.4707V25.1107H7V10.6416Z" fill="#FF8200"/>
<path d="M11.4643 22.8852V25.2852H10V13.5H31.835V17.6553H16.0525C14.1633 17.7415 12.5039 18.6011 12.4731 21.0583C12.8357 23.1359 14.1342 23.8131 16.0525 23.8881H36V25.5H16.0199C14.2708 25.4251 12.2987 24.791 11.4643 22.8852Z" fill="#FF8200"/>
<path d="M11 18.5C11.9073 16.9051 13.7517 16.3436 15.5782 16.2723H30V15.5H11V18.5Z" fill="white"/>
<path d="M107 12C107.012 11.165 106.329 10.5 105.517 10.5C104.664 10.5 103.981 11.165 104 12C103.992 12.8114 104.664 13.4864 105.517 13.5C106.329 13.4762 107.012 12.8114 107 12Z" fill="#FF8200"/>
<path d="M96.2932 16.4213C98.2292 16.4351 99.6284 18.6098 99.6432 19.9606C99.6284 21.3253 98.3671 23.3571 96.4574 23.3638C94.1797 23.3571 92.9184 21.4684 92.9102 19.9606C92.9184 18.4565 94.0416 16.4351 96.2932 16.4213ZM56.4544 23.5C54.2653 23.5103 52.8759 21.5298 52.8745 19.9948C52.8759 18.4055 54.1669 16.5168 56.4544 16.5235V16.4894V16.5235C58.7089 16.5168 59.9996 18.4057 60.0015 19.9948C59.9996 21.5298 58.6004 23.5103 56.4544 23.5ZM75.142 20.5393C75.0746 22.5711 73.7543 23.2959 71.792 23.2959C70.7983 23.2959 69.803 23.153 69.8541 21.7985C69.8623 20.7847 71.7342 19.8962 75.1418 20.2672V20.5393H75.142ZM40 12.8141H44.5324C46.1465 12.8312 47.0924 13.6478 47.0943 14.89C47.0924 16.1494 46.1467 16.8232 44.5324 16.8299H40V12.8141ZM107 11.8273C107.008 12.5454 106.436 13.1377 105.752 13.1546C105.028 13.1377 104.456 12.5456 104.471 11.8273C104.456 11.0958 105.028 10.5035 105.719 10.5C106.437 10.5035 107.008 11.0955 107 11.8273Z" fill="white"/>
<path d="M105 13.5H105.154V12.6427H105.564C105.824 12.6389 105.755 12.9938 105.769 13.2552L105.795 13.5H106C105.924 13.3123 105.947 13.2633 105.923 13.0102C105.917 12.6635 105.909 12.6389 105.795 12.5204C105.909 12.3573 105.955 12.2717 105.949 12.0305C105.932 11.5734 105.747 11.5122 105.564 11.5H105V13.5Z" fill="#FF8200"/>
<path d="M105.639 11.5023C105.781 11.4851 106.02 11.5556 105.999 12.0304C105.961 12.4005 105.793 12.4709 105.639 12.5H105V11.5023H105.639Z" fill="white"/>
</svg>
