<svg width="114" height="36" viewBox="0 0 114 36" fill="none" xmlns="http://www.w3.org/2000/svg">
<path d="M44.5462 9.54314C44.5462 9.54314 42.4345 9.13399 42.4226 6.37604C42.4105 3.61863 45.1747 3.5212 45.1433 3.50849C45.1116 3.49603 45.7702 3.49035 45.9967 3.54206C46.5846 3.67465 46.8073 3.7082 46.8073 3.7082L47.4167 3.81833L47.8683 3.88463L48.4047 3.96176L48.9209 4.00723L49.5717 4.09436L50.0885 4.12763L50.9499 4.18392L51.6443 4.22747L52.2752 4.25022C52.2752 4.25022 55.9562 4.27321 58.196 3.71876C60.8654 3.05633 60.1262 6.33112 58.827 6.78599C58.8173 6.78802 58.7308 20.2521 58.7308 20.2521L58.8589 20.4202L59.0045 20.553L59.1625 20.6865L59.3207 20.8293C59.3953 20.9065 59.7324 21.2382 59.7109 22.0254C59.6895 22.8126 59.2258 23.4771 58.6894 23.4439C58.1536 23.4103 57.1753 23.1984 57.1753 23.1984L56.86 23.1551L56.5248 23.1446H56.2288L55.925 23.1551C55.925 23.1551 54.7493 23.1835 54.2449 23.3635C54.0961 23.4171 53.8726 23.4414 53.8726 23.4414L53.5908 23.4311L53.3897 23.3873C53.3897 23.3873 52.6421 23.101 52.6325 21.9818C52.6225 20.8623 54.0005 20.3309 54.0005 20.3309V18.2375H50.8028V20.4199C50.8028 20.4199 51.8992 20.7625 51.8242 21.8589C51.749 22.9557 51.1557 23.4181 50.8557 23.4747C50.5505 23.5304 50.5089 23.4767 50.5089 23.4767L50.1401 23.3647L49.73 23.2773L49.4049 23.211C49.4049 23.211 47.9929 22.9036 46.8495 23.188L46.5656 23.244L46.3227 23.2876L46.1532 23.3211L45.9244 23.3541H45.7238L45.5027 23.3314C45.5027 23.3314 44.7356 23.244 44.7356 22.1478C44.7356 21.0511 46.0708 20.3513 46.0708 20.341C46.0901 19.8907 46.0823 17.9944 46.0823 17.9944L45.7546 17.9489C45.7546 17.9489 41.1726 18.0255 41.0028 13.2307C40.8884 9.9957 44.3155 9.62416 44.3254 9.622C44.4098 9.59951 44.5462 9.54326 44.5462 9.54326V9.54314ZM54.0322 8.24763C54.0322 8.24763 50.6521 8.42 50.6762 14.361C50.6762 14.3732 54.0558 14.361 54.0558 14.361L54.0322 8.24763H54.0322Z" fill="black"/>
<path d="M30.6814 4.49536C32.1429 4.51288 33.9991 4.00937 33.9991 4.00937L34.8682 3.83769L35.311 3.77664L35.8669 3.73093C35.8669 3.73093 41.3838 3.18824 41.3738 9.74172C41.3697 12.8209 37.2638 15.7522 37.2638 15.7522C37.2638 15.7522 37.0382 16.5512 37.8113 19.4825C38.5841 22.4141 39.8925 24.2292 39.8925 24.2292C39.8925 24.2292 40.7278 23.0001 42.8676 23.0132C43.6203 23.0178 47.2154 23.8535 46.9898 28.0164C46.7423 32.5654 42.7848 32.4999 42.775 32.4999C42.2696 32.4655 40.5787 32.8129 38.1332 30.2742C35.6652 27.7144 35.5243 26.4182 34.6429 24.7157C33.7613 23.0132 32.8191 18.8922 32.8191 18.8922L32.7648 18.625L32.6461 18.5902L32.5492 18.6008L32.4426 18.6143L31.5408 18.9724C31.5408 18.9724 31.4664 21.081 31.5408 21.1026C31.6155 21.1242 32.7648 21.4366 32.7547 22.5401C32.7425 23.8603 31.5731 23.8253 31.5731 23.8253C31.5731 23.8253 30.8326 23.8124 30.0052 23.5928C29.1778 23.3735 27.934 23.4781 27.934 23.4781C27.37 23.6742 26.6528 23.7418 26.5049 23.7538C26.377 23.7484 25.3813 23.6709 25.4096 22.6573C25.4419 21.5106 27 20.9523 27 20.9523L26.9897 14.8487C26.9897 14.8487 27 8.84909 26.9897 6.81255C24.8962 6.326 25.0274 4.845 25.0051 4.81023C24.9831 4.77544 24.9831 3.45518 26.0882 3.50117H26.2269L26.3227 3.51429C26.7926 3.63011 27.7923 4.46329 30.6814 4.49533L30.6814 4.49536ZM26.3227 3.51426L26.1522 3.50361L26.3227 3.51426ZM31.3899 7.63555V13.7498C31.3899 13.7498 32.5715 13.9453 34.2143 12.4865C34.7675 11.9956 35.3091 11.2593 35.3957 9.77642C35.4823 8.29295 34.7939 7.64622 34.0753 7.2399C33.3565 6.83412 32.4328 7.1249 32.4328 7.1249L32.2699 7.1813L32.1407 7.21635L31.992 7.26401L31.8432 7.3226L31.7121 7.39216L31.5954 7.44828L31.3899 7.63557V7.63555Z" fill="black"/>
<path d="M16.0651 3.50224C22.5391 3.65774 25.04 9.94751 24.9995 14.3535C24.9592 18.76 21.518 24.5712 15.9417 24.4993C10.3653 24.4281 6.92616 18.6542 7.0012 14.015C7.07677 9.37601 10.4275 3.36699 16.0651 3.50224ZM16.0089 6.97338C13.135 6.95257 13.2352 15.5991 16.0538 15.6879C18.7501 15.7719 19.181 6.99741 16.0089 6.97338Z" fill="black"/>
<path d="M95.3551 20.7656C95.3551 20.7656 94.0402 21.1327 94.0006 22.3557C93.9748 23.1512 94.7722 23.4117 94.7722 23.4117L94.9304 23.4699L95.1837 23.5L95.3527 23.4907L95.5841 23.4802L95.7549 23.4434L95.9602 23.4074L96.1426 23.3834L96.4595 23.3371L96.8237 23.3167L97.273 23.2977L97.7814 23.28L98.2792 23.2622L99.2969 23.2824L99.9033 23.2814L100.595 23.2946L101.407 23.3231L102.218 23.3789L102.897 23.4072L103.648 23.449L104.193 23.4847L104.606 23.4675L104.775 23.4435C104.775 23.4435 105.165 23.4807 105.534 22.3222C105.59 22.1482 106.801 18.8608 106.801 18.8608C106.801 18.8608 107.113 17.5833 105.975 17.3984C104.837 17.2136 104.316 18.8801 103.7 19.3813C103.654 19.4183 102.58 20.643 101.727 20.6414C100.866 20.6394 99.4763 20.6173 99.4763 20.6173L99.5313 15.5077L100.995 15.4923C100.995 15.4923 101.54 16.4086 102.364 16.397C103.188 16.3859 103.946 16.0204 103.994 15.2929C104.021 14.888 104.041 12.2407 104.041 12.2407C104.041 12.2407 104.072 11.0168 102.546 10.9277C101.772 10.883 101.326 11.3056 101.167 11.5489C101.159 11.5595 99.4812 11.5166 99.4812 11.5166L99.4762 8.34852L101.774 8.34554C101.774 8.34554 102.65 8.18715 104.057 9.64638C104.335 9.93251 104.972 11.0659 106.025 11.0062C107.08 10.9467 106.999 10.0941 106.999 10.0941L106.885 9.56597L106.734 9.11774L106.444 8.23395L106.307 7.79814L106.134 7.22693L105.973 6.67054L105.81 6.16703L105.684 5.73148L105.568 5.41891C105.568 5.41891 105.454 4.44336 104.332 4.56923C104.296 4.5727 103.518 4.63561 103.518 4.63561L102.863 4.65071L101.784 4.70967L100.946 4.73348L98.3885 4.68377L97.4802 4.62613L96.7407 4.54415L95.8697 4.5L95.286 4.52855C95.286 4.52855 94.3772 4.60761 94.3839 5.6342C94.3849 5.91743 95.05 6.41248 95.4085 6.85543C95.4478 6.90383 95.355 20.7656 95.355 20.7656" fill="black"/>
<path d="M87.4768 24.6435C87.4768 24.6435 86.532 24.0791 85.4789 24.0719C84.4261 24.065 81.6686 25.2324 81.64 28.4825C81.6109 31.7326 83.2265 32.4082 85.6105 32.4932C87.9949 32.5797 89.8732 31.8328 90.9097 30.5363C91.9459 29.2404 92.7526 27.1963 92.7949 25.4292C92.7949 25.4165 92.9564 15.4082 92.9564 15.4082C92.9564 15.4082 94.0448 14.8396 93.9986 13.7821C93.9518 12.725 93.3459 12.4264 92.9653 12.4193C92.5847 12.4121 92.1243 12.6626 92.1243 12.6626C92.1243 12.6626 91.0656 13.028 90.4057 12.9878C89.7458 12.9477 89.0482 12.7974 88.8351 12.7528C88.6374 12.7102 88.1396 12.5748 88.1396 12.5748L87.9756 12.5566L87.76 12.5269C87.76 12.5269 86.8824 12.5492 86.8798 13.6329C86.8757 14.7174 88.1209 15.3449 88.1209 15.3449L88.0746 18.2243C88.0746 18.2243 88.1382 18.9387 87.11 18.9599C86.0829 18.9814 85.4872 18.9296 84.5775 17.8839C83.6681 16.8381 83.5244 14.7227 83.5795 13.6266C83.6349 12.5302 84.0645 8.99665 86.8447 8.79162C88.0775 8.70163 89.1132 9.76637 89.1132 9.76637C89.1132 9.76637 90.1642 10.7463 90.8759 10.6506C91.5874 10.5548 92.2021 10.3071 92.2401 9.42925C92.2497 9.20882 92.2875 8.9328 91.8362 8.54312C91.7792 8.49471 91.1065 7.64653 91.4751 4.98566C91.6773 3.53014 90.0788 3.53426 89.9753 3.5172C89.8731 3.50015 89.3454 3.37905 88.0224 4.13832C87.9983 4.15067 87.6049 4.56101 85.7119 4.24481C85.6964 4.24224 82.7059 4.10199 80.4788 6.80773C79.9894 7.40243 78.2213 9.30211 78.0108 13.4936C77.8851 16.0004 78.8678 18.363 80.5134 20.37C80.9146 20.8574 82.8664 23.3842 87.4875 23.1354C87.5051 23.1334 87.4767 24.6435 87.4767 24.6435" fill="black"/>
<path d="M62.3543 20.677C62.3543 20.677 60.9882 21.1497 61.0001 22.278C61.0119 23.4058 61.9778 23.4063 61.9778 23.4063L62.1529 23.3914L62.4285 23.3238L62.617 23.2833C62.617 23.2833 64.6165 22.9887 65.7666 23.2964C65.7745 23.2984 65.9291 23.3259 65.9291 23.3259L66.1918 23.3794L66.3919 23.4321L66.6312 23.4745L66.8818 23.5L67.1206 23.4875C67.1206 23.4875 67.8619 23.339 67.8993 22.2935C67.9356 21.2477 67.0837 20.8958 67.0837 20.8958L67.0827 8.52943L67.1823 8.39365C67.1823 8.39365 67.7957 7.60695 68.8503 7.64715C69.9049 7.6879 70.5709 9.15319 70.5944 9.24904C70.6181 9.34409 71.3491 10.9732 71.3473 12.9558C71.3458 14.6525 70.5815 17.2165 70.5815 17.2165C70.5815 17.2165 70.1781 19.034 68.5886 21.5195C68.5825 21.528 68.4867 21.7102 68.4867 21.7102C68.4867 21.7102 68.2848 22.1428 68.2987 22.4822C68.3124 22.8214 68.4535 23.3919 69.167 23.3922C69.1785 23.3922 69.3789 23.3797 69.3789 23.3797L69.7177 23.3389L70.3314 23.2713L70.8466 23.2287L71.5366 23.2034H72.25L72.7399 23.2439L73.1417 23.2718L73.4552 23.2846L73.7316 23.3245L73.9317 23.3647L74.196 23.4201L74.4819 23.4481L74.747 23.4455L75.0229 23.4075C75.0229 23.4075 75.815 23.2552 75.8638 22.1434C75.9125 21.0322 75.0837 20.5551 74.7212 20.6933C74.7112 20.6969 74.4603 20.5423 73.4805 21.2209C73.476 21.223 73.3549 21.2886 73.3549 21.2886L73.204 21.3163H73.0532L72.9279 21.2764L72.8142 21.168L72.7397 21.032L72.7273 20.9217V20.7734L72.751 20.6502L72.8023 20.5573L72.89 20.434C72.89 20.434 75.5636 17.0263 75.9264 16.0362C76.2887 15.0455 76.8665 14.475 76.9924 12.019C77.1132 9.63127 75.7606 7.59514 75.7606 7.59514C75.7606 7.59514 74.2571 5.13513 72.3874 4.49833C70.5178 3.86208 70.8587 3.94247 69.5903 3.87485C68.7358 3.82789 67.1541 4.24334 66.2037 4.79677C66.1879 4.80765 66.0782 4.81141 66.0782 4.81141L65.9273 4.76932L65.6003 4.55263C65.6003 4.55263 63.7954 3.39907 62.7032 3.50715C61.6114 3.61468 61.0217 4.45866 61.0473 5.32655C61.0728 6.1939 61.5003 6.93824 62.3157 7.57857C62.3257 7.58726 62.3541 20.677 62.3541 20.677" fill="black"/>
<path d="M51.1474 23.5L50.7528 23.3776L50.3239 23.2852L49.9976 23.2184C49.9496 23.2079 49.5906 23.1339 49.0994 23.0931C48.5878 23.0504 47.9 23.0407 47.2644 23.1966L46.9919 23.2509L46.7542 23.2936L46.5925 23.3252L46.4075 23.3525H46.2621L46.0696 23.3319C46.0372 23.3209 45.9714 23.2919 45.9269 23.2549C45.8573 23.1966 45.7235 23.049 45.7235 22.6413C45.7235 22.3081 45.9309 21.9839 46.2319 21.7004C46.3743 21.5667 46.5188 21.4602 46.6297 21.3851C46.6851 21.3483 46.7311 21.3194 46.763 21.3C47.0516 21.1235 47.0535 20.8587 47.0535 20.8485C47.0733 20.3937 47.0637 18.0616 47.0637 18.0616L46.2977 17.9546L46.2629 17.9551C46.2008 17.9561 42.154 17.9983 42.0025 13.7191C41.9537 12.3388 42.6388 11.589 43.3726 11.1553C43.7469 10.9343 44.1297 10.8006 44.4234 10.7217C44.7294 10.6401 44.9479 10.6152 44.9503 10.6147C45.0552 10.5863 46.7515 9.91401 46.7515 9.91401C46.7515 9.91401 45.0536 9.54869 44.9069 9.48844C44.7431 9.42062 44.5238 9.30686 44.3051 9.1215C43.8829 8.76456 43.423 8.11282 43.4176 6.89068C43.4128 5.73825 43.9648 5.17649 44.5268 4.87224C44.818 4.71417 45.1149 4.62689 45.3412 4.57907C45.4531 4.555 45.5454 4.54124 45.6094 4.53341C45.6592 4.52693 45.7026 4.5153 45.7403 4.50018C45.7963 4.49816 45.8951 4.51393 45.9818 4.51555C46.1778 4.51909 46.3526 4.53124 46.4123 4.54499C47.0219 4.68307 47.2535 4.7171 47.2535 4.7171L47.8545 4.82627L48.3128 4.89383L48.86 4.97218L49.377 5.0184L50.0308 5.10568L50.5608 5.14052L51.4199 5.19645L52.1181 5.23993L52.7593 5.26345C52.7593 5.26345 53.695 5.26943 54.9064 5.20537C56.1288 5.14051 57.6371 5.0027 58.7784 4.71979C59.8554 4.45202 60.0072 4.92083 59.9997 5.34344C59.9888 5.99733 59.5527 6.69257 59.1511 6.83335C59.1511 6.83335 58.8322 7.1103 58.8282 7.44698L58.8237 7.87553L58.8117 9.40003L58.7793 14.0224L58.7338 20.9205L58.9921 21.2602L59.1766 21.4285L59.3407 21.5669L59.4743 21.689C59.4861 21.7014 59.5029 21.7192 59.5222 21.7444C59.545 21.7741 59.5742 21.8171 59.6028 21.8771C59.6577 21.9933 59.7203 22.1921 59.7115 22.5048C59.6925 23.203 59.3094 23.4499 59.19 23.4429C58.6789 23.4107 57.7309 23.204 57.7309 23.204L57.3767 23.1546L57.0113 23.1433H56.7021L56.3918 23.1538C56.3535 23.1553 56.066 23.1627 55.7214 23.1913C55.371 23.2205 54.8961 23.2754 54.5815 23.3883C54.5114 23.4129 54.3952 23.4313 54.3414 23.4383L54.136 23.4308L54.0257 23.4067C53.9861 23.3816 53.9079 23.3256 53.849 23.2597C53.7382 23.1346 53.5974 22.9014 53.5942 22.4707C53.5874 21.7568 54.5601 21.3256 54.6506 21.2904L54.9574 21.1718V18.243H50.8324V21.2845L51.1681 21.3896C51.2174 21.405 51.8976 21.6511 51.8516 22.3175C51.7887 23.2429 51.3124 23.4723 51.2733 23.4799C51.2195 23.4899 51.178 23.495 51.1451 23.4972L51.1471 23.4997L51.1474 23.5ZM53.8487 8.41197C53.4832 8.53789 53.0035 8.77486 52.5278 9.21989C51.5632 10.1218 50.6947 11.7979 50.7067 14.8667C50.7067 14.875 50.8259 15.3584 51.3161 15.3633L51.701 15.3648C52.0175 15.3651 52.4389 15.3648 52.8605 15.3638C53.7033 15.3623 55.0146 15.3576 55.0146 15.3576L54.987 8.25036C54.987 8.25036 54.2371 8.27736 53.8487 8.41167" fill="#FF8028"/>
<path d="M32.5033 4.25054C33.0951 4.13663 33.5383 4.02135 33.6267 3.9978L34.4648 3.83133L34.8806 3.77438L35.4256 3.72919C35.4256 3.72919 35.737 3.70018 36.1985 3.74645C36.6776 3.79436 37.307 3.92115 37.9293 4.2311C39.1313 4.82937 40.4012 6.15266 40.3966 9.24064C40.3931 12.0009 36.5881 14.7819 36.5105 14.8378L36.381 14.9306C36.381 14.9306 36.0398 15.973 36.8652 19.1163C37.6571 22.1312 38.9975 24.004 39.0175 24.0319L39.3919 24.5538C39.3919 24.5538 39.8153 23.9709 39.8886 23.895C39.9775 23.8036 40.1203 23.6743 40.323 23.5437C40.7261 23.2839 41.3809 23.0074 42.3547 23.0137C43.026 23.0172 46.1905 23.7795 45.991 27.4876C45.8774 29.5724 44.9385 30.5417 44.0593 31.0192C43.6062 31.2653 43.155 31.3864 42.814 31.4452C42.5302 31.4948 42.329 31.4997 42.2782 31.5C42.1493 31.4934 41.9524 31.5063 41.6932 31.4948C41.4555 31.4844 41.1581 31.4491 40.807 31.345C40.1059 31.1361 39.144 30.6372 37.9745 29.4182C36.7736 28.1675 36.1528 27.2404 35.7251 26.4299C35.2742 25.5745 35.0198 24.8257 34.5818 23.976C33.7407 22.3455 32.8164 18.3031 32.8102 18.2746L32.6988 17.7237L32.217 17.5824L32.0289 17.6035L31.8623 17.6243L30.6157 18.1215C30.6157 18.1215 30.5849 18.9851 30.5757 19.5196C30.5711 19.7914 30.569 20.0633 30.5725 20.2695C30.5744 20.3842 30.5782 20.4809 30.5838 20.5493C30.6176 20.9425 30.8893 21.0666 30.9504 21.0844C30.965 21.0885 31.0315 21.1071 31.1229 21.1454C31.2167 21.1854 31.3316 21.2437 31.4403 21.3248C31.6544 21.4838 31.8153 21.7007 31.8121 22.035C31.805 22.8367 31.1586 22.8263 31.1194 22.8249C31.1194 22.8249 30.43 22.8121 29.6627 22.6078C29.1934 22.4827 28.6308 22.4545 28.2083 22.4528C27.773 22.4513 27.3896 22.484 27.3896 22.484L27.3358 22.5032C26.8638 22.6678 26.249 22.7349 26.0565 22.7521C25.9884 22.7461 25.8235 22.7225 25.6802 22.642C25.548 22.5673 25.4358 22.4548 25.4436 22.1719C25.4642 21.4356 26.5956 20.9661 26.7067 20.9261L27.0282 20.81L27.0174 14.3484C27.0174 14.3484 27.0276 8.34715 27.0174 6.30949L27.0155 5.90973L26.6462 5.82376C25.7159 5.60636 25.3506 5.19018 25.1952 4.89721C25.1125 4.74141 25.0762 4.59601 25.0595 4.48813C25.0511 4.4331 25.0476 4.38737 25.0457 4.35506C25.0397 4.25074 25.0192 4.17135 25 4.11713C25.0105 4.02321 25.0757 3.93176 25.12 3.82415C25.1976 3.63495 25.3287 3.48791 25.6367 3.50078H25.7529C25.7859 3.51062 25.8595 3.53174 25.9016 3.55034C25.9765 3.58293 26.0617 3.62371 26.1601 3.66943C26.3758 3.76965 26.6492 3.89232 27.0017 4.01225C27.7162 4.25512 28.7319 4.47854 30.2156 4.49525C30.9732 4.50401 31.8329 4.37942 32.5034 4.25046L32.5033 4.25054ZM30.453 13.668C30.453 13.668 30.9575 13.7636 31.1505 13.7578C31.31 13.7523 31.5431 13.7285 31.8356 13.6502C32.4066 13.4972 33.1738 13.145 34.0444 12.3683C34.6846 11.7982 35.2934 10.9393 35.3883 9.30656C35.4891 7.57117 34.6489 6.76646 33.8249 6.29907C33.3561 6.03293 32.8451 6.0061 32.4839 6.03047C32.103 6.05701 31.8232 6.14712 31.8232 6.14712L31.6699 6.20078L31.5466 6.23393L31.3741 6.29006L31.1878 6.36317L31.0418 6.44094L30.8721 6.52361L30.453 6.9064V13.668V13.668Z" fill="#FF8028"/>
<path d="M23.9995 14.8488C23.9613 19.0722 20.6664 24.5668 15.4471 24.4994C10.2201 24.4325 6.92934 18.9678 7.00115 14.5237C7.07322 10.0377 10.2974 4.3753 15.5546 4.50209C21.6319 4.64832 24.0386 10.5708 23.9995 14.8488ZM12.9512 11.7959C12.9687 13.8784 13.6654 16.6201 15.54 16.6795C19.1573 16.7925 18.9619 7.01134 15.5117 6.98516C13.5837 6.97088 12.9343 9.72587 12.9512 11.7959" fill="#FF8028"/>
<path d="M62.3316 13.6304L62.3191 9.12961L62.3136 7.64446L62.3111 7.22615C62.3087 6.86077 62.1315 6.69028 62.1294 6.68839C61.3961 6.1099 61.0669 5.4869 61.0472 4.81477C61.0299 4.2219 61.4228 3.59076 62.2784 3.50552C63.183 3.41567 64.834 4.45156 64.884 4.4836L65.2619 4.73443L65.565 4.82019C65.565 4.82019 65.9049 4.75994 65.9494 4.72899C66.8344 4.21159 68.3128 3.8329 69.0647 3.8747C69.3777 3.89127 69.5911 3.89889 69.7643 3.91083C69.9151 3.92114 70.0306 3.93445 70.1621 3.96349C70.4591 4.02945 70.8278 4.16627 71.7322 4.47546C73.4133 5.05096 74.8328 7.35429 74.8482 7.379C74.8482 7.379 75.1641 7.86056 75.4624 8.61032C75.7683 9.37801 76.0482 10.4039 75.993 11.4935C75.9333 12.6784 75.7659 13.3823 75.5815 13.8992C75.3775 14.4709 75.1442 14.8601 74.964 15.3542C74.6392 16.2454 72.053 19.5713 72.0142 19.6213L71.9029 19.7773L71.7984 19.9685L71.7502 20.2215L71.7505 20.4489L71.7764 20.6922L71.9367 20.9859L72.18 21.2183L72.4655 21.3105H72.7216L72.977 21.2636L73.1847 21.1496C73.649 20.8266 73.9258 20.7145 74.0405 20.6854C74.068 20.6789 74.0853 20.674 74.0971 20.6748C74.2718 20.6892 74.3425 20.6602 74.3532 20.6558C74.4132 20.6757 74.53 20.7413 74.6055 20.8157C74.7492 20.9569 74.8886 21.2107 74.8708 21.6182C74.8524 22.03 74.7071 22.2146 74.6044 22.3039C74.5465 22.3544 74.4897 22.385 74.4488 22.4021L74.1812 22.4474L73.9727 22.449L73.7336 22.4259L73.4921 22.3754L73.2805 22.333L72.972 22.2885L72.6381 22.2739L72.2499 22.2467L71.751 22.206L71.0156 22.2055L70.3122 22.2315L69.7836 22.275L69.1661 22.3437L68.839 22.3827L68.6554 22.3936C68.334 22.389 68.2707 22.2022 68.2607 21.9585C68.2531 21.7684 68.3909 21.4495 68.3998 21.431C68.4183 21.393 68.4605 21.3105 68.4637 21.3061C70.0031 18.8874 70.4643 17.0665 70.5146 16.852C70.5458 16.7467 70.7228 16.1327 70.8996 15.3392C71.0916 14.4795 71.2932 13.3673 71.2945 12.4576C71.2955 11.4033 71.1026 10.451 70.9098 9.75446C70.7278 9.0959 70.5416 8.67106 70.53 8.62409C70.4978 8.49162 69.7462 6.70787 68.3673 6.65466C67.7296 6.63023 67.2257 6.85772 66.8857 7.08764C66.715 7.2022 66.584 7.31893 66.4934 7.40878C66.3926 7.50922 66.3368 7.58305 66.3368 7.58305L66.1343 7.8594L66.1348 20.7184C66.1348 20.7184 66.4557 20.8693 66.496 20.8951C66.5502 20.9291 66.6225 20.9817 66.6932 21.0561C66.8275 21.1981 66.9593 21.418 66.9467 21.7725C66.9331 22.1517 66.8016 22.3176 66.7131 22.3969C66.662 22.4419 66.6117 22.4693 66.5759 22.4848L66.3978 22.5L66.2021 22.4796L65.9979 22.4433L65.8041 22.3922L65.5262 22.3352L65.3761 22.3078C64.736 22.1397 63.9037 22.1416 63.2647 22.1764C62.6023 22.213 62.0744 22.292 62.0744 22.292L61.8675 22.3363L61.6192 22.3974L61.5013 22.4074C61.417 22.4034 61.0061 22.3539 61 21.7703C60.9924 21.0661 61.9329 20.6809 62.029 20.6475L62.348 20.5368L62.3318 13.6303L62.3316 13.6304Z" fill="#FF8028"/>
<path d="M87.4492 24.3964C87.4517 24.2054 87.4537 24.0144 87.4537 23.871C87.4542 23.316 86.9649 23.1327 86.9476 23.1344C84.7344 23.2538 83.194 22.7055 82.1586 22.089C81.6384 21.7791 81.2429 21.4493 80.9552 21.1691C80.8116 21.0296 80.6939 20.9018 80.6009 20.795C80.5053 20.6847 80.4347 20.596 80.3865 20.5377C78.8051 18.5999 77.8933 16.3608 78.01 14.0195C78.1115 11.9983 78.5848 10.5461 79.0816 9.53483C79.3304 9.02837 79.5866 8.62899 79.8098 8.32071C80.0392 8.0039 80.2336 7.78178 80.3516 7.63782C81.3864 6.37553 82.5981 5.77658 83.5573 5.4928C84.0349 5.35132 84.4483 5.28884 84.7437 5.26214C84.8875 5.24864 85.0026 5.24426 85.0822 5.24287C85.1227 5.24287 85.1456 5.23927 85.1462 5.23979C86.1179 5.40246 86.7406 5.38483 87.1439 5.30721C87.3466 5.26785 87.4971 5.21363 87.6082 5.15721C87.6801 5.12033 87.719 5.0873 87.7248 5.08427C88.3532 4.72149 88.7773 4.57864 89.0282 4.52799C89.1411 4.50543 89.2261 4.49883 89.2876 4.50017C89.3406 4.5012 89.3726 4.50872 89.3886 4.5117C89.4147 4.51583 89.5353 4.51887 89.6981 4.54421C89.8353 4.56538 89.9919 4.60311 90.1315 4.66917C90.377 4.7856 90.5534 4.96039 90.491 5.40932C90.1149 8.1376 90.7699 9.22042 91.0224 9.43539C91.1985 9.58898 91.2347 9.68037 91.2438 9.709C91.2489 9.72553 91.2515 9.74314 91.2523 9.769C91.2538 9.81716 91.2503 9.86204 91.2483 9.90416C91.2283 10.3718 90.9798 10.5576 90.2979 10.6501C89.8531 10.7098 89.0151 9.98452 88.912 9.89094C88.8865 9.86508 88.8164 9.79652 88.7088 9.70486C88.5796 9.59476 88.3932 9.44944 88.1638 9.30768C87.7123 9.02776 87.0526 8.73324 86.3094 8.78801C84.7006 8.90692 83.7811 10.0107 83.2766 11.1582C82.779 12.2906 82.653 13.5234 82.6242 14.0981C82.5694 15.1953 82.6919 17.5126 83.743 18.7265C84.7709 19.9144 85.5159 19.9857 86.6149 19.9632C87.2337 19.9502 87.6383 19.7179 87.8578 19.3626C87.959 19.1993 88.0024 19.0369 88.0205 18.9158C88.0338 18.8231 88.0338 18.7507 88.0322 18.7105L88.0836 15.5275L87.8104 15.389C87.7427 15.3546 86.8397 14.8485 86.8421 14.1342C86.8431 13.7709 86.9742 13.6561 87.0549 13.6038C87.1093 13.5686 87.1673 13.5487 87.2142 13.5377L87.414 13.5548L87.5493 13.5702C87.6663 13.6018 88.061 13.7081 88.2333 13.7452C88.4542 13.7917 89.1779 13.9473 89.8611 13.9891C90.2604 14.0136 90.7436 13.9173 91.0952 13.8289C91.4619 13.7378 91.7773 13.628 91.7773 13.628L91.8101 13.6101C91.8221 13.6035 92.1814 13.4163 92.4283 13.421C92.5732 13.4236 92.9653 13.525 92.9991 14.3051C93.0292 14.9916 92.2717 15.4301 92.2237 15.4556L91.9662 15.5908L91.8002 25.922C91.76 27.5611 91.0038 29.4945 90.0353 30.7111C89.1272 31.852 87.418 32.5762 85.1286 32.4936C82.8735 32.4124 81.5995 31.8426 81.6245 28.9894C81.6499 26.1141 84.0847 25.0699 84.9789 25.0762C85.4309 25.0788 85.8731 25.2036 86.2116 25.3346C86.5353 25.4601 87.4214 25.9859 87.4214 25.9859C87.4214 25.9859 87.4438 24.7753 87.4492 24.3966" fill="#FF8028"/>
<path d="M95.5007 13.3323C95.5104 11.5993 95.519 9.8644 95.5224 8.5598C95.5245 7.90697 95.5245 7.36158 95.5234 6.97801C95.5224 6.78372 95.5219 6.63088 95.5198 6.52528C95.5151 6.2159 95.4028 6.06199 95.3956 6.05354C95.2883 5.93106 95.1597 5.80515 95.0258 5.68028C94.9055 5.56783 94.7805 5.45643 94.6676 5.35031C94.5571 5.24551 94.4773 5.16341 94.4279 5.10058C94.4376 4.5552 94.9088 4.52827 94.9349 4.52669L95.5223 4.5L96.4222 4.54248L97.2143 4.62405L98.2115 4.68266L100.981 4.73282L101.898 4.70852L103.065 4.64912L103.768 4.63459L104.663 4.56701C105.107 4.52028 105.28 4.67024 105.354 4.7621C105.401 4.82176 105.43 4.88643 105.448 4.93816C105.459 4.97171 105.484 5.08628 105.484 5.08628L105.613 5.40727L105.745 5.83123L105.922 6.34123L106.092 6.88478L106.28 7.46052L106.429 7.90084L106.742 8.78861L106.896 9.21072L107 9.66161C106.995 9.69886 106.982 9.76271 106.959 9.80548C106.931 9.85695 106.836 10.0082 106.413 10.0306C106.029 10.0507 105.696 9.87332 105.393 9.60353C105.243 9.47022 105.112 9.32371 104.993 9.18459L104.826 8.98608C104.776 8.928 104.72 8.86254 104.662 8.80789C103.863 8.03838 103.189 7.67144 102.685 7.50249C102.433 7.41776 102.228 7.38371 102.075 7.37315C101.964 7.36525 101.884 7.36968 101.837 7.37363L98.9113 7.37808L98.9191 11.4928C98.9191 11.4928 99.8443 11.5147 100.297 11.5242L100.923 11.5363L101.134 11.5383C101.445 11.5393 101.6 11.3506 101.607 11.3422C101.698 11.2126 102.036 10.8815 102.673 10.9159C103.352 10.9523 103.6 11.2081 103.703 11.3757C103.764 11.4729 103.795 11.5703 103.808 11.6439C103.819 11.697 103.82 11.736 103.82 11.736C103.82 11.736 103.799 14.3574 103.77 14.7576C103.749 15.0567 103.361 15.4004 102.498 15.4115C101.915 15.4191 101.464 14.7634 101.443 14.732L101.298 14.5052L98.9775 14.5279L98.9072 20.5818C98.9072 20.5818 100.889 20.6111 101.818 20.613C102.454 20.6145 103.088 20.2115 103.5 19.8995C103.719 19.7337 103.909 19.5661 104.049 19.438C104.117 19.3747 104.172 19.3213 104.212 19.2823C104.441 19.1096 104.66 18.8322 104.822 18.6112C104.982 18.3945 105.146 18.1524 105.329 17.9318C105.686 17.4988 105.975 17.3196 106.312 17.3705C106.919 17.4621 106.847 18.035 106.808 18.2076C106.676 18.5405 105.507 21.4881 105.45 21.6528C105.267 22.1879 105.099 22.3817 105.032 22.4406C105.076 22.4445 105.139 22.4477 105.139 22.4477L105.031 22.4497L104.872 22.4711L104.475 22.4861L103.911 22.4513L103.098 22.4093L102.366 22.381L101.498 22.3256L100.614 22.2968L99.8624 22.2834L99.2059 22.2843L98.1098 22.2651L97.5611 22.2822L97.0137 22.3002L96.5261 22.3189L96.111 22.3413L95.7501 22.3899L95.5506 22.4142L95.312 22.4533L95.1572 22.4839L94.9441 22.4929L94.7999 22.5L94.6204 22.4802L94.4935 22.4371C94.4426 22.4218 93.9864 22.2492 94.0003 21.8588C94.0289 21.0367 95.0289 20.7379 95.0928 20.7213L95.4534 20.6276C95.4534 20.6276 95.4809 16.798 95.5006 13.3324" fill="#FF8028"/>
</svg>
