<svg width="114" height="64" viewBox="0 0 114 64" fill="none" xmlns="http://www.w3.org/2000/svg">
<path d="M30.4998 16C32.4326 16 34 14.4324 34 12.4998C34 10.5672 32.4326 9 30.4998 9C28.567 9 27 10.5676 27 12.4998C27 14.4321 28.567 16 30.4998 16Z" fill="black"/>
<path d="M25.0801 19.444C25.0801 19.444 25.0801 14.7599 25.0801 12.3598C25.0801 9.95331 22.74 7.76435 20.9297 8.31508C19.1302 8.8723 11.5698 11.2208 11.2597 11.3617C10.9505 11.508 7 13.0572 7 17.4539L7.05968 46.0225C7.05968 46.0225 7.23002 48.8962 10.1699 48.8386C10.1699 48.8386 11.03 48.8386 12.4097 48.0771C12.4097 48.0771 15.81 46.1828 16.04 46.0805C16.2597 45.9847 18.1102 45.3828 18.1699 47.9554V64L23.7503 62.1821C23.7503 62.1821 23.7503 48.4164 23.7503 47.9554C23.7503 46.9893 24.4407 42.2079 26.8602 40.2311C27.0101 40.1029 28.1806 39.3353 29.22 40.7559C30.2698 42.1769 31.1802 42.3941 31.1802 42.3941C31.1802 42.3941 32.3098 42.8995 33.3107 41.1655C33.3704 41.0441 35.1307 38.0807 35.2105 37.9463C35.2903 37.812 35.5505 37.415 36.3002 37.4795C36.3002 37.4795 38.1508 37.3577 37.86 39.9944C37.86 39.9944 46.4203 37.3513 47.1301 36.9478C47.2397 36.9032 50.5099 35.5722 52.4802 32.5C52.4802 32.5 53.07 31.6168 53.8096 31.6809C53.9397 31.6809 55.7601 31.7962 55.2403 34.2538C55.2403 34.2538 63.54 31.6748 64.0001 31.4446C64.9802 31.035 67.57 29.9404 67.5107 26.8812C67.5405 25.9724 67.3004 24.3856 66.0102 23.2463C65.9405 23.1757 60.3 18.9516 60.2501 18.9137C59.7599 18.4912 59.5101 17.5309 60.3098 16.5137C60.3098 16.5137 60.9398 15.5793 61.8696 15.637C61.8696 15.637 62.57 15.6049 63.6504 17.045C63.7898 17.1858 64.5899 18.274 65.1502 18.3889C65.1502 18.3889 65.6099 18.5424 66.1802 17.9794C67.5804 16.7442 68.3104 16.6931 68.3104 16.6931C68.3104 16.6931 70.3302 16.1045 70.3302 18.4466C70.3302 18.4466 70.3302 22.9077 70.3302 23.368C70.3302 24.4436 71.72 27.7391 74.8802 27.5795C74.8802 27.5795 75.97 27.4643 77.0104 27.17L80.4003 26.0631C80.4003 26.0631 84.67 24.7577 86.1601 21.961C86.1601 21.961 86.8699 20.5591 87.8899 20.5591C87.8899 20.5591 89.67 20.3228 89.5 23.0748L94.3401 21.4362V9.54989C94.3401 9.54989 94.2006 8.14219 95.8301 8.14219C97.4403 8.14219 97.39 9.42815 97.39 9.42815C97.39 9.42815 97.39 33.5108 97.39 34.0226C97.39 34.7139 98.1001 36.8639 100.44 36.8319C100.44 36.8319 107 36.7746 107 31.0913C107 30.6691 107 28.9279 107 28.9279L105.33 29.5107V31.5646C105.33 31.5646 105.441 32.9474 103.89 33.0238C103.75 33.0559 102.23 32.9982 102.28 31.5005V1.40959C102.28 1.40959 102.16 0.00154597 100.78 0.00154597C100.78 0.00154597 99.5198 -0.113716 98.5397 1.64625C97.5596 3.39973 97.2099 4.74366 95.8902 4.74366C95.8902 4.74366 94.3199 4.93565 94.3397 3.51465V1.99169L89.38 3.6364C89.38 3.6364 89.38 9.21706 89.38 9.42815C89.38 10.8682 88.3201 18.0104 86.4501 18.0356C86.3197 18.0551 84.56 18.3047 84.4896 16.5127C84.4896 16.5127 84.4896 10.3881 84.4896 9.78007C84.5396 8.87162 83.8401 6.1575 81.6097 6.44599L79.6003 6.85555C79.6003 6.85555 79.6003 20.9796 79.6003 21.4345C79.6003 21.8823 79.4397 24.0327 77.0597 24.1282C76.8498 24.1606 74.5298 24.0644 74.5298 21.7861V12.3022C74.5298 12.3022 74.4202 10.5999 76.0897 10.4846L76.1396 8.02693C76.1396 8.02693 71.0793 9.19831 68.7198 13.5312C68.4401 13.8381 67.85 14.1133 67.4496 14.1133C67.2099 14.1133 66.0702 14.0427 66.0099 12.8843C66.0099 12.6091 66.0099 11.3037 66.0099 11.3037L57.6602 14.113C57.6602 14.113 54.38 15.1694 54.38 18.5676C54.38 18.5676 54.38 20.9097 55.8201 22.017L61.6399 26.4713C61.6399 26.4713 62.63 27.1884 62.1499 28.4045C62.0892 28.6091 61.4095 30.0106 60.0194 30.0427C59.7491 30.0744 58.8693 30.0427 58.3493 28.6923C58.3493 28.6923 57.8896 26.9384 56.3995 27.4633C56.3995 27.4633 53.5994 28.4617 53.3999 28.5194C53.2104 28.577 51.5598 28.8713 51.5598 26.8808C51.5598 26.8808 51.5598 20.8074 51.5598 20.3214C51.5598 19.8345 50.9696 17.0573 48.6799 17.1599C48.6799 17.1599 47.3594 17.2752 46.2104 17.8061V20.6734C46.2104 20.6734 47.7601 20.4367 47.7601 22.4848V32.3851C47.7601 32.3851 47.8299 34.8554 45.29 34.9004C43.1595 34.8748 42.8101 32.8076 42.8101 32.558C42.7896 31.1568 42.8698 1.00071 42.8698 1.00071L37.8004 2.99052L37.86 24.5957C37.86 24.5957 37.5502 31.61 35.6098 34.3173C35.0506 35.0917 33.08 35.0917 32.91 33.3761V22.2536L27.9603 23.8345C27.9603 23.8345 27.9603 27.5847 27.9603 28.34C27.9603 29.0953 27.2699 38.0418 24.7401 37.9139C24.4199 37.9207 23.7399 37.5617 23.7295 36.0261L23.76 25.1273L18.9199 26.8808C18.9199 26.8808 18.87 32.8707 18.8596 33.2039C18.7097 35.1241 18.9793 43.8018 13.3298 43.8018C13.3298 43.8018 11.9497 43.8595 11.9497 42.1633V17.9211C11.9497 17.9211 12.1096 15.182 14.1996 14.2282C14.1996 14.2282 16.3301 13.4538 16.7898 13.2939C17.2397 13.1339 18.9796 13.2939 18.9796 15.2267V21.3769L25.0801 19.444Z" fill="black"/>
<path d="M103 1.49692C103 0.590079 103.707 0 104.5 0C105.293 0 106 0.590079 106 1.49692C106 2.41576 105.293 3 104.5 3C103.707 3 103 2.41576 103 1.49692ZM104.5 0.316438C103.877 0.316438 103.387 0.809575 103.387 1.49724C103.387 2.19075 103.878 2.68324 104.5 2.68324C105.113 2.68324 105.614 2.19042 105.614 1.49724C105.614 0.809251 105.113 0.316438 104.5 0.316438ZM104.236 2.33665H103.915V0.657192H104.538C104.944 0.657192 105.17 0.790771 105.17 1.15584C105.17 1.45996 104.991 1.58154 104.774 1.60618L105.17 2.33665H104.811L104.444 1.6185H104.236V2.33665ZM104.236 1.36269H104.519C104.755 1.36269 104.84 1.28423 104.84 1.12569C104.84 0.96747 104.736 0.918837 104.501 0.918837H104.236V1.36269H104.236Z" fill="black"/>
</svg>
