<svg width="114" height="36" viewBox="0 0 114 36" fill="none" xmlns="http://www.w3.org/2000/svg">
<path d="M97.2167 27.5698C96.0667 27.5698 95.1333 26.641 95.1333 25.4966V1H95.1167H87.9167H77.7333C69.3167 1 62.3167 7.07025 60.9167 15.0478V14.5668C60.9167 7.07024 54.8167 1 47.2833 1C39.75 1 33.65 7.07024 33.65 14.5668V27.321H17.2167C15.7 27.321 14.4833 26.1102 14.4833 24.601C14.4833 23.0917 15.7 21.881 17.2167 21.881H30.1V13.9034H18.35C16.8167 13.9034 15.5833 12.6595 15.5833 11.1502C15.5833 9.64098 16.8167 8.38049 18.35 8.38049H30.1167V1H18.3333C12.8 1 8.31667 5.46146 8.31667 10.9678C8.31667 13.3893 9.18333 15.6117 10.6333 17.3366C8.41667 19.161 7 21.9307 7 25.0156C7 30.5219 11.4833 34.9834 17.0167 34.9834C17.3 34.9834 40.8167 34.9834 40.8167 34.9834V14.6166C40.8167 11.0673 43.7167 8.18146 47.2833 8.18146C50.85 8.18146 53.75 11.0673 53.75 14.6166V35H60.9167V20.9522C62.3 28.8137 69.1 34.801 77.35 35H77.3667C77.5 35 77.6167 35 77.75 35C80.2167 35 83.35 34.1873 84.6667 32.9766V14.6498H77.35V27.5698C71.55 27.5698 67.75 23.1912 67.75 18C67.75 12.5102 72.2333 8.04878 77.75 8.04878H87.9333V25.5132C87.9333 30.7541 92.2 35 97.4667 35H107V27.5698H97.2167Z" fill="black"/>
</svg>
