<svg width="114" height="44" viewBox="0 0 114 44" fill="none" xmlns="http://www.w3.org/2000/svg">
<path d="M91.9317 40.8204H92.3723C92.5904 40.8204 92.7468 40.7918 92.8415 40.738C92.9336 40.6756 92.9779 40.5854 92.9779 40.4535C92.9779 40.3364 92.9353 40.2488 92.8415 40.1863C92.7511 40.1282 92.6086 40.0961 92.4279 40.0961H91.9317V40.8204ZM91.3982 42.3315V39.6806H92.6538C92.9666 39.6806 93.1934 39.7491 93.3359 39.8966C93.4758 40.0406 93.5488 40.2184 93.5488 40.4275C93.5488 40.6331 93.4897 40.7961 93.3698 40.9211C93.2508 41.0434 93.0726 41.1284 92.8319 41.1692C92.9414 41.2099 93.0266 41.268 93.09 41.3409C93.1543 41.4103 93.2569 41.5647 93.3968 41.7989L93.7061 42.3315H93.0396L92.8224 41.9065C92.6886 41.6497 92.5678 41.4754 92.467 41.3817C92.367 41.2889 92.2376 41.2412 92.0681 41.2412H91.9317V42.3315H91.3982ZM92.5608 38.9892C91.9499 38.9892 91.4477 39.1879 91.0662 39.5982C90.6865 39.9981 90.4962 40.4683 90.4962 40.9991C90.4962 41.5508 90.69 42.0271 91.0862 42.4183C91.4833 42.8086 91.9543 43.0064 92.5078 43.0064C93.0587 43.0064 93.5323 42.8086 93.9286 42.4183C94.3205 42.0271 94.5203 41.5508 94.5203 40.9991C94.5203 40.6183 94.4213 40.2705 94.2214 39.9521C94.0242 39.6294 93.7669 39.3865 93.4559 39.2261C93.1465 39.069 92.8441 38.9892 92.5608 38.9892ZM92.4348 38.5C93.1813 38.5 93.7948 38.7472 94.2762 39.2425C94.7593 39.737 95 40.3251 95 40.9991C95 41.6827 94.755 42.2717 94.2675 42.7609C93.7756 43.2528 93.1856 43.5 92.5009 43.5C91.8048 43.5 91.2183 43.2528 90.7291 42.7627C90.2398 42.2769 90 41.687 90 40.9991C90 40.5125 90.1277 40.0675 90.3867 39.6641C90.6422 39.259 90.9654 38.9624 91.3521 38.7785C91.7405 38.5902 92.0985 38.5 92.4348 38.5Z" fill="black"/>
<path d="M22 0.5L37 0.500896V18.5L22 0.5Z" fill="black"/>
<path d="M31.9924 12.5L32 30.5L26.6326 26.4367L23.0109 26.4402L23 16.882H26.6267L31.9924 12.5Z" fill="black"/>
<path d="M37 24.5V43.4888L22 43.5L37 24.5Z" fill="black"/>
<path d="M40 21.5V43.5L56 43.4876L40 21.5Z" fill="black"/>
<path d="M52 0.50897L67.9852 0.5L68 21.5L52 0.50897Z" fill="black"/>
<path d="M72 0.510601L72.0325 43.5L88 43.4867L87.9728 0.5L72 0.510601Z" fill="black"/>
<path d="M90 0.503513L90.0184 25.4959C90.0184 25.4959 90.4844 25.5038 94.92 25.4977C102.81 25.4959 107.008 19.8871 107 13.0418C106.994 6.18951 102.961 0.494738 94.906 0.500004C90.5762 0.506147 90 0.503513 90 0.503513Z" fill="black"/>
<path d="M57.5116 43.5L60.1831 43.4973C70.0511 43.4894 71.5547 32.2304 68.738 28.0573C66.9433 25.4201 52.5942 6.66419 50.9865 4.45304C49.3177 2.15792 51.4385 0.5 51.4385 0.5L48.8203 0.507069C38.9462 0.512371 37.4434 11.8412 40.2654 16.0117C42.054 18.6523 56.2256 37.547 58.0133 39.623C60.0275 41.9578 57.5116 43.5 57.5116 43.5Z" fill="black"/>
<path d="M22 43.4876V0.5L7 0.514137L7.02831 43.5L22 43.4876Z" fill="black"/>
</svg>
