<svg width="114" height="66" viewBox="0 0 114 66" fill="none" xmlns="http://www.w3.org/2000/svg">
<path d="M68.1624 15.5H70.1155C70.3983 15.527 70.6822 15.5432 70.9661 15.567C70.4747 17.5914 69.8481 19.5769 69.2752 21.5775C68.5867 23.9032 67.8992 26.2279 67.1745 28.5418C67.9363 28.1562 68.7188 27.8148 69.5271 27.5491C70.4375 27.2531 71.3676 26.8934 72.338 26.9992C72.6064 26.9776 72.852 27.1721 72.9388 27.4335C73.2412 28.1832 73.0234 28.9966 72.9862 29.7722C73.747 29.5897 74.1579 28.8443 74.6833 28.3171C75.5019 27.5696 76.5352 27.0781 77.6098 26.9128C78.3634 26.8448 79.1985 26.8588 79.8406 27.3276C79.9954 27.5588 79.9438 27.9228 79.7786 28.1421C79.2491 28.3971 78.6194 28.3431 78.1136 28.665C77.9329 28.8421 77.9092 29.123 77.8266 29.3542C77.2051 31.5255 76.5476 33.6881 76.0077 35.8832C75.8673 36.3066 76.0211 36.8932 76.4805 37.0002C76.9688 37.0196 77.4746 37.0693 77.9546 36.9472C78.3541 36.5951 78.5234 36.0495 78.7391 35.5688C79.5402 33.2884 80.0181 30.9043 80.5621 28.5472C80.6271 28.2804 80.6736 28.0093 80.7087 27.737C80.5239 27.6031 80.334 27.454 80.2917 27.2077C80.8522 26.861 81.5417 26.7735 82.1683 26.9463C82.6184 27.1159 83.0076 27.4173 83.3885 27.7144C83.6734 27.9272 83.7694 28.3377 83.6971 28.6844C83.4225 30.5532 82.766 32.3324 82.4357 34.1883C82.3738 34.5113 82.766 34.4994 82.9715 34.4864C83.9263 34.3827 84.8223 33.9333 85.6038 33.3662C85.8969 33.1836 86.0001 32.8293 86.0982 32.5106C86.4977 31.0912 86.8094 29.648 87.1666 28.2167C87.2688 27.8019 87.3927 27.3924 87.564 27.0035C88.5561 26.8437 89.5863 26.8177 90.5752 27.0133C90.5659 27.5988 90.2542 28.1 90.1034 28.6477C90.858 28.5029 91.5135 28.0654 92.2155 27.7684C93.064 27.3978 93.9507 26.9625 94.8953 27.0802C95.3722 27.0997 95.8677 27.4259 95.9616 27.9423C96.1588 28.6866 95.7841 29.392 95.6674 30.1103C96.2228 30.0747 96.8091 29.837 97.1549 29.3639C97.4729 28.6531 97.5844 27.817 98.1026 27.2185C98.2636 27.0133 98.5289 26.9971 98.7611 26.9582C99.9266 26.7961 101.104 26.7627 102.279 26.7681C103.607 26.7648 104.939 26.7637 106.26 26.9355C106.524 26.9722 106.831 27.0792 106.908 27.3838C107.068 27.9261 107.001 28.5159 106.849 29.0528C106.482 30.4193 106.171 31.8052 105.732 33.1502C105.665 33.2863 105.639 33.5142 105.46 33.5304C104.51 33.6784 103.547 33.6784 102.589 33.6914C101.648 33.7097 100.705 33.6103 99.7687 33.7281C99.3661 34.5858 99.0636 35.504 98.947 36.4546C98.9212 36.8079 98.9242 37.3026 99.2979 37.4603C100.069 37.684 100.91 37.5576 101.618 37.1784C102.137 36.9094 102.523 36.4427 102.908 36.0042C103.548 35.9977 104.19 35.9502 104.829 36.0182C104.716 36.6998 104.429 37.335 104.085 37.9194C103.937 38.1441 103.787 38.385 103.561 38.5287C103.003 38.6454 102.43 38.6238 101.864 38.6443C100.038 38.6573 98.2058 38.6832 96.3869 38.4931C95.973 38.4682 95.5291 38.2835 95.3567 37.859C95.1399 37.267 95.239 36.6113 95.3495 36.0052C95.7294 34.4799 96.357 33.0346 96.7214 31.5039C96.7658 31.3127 96.7833 31.116 96.8019 30.9205C96.1939 31.2403 95.6148 31.6411 95.0831 32.0818C94.6929 33.1426 94.4235 34.252 94.0767 35.3312C92.9164 39.1974 91.7633 43.0668 90.6051 46.9341C90.5401 47.1242 90.5411 47.3273 90.5473 47.5272C90.7321 47.5887 90.9251 47.6968 91.1244 47.6222C91.3824 47.5887 91.4836 47.3154 91.5961 47.1091C91.7747 46.771 91.9037 46.4069 92.0514 46.0537C92.5231 45.9403 93.0289 46.0332 93.5141 46.0137C93.4553 46.4804 93.223 46.8909 93.0227 47.3025C92.5985 48.1062 92.1556 48.9012 91.6529 49.6542C91.5104 49.8594 91.3742 50.0787 91.178 50.2321C90.7868 50.4201 90.345 50.4233 89.928 50.5H88.1927C87.5919 50.4438 86.988 50.4071 86.3965 50.2753C86.444 49.7049 86.6154 49.1583 86.7599 48.6096C88.2722 43.2105 90.0074 37.8849 91.5682 32.502C91.7004 31.9208 91.9595 31.3591 91.944 30.7509C91.5125 30.6267 91.0769 30.7769 90.664 30.9043C90.2232 31.0653 89.7772 31.236 89.3829 31.5028C89.2043 31.6162 89.1476 31.8409 89.0753 32.031C88.5106 33.9603 88.0812 35.9318 87.5021 37.8568C87.3989 38.0793 87.3648 38.4444 87.0716 38.4704C86.1839 38.6594 85.2383 38.6994 84.365 38.4164C84.4569 37.2432 84.9493 36.1651 85.2445 35.0417C84.2153 35.7071 83.0179 36.0701 81.8112 36.1176C81.4808 36.7787 81.4065 37.7153 80.6726 38.0426C79.8168 38.4639 78.8403 38.4034 77.9195 38.4736C76.6457 38.5849 75.3718 38.4628 74.097 38.439C73.8461 38.4261 73.5323 38.4282 73.394 38.1647C73.0554 37.5954 72.6817 36.9505 72.8015 36.2505C72.946 35.2231 73.2649 34.2347 73.5106 33.2312C73.7037 32.4404 73.9679 31.6594 74.0257 30.8406C73.5788 31.3062 73.0482 31.7177 72.3947 31.7653C71.5803 33.9431 71.1539 36.258 70.3467 38.439C69.1761 38.6076 67.9725 38.6184 66.806 38.4174C66.8235 37.6278 67.063 36.8716 67.2571 36.1154C67.6556 34.5631 68.1263 33.0313 68.5041 31.4736C68.6311 30.967 68.7673 30.456 68.7622 29.9289C68.1903 29.9731 67.6514 30.2022 67.1528 30.4841C66.8101 30.6894 66.4488 30.941 66.3157 31.3537C65.8036 32.798 65.4847 34.306 65.0645 35.7806C64.8354 36.5681 64.6568 37.3761 64.3296 38.1279C64.2397 38.412 63.9208 38.4239 63.6833 38.4585C62.8183 38.5568 61.9336 38.5914 61.0748 38.4207C61.1821 37.3275 61.7282 36.3369 61.816 35.2394C60.921 35.5969 60.0394 36.1241 59.0495 36.0798C58.8358 36.7571 58.6376 37.4927 58.1142 37.9864C57.6311 38.4326 56.955 38.4931 56.3418 38.5287C55.2342 38.5503 54.1286 38.4617 53.022 38.4563C52.9074 38.7156 52.8042 38.9802 52.7268 39.2546C51.9237 41.9444 51.2165 44.6634 50.4496 47.3651C50.1574 48.319 49.9148 49.2901 49.5577 50.2213C48.3757 50.3855 47.1721 50.3606 45.9829 50.3012C46.1171 49.1907 46.4918 48.1332 46.7695 47.0573C48.1228 42.2804 49.664 37.5651 51.0338 32.7937C49.3368 34.6117 47.5313 36.3488 45.4802 37.7239C44.9331 38.0588 44.3344 38.4682 43.6696 38.3548C43.3176 38.2792 42.8603 38.1074 42.8696 37.6515C42.8675 36.8003 43.1968 36.002 43.429 35.2005C42.5702 35.6455 41.6597 36.1079 40.677 36.0776C40.422 36.8856 40.1454 37.8309 39.3474 38.223C38.4917 38.6022 37.5317 38.5006 36.6263 38.4736C35.9347 38.4736 35.2431 38.4131 34.5525 38.4488C34.3667 38.6162 34.3254 38.8927 34.2335 39.1196C33.0887 42.7914 32.2061 46.5463 31.0995 50.2299C30.2304 50.3682 29.3467 50.325 28.4714 50.3444C28.1121 50.3261 27.7395 50.3779 27.3916 50.271C27.372 49.8886 27.5268 49.5256 27.6115 49.1605C28.5643 45.8085 29.6574 42.5029 30.6815 39.1747C30.8652 38.5211 31.082 37.8773 31.2368 37.214C28.6458 38.0761 26.0249 38.9068 23.3151 39.2417C21.1267 39.5258 18.8392 39.5052 16.7468 38.7005C15.6804 38.2889 14.7132 37.6213 13.876 36.823C12.3007 35.0665 11.8114 32.6068 11.4729 30.3026C11.3686 29.7852 11.4233 29.2062 11.1673 28.7373C10.711 28.5094 10.1773 28.5688 9.68392 28.5526C8.78894 28.5645 7.89498 28.5181 7 28.5353V28.2934C7.13936 27.8397 7.29007 27.373 7.60904 27.0198C8.4039 27.0295 9.19875 26.996 9.9936 27.01C10.4984 26.9917 11.0445 27.0846 11.5028 26.8048C11.8249 26.6503 11.894 26.2571 12.0272 25.9525C12.8086 24.0426 13.7821 22.1975 15.091 20.6236C16.2647 19.1448 17.7636 17.9381 19.4616 17.1949C21.2568 16.3977 23.2429 16.2519 25.1701 16.3318C28.3299 16.6213 31.3256 18.0537 33.8351 20.0446C33.4676 20.5556 32.9814 20.9531 32.4879 21.3204C32.2784 21.4586 32.0575 21.6196 31.8005 21.6228C31.625 21.5785 31.4794 21.4597 31.3256 21.3679C30.4977 20.8051 29.578 20.414 28.7387 19.8707C26.766 18.6586 24.3309 18.1185 22.0991 18.785C20.8501 19.1253 19.8632 20.0835 19.0601 21.0978C17.938 22.5583 17.0833 24.2468 16.5733 26.0443C16.4123 26.4569 16.6982 26.983 17.1256 27.0079C22.0372 27.0208 26.9498 26.9927 31.8614 27.0219C31.5723 27.5415 31.274 28.059 30.9261 28.5397C26.3201 28.5289 21.7151 28.5386 17.1091 28.5343C16.689 28.4954 16.403 28.908 16.2244 29.2515C15.8817 30.1525 16.0489 31.1971 16.5011 32.0235C17.4673 33.9679 19.12 35.5397 21.0947 36.2904C23.6073 37.2735 26.4264 37.1449 28.9679 36.3434C29.9114 36.0647 30.8126 35.6466 31.6724 35.1573C31.9863 34.9963 31.9563 34.5772 32.0585 34.279C32.5798 32.3076 33.1765 30.3566 33.8309 28.4295C34.0106 27.9855 34.1117 27.4907 34.3977 27.1051C34.6671 26.9571 34.9871 27.0046 35.2813 26.9755C36.1071 26.9733 36.9422 26.9603 37.7567 27.1256C37.7629 27.7133 37.5368 28.262 37.3964 28.8216C36.6852 31.344 35.8666 33.8329 35.1863 36.3661C35.111 36.6372 35.0635 36.917 35.0449 37.2C35.5755 37.2583 36.1505 37.3836 36.6563 37.1427C36.8844 36.8014 36.9608 36.379 37.0971 35.9934C37.8764 33.3219 38.5288 30.6116 39.2091 27.912C39.335 27.4918 39.0316 27.1559 38.7404 26.9225C39.4052 26.5088 40.2156 26.5542 40.9619 26.5336C41.2871 26.5542 41.6649 26.4569 41.9405 26.6935C42.3224 26.9938 42.5454 27.5242 42.4257 28.0211C42.116 29.9721 41.5534 31.8668 41.1157 33.7886C41.0889 33.9431 41.0806 34.0997 41.0724 34.2574C41.3624 34.3568 41.667 34.4961 41.9766 34.4054C42.7126 34.2466 43.2339 33.6244 43.6902 33.0454C44.0722 32.596 44.1083 31.9684 44.2745 31.4174C44.6306 30.1125 44.9599 28.7957 45.4399 27.5329C45.5401 27.3406 45.5979 27.0306 45.8528 27.0176C46.7922 26.8361 47.7564 26.8804 48.706 26.9215C48.8454 26.9636 49.0653 26.916 49.1375 27.0802C49.0766 27.7651 48.8547 28.4208 48.6782 29.0798C48.3551 30.1924 48.0361 31.3073 47.7378 32.4286C47.6418 32.7753 47.5881 33.134 47.5736 33.4958C47.7915 33.3921 47.9989 33.2657 48.1889 33.1134C49.2604 32.26 50.2834 31.3418 51.3229 30.4452C51.5046 30.281 51.7203 30.1233 51.7977 29.8716C52.0816 29.0647 52.2509 28.2177 52.5688 27.4227C52.6349 27.2639 52.7226 27.0867 52.9023 27.0489C53.4514 26.8998 54.0243 26.902 54.589 26.8955C55.1671 26.8998 55.7544 26.8707 56.3212 27.0219C56.2757 27.3222 56.2179 27.6193 56.1333 27.9099C55.4324 30.3912 54.6117 32.8326 53.8747 35.302C53.6992 35.9264 53.4824 36.5432 53.4153 37.1935C53.9583 37.2778 54.524 37.3458 55.0566 37.1622C55.4251 36.3315 55.614 35.4316 55.8845 34.5642C56.4677 32.3551 57.0427 30.1417 57.5785 27.9196C57.724 27.5037 57.3968 27.1807 57.1356 26.9258C57.5341 26.6341 58.0306 26.5963 58.5003 26.5563C59.0113 26.5358 59.5284 26.5045 60.0384 26.5563C60.5958 26.7497 60.9519 27.4346 60.8116 28.0319C60.5401 29.6264 60.1251 31.1884 59.7401 32.7548C59.6224 33.2485 59.4551 33.7367 59.4459 34.2509C59.8133 34.4065 60.2283 34.5199 60.6082 34.3319C61.3659 34.0003 61.9367 33.3046 62.3527 32.5841C63.0537 30.5889 63.6627 28.5591 64.3141 26.5444C65.4372 22.9159 66.6202 19.3057 67.6628 15.6512C67.8001 15.5324 67.9952 15.5443 68.1624 15.5V15.5ZM101.073 29.1122C100.806 30.1028 100.225 31.0491 100.372 32.1164C100.41 32.2719 100.444 32.5247 100.644 32.5204C101.142 32.5765 101.642 32.5258 102.142 32.5182C102.429 31.7782 102.615 31.0015 102.815 30.2335C102.906 29.8025 103.066 29.3844 103.077 28.9394C102.662 28.746 102.198 28.8227 101.758 28.7946C101.51 28.8151 101.118 28.7611 101.073 29.1122Z" fill="#010101"/>
<path d="M47.6365 17.653C48.9954 17.1217 50.6966 18.0312 50.9344 19.4955C51.3035 20.9534 50.0609 22.5709 48.5474 22.4905C47.2024 22.6212 45.9609 21.3797 46.0025 20.0429C45.9524 19.0006 46.6617 17.9947 47.6365 17.653Z" fill="#010101"/>
</svg>
