<svg width="340" height="240" viewBox="0 0 340 240" fill="none" xmlns="http://www.w3.org/2000/svg">
<rect opacity="0.3" x="97" y="171" width="112" height="13" fill="#E64F3A"/>
<path d="M96.31 166.17C96.23 166.31 96.1433 166.413 96.05 166.48C95.9633 166.54 95.8533 166.57 95.72 166.57C95.58 166.57 95.4267 166.52 95.26 166.42C95.1 166.313 94.9067 166.197 94.68 166.07C94.4533 165.943 94.1867 165.83 93.88 165.73C93.58 165.623 93.2233 165.57 92.81 165.57C92.4367 165.57 92.11 165.617 91.83 165.71C91.55 165.797 91.3133 165.92 91.12 166.08C90.9333 166.24 90.7933 166.433 90.7 166.66C90.6067 166.88 90.56 167.123 90.56 167.39C90.56 167.73 90.6533 168.013 90.84 168.24C91.0333 168.467 91.2867 168.66 91.6 168.82C91.9133 168.98 92.27 169.123 92.67 169.25C93.07 169.377 93.48 169.513 93.9 169.66C94.32 169.8 94.73 169.967 95.13 170.16C95.53 170.347 95.8867 170.587 96.2 170.88C96.5133 171.167 96.7633 171.52 96.95 171.94C97.1433 172.36 97.24 172.87 97.24 173.47C97.24 174.123 97.1267 174.737 96.9 175.31C96.68 175.877 96.3533 176.373 95.92 176.8C95.4933 177.22 94.97 177.553 94.35 177.8C93.73 178.04 93.02 178.16 92.22 178.16C91.76 178.16 91.3067 178.113 90.86 178.02C90.4133 177.933 89.9833 177.807 89.57 177.64C89.1633 177.473 88.78 177.273 88.42 177.04C88.06 176.807 87.74 176.547 87.46 176.26L88.25 174.97C88.3167 174.877 88.4033 174.8 88.51 174.74C88.6167 174.673 88.73 174.64 88.85 174.64C89.0167 174.64 89.1967 174.71 89.39 174.85C89.5833 174.983 89.8133 175.133 90.08 175.3C90.3467 175.467 90.6567 175.62 91.01 175.76C91.37 175.893 91.8 175.96 92.3 175.96C93.0667 175.96 93.66 175.78 94.08 175.42C94.5 175.053 94.71 174.53 94.71 173.85C94.71 173.47 94.6133 173.16 94.42 172.92C94.2333 172.68 93.9833 172.48 93.67 172.32C93.3567 172.153 93 172.013 92.6 171.9C92.2 171.787 91.7933 171.663 91.38 171.53C90.9667 171.397 90.56 171.237 90.16 171.05C89.76 170.863 89.4033 170.62 89.09 170.32C88.7767 170.02 88.5233 169.647 88.33 169.2C88.1433 168.747 88.05 168.19 88.05 167.53C88.05 167.003 88.1533 166.49 88.36 165.99C88.5733 165.49 88.88 165.047 89.28 164.66C89.68 164.273 90.1733 163.963 90.76 163.73C91.3467 163.497 92.02 163.38 92.78 163.38C93.6333 163.38 94.42 163.513 95.14 163.78C95.86 164.047 96.4733 164.42 96.98 164.9L96.31 166.17ZM103.887 165.68V169.69H108.947V171.76H103.887V175.85H110.307V178H101.187V163.54H110.307V165.68H103.887ZM126.48 163.54V178H125.1C124.887 178 124.707 177.967 124.56 177.9C124.42 177.827 124.284 177.707 124.15 177.54L116.6 167.9C116.64 168.34 116.66 168.747 116.66 169.12V178H114.29V163.54H115.7C115.814 163.54 115.91 163.547 115.99 163.56C116.077 163.567 116.15 163.587 116.21 163.62C116.277 163.647 116.34 163.69 116.4 163.75C116.46 163.803 116.527 163.877 116.6 163.97L124.18 173.65C124.16 173.417 124.144 173.187 124.13 172.96C124.117 172.733 124.11 172.523 124.11 172.33V163.54H126.48ZM144.141 170.77C144.141 171.83 143.964 172.803 143.611 173.69C143.257 174.577 142.761 175.34 142.121 175.98C141.481 176.62 140.711 177.117 139.811 177.47C138.911 177.823 137.911 178 136.811 178H131.301V163.54H136.811C137.911 163.54 138.911 163.72 139.811 164.08C140.711 164.433 141.481 164.93 142.121 165.57C142.761 166.203 143.257 166.963 143.611 167.85C143.964 168.737 144.141 169.71 144.141 170.77ZM141.381 170.77C141.381 169.977 141.274 169.267 141.061 168.64C140.854 168.007 140.551 167.473 140.151 167.04C139.757 166.6 139.277 166.263 138.711 166.03C138.151 165.797 137.517 165.68 136.811 165.68H134.001V175.86H136.811C137.517 175.86 138.151 175.743 138.711 175.51C139.277 175.277 139.757 174.943 140.151 174.51C140.551 174.07 140.854 173.537 141.061 172.91C141.274 172.277 141.381 171.563 141.381 170.77ZM158.949 170.42C159.455 170.42 159.895 170.357 160.269 170.23C160.649 170.103 160.959 169.93 161.199 169.71C161.445 169.483 161.629 169.217 161.749 168.91C161.869 168.603 161.929 168.267 161.929 167.9C161.929 167.167 161.685 166.603 161.199 166.21C160.719 165.817 159.982 165.62 158.989 165.62H157.269V170.42H158.949ZM165.869 178H163.439C162.979 178 162.645 177.82 162.439 177.46L159.399 172.83C159.285 172.657 159.159 172.533 159.019 172.46C158.885 172.387 158.685 172.35 158.419 172.35H157.269V178H154.579V163.54H158.989C159.969 163.54 160.809 163.643 161.509 163.85C162.215 164.05 162.792 164.333 163.239 164.7C163.692 165.067 164.025 165.507 164.239 166.02C164.452 166.527 164.559 167.087 164.559 167.7C164.559 168.187 164.485 168.647 164.339 169.08C164.199 169.513 163.992 169.907 163.719 170.26C163.452 170.613 163.119 170.923 162.719 171.19C162.325 171.457 161.875 171.667 161.369 171.82C161.542 171.92 161.702 172.04 161.849 172.18C161.995 172.313 162.129 172.473 162.249 172.66L165.869 178ZM171.73 165.68V169.69H176.79V171.76H171.73V175.85H178.15V178H169.03V163.54H178.15V165.68H171.73ZM183.722 170.77C183.722 171.563 183.828 172.277 184.042 172.91C184.255 173.537 184.558 174.07 184.952 174.51C185.352 174.943 185.832 175.277 186.392 175.51C186.958 175.743 187.595 175.86 188.302 175.86C189.008 175.86 189.642 175.743 190.202 175.51C190.768 175.277 191.248 174.943 191.642 174.51C192.035 174.07 192.338 173.537 192.552 172.91C192.765 172.277 192.872 171.563 192.872 170.77C192.872 169.977 192.765 169.267 192.552 168.64C192.338 168.007 192.035 167.47 191.642 167.03C191.248 166.59 190.768 166.253 190.202 166.02C189.642 165.787 189.008 165.67 188.302 165.67C187.595 165.67 186.958 165.787 186.392 166.02C185.832 166.253 185.352 166.59 184.952 167.03C184.558 167.47 184.255 168.007 184.042 168.64C183.828 169.267 183.722 169.977 183.722 170.77ZM196.372 180.83H194.152C193.832 180.83 193.542 180.787 193.282 180.7C193.028 180.613 192.795 180.453 192.582 180.22L190.462 177.88C190.122 177.973 189.772 178.043 189.412 178.09C189.058 178.137 188.688 178.16 188.302 178.16C187.208 178.16 186.212 177.977 185.312 177.61C184.412 177.237 183.638 176.72 182.992 176.06C182.352 175.4 181.855 174.62 181.502 173.72C181.148 172.813 180.972 171.83 180.972 170.77C180.972 169.71 181.148 168.73 181.502 167.83C181.855 166.923 182.352 166.14 182.992 165.48C183.638 164.82 184.412 164.307 185.312 163.94C186.212 163.567 187.208 163.38 188.302 163.38C189.035 163.38 189.725 163.467 190.372 163.64C191.018 163.807 191.612 164.047 192.152 164.36C192.692 164.667 193.175 165.043 193.602 165.49C194.035 165.93 194.402 166.423 194.702 166.97C195.002 167.517 195.228 168.11 195.382 168.75C195.542 169.39 195.622 170.063 195.622 170.77C195.622 171.417 195.555 172.037 195.422 172.63C195.288 173.217 195.095 173.767 194.842 174.28C194.595 174.793 194.292 175.267 193.932 175.7C193.572 176.127 193.162 176.503 192.702 176.83L196.372 180.83ZM205.394 175.83C205.914 175.83 206.377 175.743 206.784 175.57C207.197 175.397 207.544 175.153 207.824 174.84C208.104 174.527 208.317 174.147 208.464 173.7C208.617 173.253 208.694 172.753 208.694 172.2V163.54H211.384V172.2C211.384 173.06 211.244 173.857 210.964 174.59C210.691 175.317 210.294 175.947 209.774 176.48C209.261 177.007 208.634 177.42 207.894 177.72C207.154 178.013 206.321 178.16 205.394 178.16C204.461 178.16 203.624 178.013 202.884 177.72C202.144 177.42 201.514 177.007 200.994 176.48C200.481 175.947 200.084 175.317 199.804 174.59C199.531 173.857 199.394 173.06 199.394 172.2V163.54H202.084V172.19C202.084 172.743 202.157 173.243 202.304 173.69C202.457 174.137 202.674 174.52 202.954 174.84C203.241 175.153 203.587 175.397 203.994 175.57C204.407 175.743 204.874 175.83 205.394 175.83ZM218.718 165.68V169.69H223.778V171.76H218.718V175.85H225.138V178H216.018V163.54H225.138V165.68H218.718ZM236.822 166.17C236.742 166.31 236.655 166.413 236.562 166.48C236.475 166.54 236.365 166.57 236.232 166.57C236.092 166.57 235.938 166.52 235.772 166.42C235.612 166.313 235.418 166.197 235.192 166.07C234.965 165.943 234.698 165.83 234.392 165.73C234.092 165.623 233.735 165.57 233.322 165.57C232.948 165.57 232.622 165.617 232.342 165.71C232.062 165.797 231.825 165.92 231.632 166.08C231.445 166.24 231.305 166.433 231.212 166.66C231.118 166.88 231.072 167.123 231.072 167.39C231.072 167.73 231.165 168.013 231.352 168.24C231.545 168.467 231.798 168.66 232.112 168.82C232.425 168.98 232.782 169.123 233.182 169.25C233.582 169.377 233.992 169.513 234.412 169.66C234.832 169.8 235.242 169.967 235.642 170.16C236.042 170.347 236.398 170.587 236.712 170.88C237.025 171.167 237.275 171.52 237.462 171.94C237.655 172.36 237.752 172.87 237.752 173.47C237.752 174.123 237.638 174.737 237.412 175.31C237.192 175.877 236.865 176.373 236.432 176.8C236.005 177.22 235.482 177.553 234.862 177.8C234.242 178.04 233.532 178.16 232.732 178.16C232.272 178.16 231.818 178.113 231.372 178.02C230.925 177.933 230.495 177.807 230.082 177.64C229.675 177.473 229.292 177.273 228.932 177.04C228.572 176.807 228.252 176.547 227.972 176.26L228.762 174.97C228.828 174.877 228.915 174.8 229.022 174.74C229.128 174.673 229.242 174.64 229.362 174.64C229.528 174.64 229.708 174.71 229.902 174.85C230.095 174.983 230.325 175.133 230.592 175.3C230.858 175.467 231.168 175.62 231.522 175.76C231.882 175.893 232.312 175.96 232.812 175.96C233.578 175.96 234.172 175.78 234.592 175.42C235.012 175.053 235.222 174.53 235.222 173.85C235.222 173.47 235.125 173.16 234.932 172.92C234.745 172.68 234.495 172.48 234.182 172.32C233.868 172.153 233.512 172.013 233.112 171.9C232.712 171.787 232.305 171.663 231.892 171.53C231.478 171.397 231.072 171.237 230.672 171.05C230.272 170.863 229.915 170.62 229.602 170.32C229.288 170.02 229.035 169.647 228.842 169.2C228.655 168.747 228.562 168.19 228.562 167.53C228.562 167.003 228.665 166.49 228.872 165.99C229.085 165.49 229.392 165.047 229.792 164.66C230.192 164.273 230.685 163.963 231.272 163.73C231.858 163.497 232.532 163.38 233.292 163.38C234.145 163.38 234.932 163.513 235.652 163.78C236.372 164.047 236.985 164.42 237.492 164.9L236.822 166.17ZM251.798 165.75H247.438V178H244.748V165.75H240.388V163.54H251.798V165.75Z" fill="#E64F3A"/>
<rect x="20.5" y="130.5" width="299" height="87" stroke="#E64F3A"/>
<rect opacity="0.3" x="97" y="64" width="112" height="13" fill="#F1897B"/>
<path d="M96.31 59.17C96.23 59.31 96.1433 59.4133 96.05 59.48C95.9633 59.54 95.8533 59.57 95.72 59.57C95.58 59.57 95.4267 59.52 95.26 59.42C95.1 59.3133 94.9067 59.1967 94.68 59.07C94.4533 58.9433 94.1867 58.83 93.88 58.73C93.58 58.6233 93.2233 58.57 92.81 58.57C92.4367 58.57 92.11 58.6167 91.83 58.71C91.55 58.7967 91.3133 58.92 91.12 59.08C90.9333 59.24 90.7933 59.4333 90.7 59.66C90.6067 59.88 90.56 60.1233 90.56 60.39C90.56 60.73 90.6533 61.0133 90.84 61.24C91.0333 61.4667 91.2867 61.66 91.6 61.82C91.9133 61.98 92.27 62.1233 92.67 62.25C93.07 62.3767 93.48 62.5133 93.9 62.66C94.32 62.8 94.73 62.9667 95.13 63.16C95.53 63.3467 95.8867 63.5867 96.2 63.88C96.5133 64.1667 96.7633 64.52 96.95 64.94C97.1433 65.36 97.24 65.87 97.24 66.47C97.24 67.1233 97.1267 67.7367 96.9 68.31C96.68 68.8767 96.3533 69.3733 95.92 69.8C95.4933 70.22 94.97 70.5533 94.35 70.8C93.73 71.04 93.02 71.16 92.22 71.16C91.76 71.16 91.3067 71.1133 90.86 71.02C90.4133 70.9333 89.9833 70.8067 89.57 70.64C89.1633 70.4733 88.78 70.2733 88.42 70.04C88.06 69.8067 87.74 69.5467 87.46 69.26L88.25 67.97C88.3167 67.8767 88.4033 67.8 88.51 67.74C88.6167 67.6733 88.73 67.64 88.85 67.64C89.0167 67.64 89.1967 67.71 89.39 67.85C89.5833 67.9833 89.8133 68.1333 90.08 68.3C90.3467 68.4667 90.6567 68.62 91.01 68.76C91.37 68.8933 91.8 68.96 92.3 68.96C93.0667 68.96 93.66 68.78 94.08 68.42C94.5 68.0533 94.71 67.53 94.71 66.85C94.71 66.47 94.6133 66.16 94.42 65.92C94.2333 65.68 93.9833 65.48 93.67 65.32C93.3567 65.1533 93 65.0133 92.6 64.9C92.2 64.7867 91.7933 64.6633 91.38 64.53C90.9667 64.3967 90.56 64.2367 90.16 64.05C89.76 63.8633 89.4033 63.62 89.09 63.32C88.7767 63.02 88.5233 62.6467 88.33 62.2C88.1433 61.7467 88.05 61.19 88.05 60.53C88.05 60.0033 88.1533 59.49 88.36 58.99C88.5733 58.49 88.88 58.0467 89.28 57.66C89.68 57.2733 90.1733 56.9633 90.76 56.73C91.3467 56.4967 92.02 56.38 92.78 56.38C93.6333 56.38 94.42 56.5133 95.14 56.78C95.86 57.0467 96.4733 57.42 96.98 57.9L96.31 59.17ZM103.887 58.68V62.69H108.947V64.76H103.887V68.85H110.307V71H101.187V56.54H110.307V58.68H103.887ZM126.48 56.54V71H125.1C124.887 71 124.707 70.9667 124.56 70.9C124.42 70.8267 124.284 70.7067 124.15 70.54L116.6 60.9C116.64 61.34 116.66 61.7467 116.66 62.12V71H114.29V56.54H115.7C115.814 56.54 115.91 56.5467 115.99 56.56C116.077 56.5667 116.15 56.5867 116.21 56.62C116.277 56.6467 116.34 56.69 116.4 56.75C116.46 56.8033 116.527 56.8767 116.6 56.97L124.18 66.65C124.16 66.4167 124.144 66.1867 124.13 65.96C124.117 65.7333 124.11 65.5233 124.11 65.33V56.54H126.48ZM144.141 63.77C144.141 64.83 143.964 65.8033 143.611 66.69C143.257 67.5767 142.761 68.34 142.121 68.98C141.481 69.62 140.711 70.1167 139.811 70.47C138.911 70.8233 137.911 71 136.811 71H131.301V56.54H136.811C137.911 56.54 138.911 56.72 139.811 57.08C140.711 57.4333 141.481 57.93 142.121 58.57C142.761 59.2033 143.257 59.9633 143.611 60.85C143.964 61.7367 144.141 62.71 144.141 63.77ZM141.381 63.77C141.381 62.9767 141.274 62.2667 141.061 61.64C140.854 61.0067 140.551 60.4733 140.151 60.04C139.757 59.6 139.277 59.2633 138.711 59.03C138.151 58.7967 137.517 58.68 136.811 58.68H134.001V68.86H136.811C137.517 68.86 138.151 68.7433 138.711 68.51C139.277 68.2767 139.757 67.9433 140.151 67.51C140.551 67.07 140.854 66.5367 141.061 65.91C141.274 65.2767 141.381 64.5633 141.381 63.77ZM158.949 63.42C159.455 63.42 159.895 63.3567 160.269 63.23C160.649 63.1033 160.959 62.93 161.199 62.71C161.445 62.4833 161.629 62.2167 161.749 61.91C161.869 61.6033 161.929 61.2667 161.929 60.9C161.929 60.1667 161.685 59.6033 161.199 59.21C160.719 58.8167 159.982 58.62 158.989 58.62H157.269V63.42H158.949ZM165.869 71H163.439C162.979 71 162.645 70.82 162.439 70.46L159.399 65.83C159.285 65.6567 159.159 65.5333 159.019 65.46C158.885 65.3867 158.685 65.35 158.419 65.35H157.269V71H154.579V56.54H158.989C159.969 56.54 160.809 56.6433 161.509 56.85C162.215 57.05 162.792 57.3333 163.239 57.7C163.692 58.0667 164.025 58.5067 164.239 59.02C164.452 59.5267 164.559 60.0867 164.559 60.7C164.559 61.1867 164.485 61.6467 164.339 62.08C164.199 62.5133 163.992 62.9067 163.719 63.26C163.452 63.6133 163.119 63.9233 162.719 64.19C162.325 64.4567 161.875 64.6667 161.369 64.82C161.542 64.92 161.702 65.04 161.849 65.18C161.995 65.3133 162.129 65.4733 162.249 65.66L165.869 71ZM171.73 58.68V62.69H176.79V64.76H171.73V68.85H178.15V71H169.03V56.54H178.15V58.68H171.73ZM183.722 63.77C183.722 64.5633 183.828 65.2767 184.042 65.91C184.255 66.5367 184.558 67.07 184.952 67.51C185.352 67.9433 185.832 68.2767 186.392 68.51C186.958 68.7433 187.595 68.86 188.302 68.86C189.008 68.86 189.642 68.7433 190.202 68.51C190.768 68.2767 191.248 67.9433 191.642 67.51C192.035 67.07 192.338 66.5367 192.552 65.91C192.765 65.2767 192.872 64.5633 192.872 63.77C192.872 62.9767 192.765 62.2667 192.552 61.64C192.338 61.0067 192.035 60.47 191.642 60.03C191.248 59.59 190.768 59.2533 190.202 59.02C189.642 58.7867 189.008 58.67 188.302 58.67C187.595 58.67 186.958 58.7867 186.392 59.02C185.832 59.2533 185.352 59.59 184.952 60.03C184.558 60.47 184.255 61.0067 184.042 61.64C183.828 62.2667 183.722 62.9767 183.722 63.77ZM196.372 73.83H194.152C193.832 73.83 193.542 73.7867 193.282 73.7C193.028 73.6133 192.795 73.4533 192.582 73.22L190.462 70.88C190.122 70.9733 189.772 71.0433 189.412 71.09C189.058 71.1367 188.688 71.16 188.302 71.16C187.208 71.16 186.212 70.9767 185.312 70.61C184.412 70.2367 183.638 69.72 182.992 69.06C182.352 68.4 181.855 67.62 181.502 66.72C181.148 65.8133 180.972 64.83 180.972 63.77C180.972 62.71 181.148 61.73 181.502 60.83C181.855 59.9233 182.352 59.14 182.992 58.48C183.638 57.82 184.412 57.3067 185.312 56.94C186.212 56.5667 187.208 56.38 188.302 56.38C189.035 56.38 189.725 56.4667 190.372 56.64C191.018 56.8067 191.612 57.0467 192.152 57.36C192.692 57.6667 193.175 58.0433 193.602 58.49C194.035 58.93 194.402 59.4233 194.702 59.97C195.002 60.5167 195.228 61.11 195.382 61.75C195.542 62.39 195.622 63.0633 195.622 63.77C195.622 64.4167 195.555 65.0367 195.422 65.63C195.288 66.2167 195.095 66.7667 194.842 67.28C194.595 67.7933 194.292 68.2667 193.932 68.7C193.572 69.1267 193.162 69.5033 192.702 69.83L196.372 73.83ZM205.394 68.83C205.914 68.83 206.377 68.7433 206.784 68.57C207.197 68.3967 207.544 68.1533 207.824 67.84C208.104 67.5267 208.317 67.1467 208.464 66.7C208.617 66.2533 208.694 65.7533 208.694 65.2V56.54H211.384V65.2C211.384 66.06 211.244 66.8567 210.964 67.59C210.691 68.3167 210.294 68.9467 209.774 69.48C209.261 70.0067 208.634 70.42 207.894 70.72C207.154 71.0133 206.321 71.16 205.394 71.16C204.461 71.16 203.624 71.0133 202.884 70.72C202.144 70.42 201.514 70.0067 200.994 69.48C200.481 68.9467 200.084 68.3167 199.804 67.59C199.531 66.8567 199.394 66.06 199.394 65.2V56.54H202.084V65.19C202.084 65.7433 202.157 66.2433 202.304 66.69C202.457 67.1367 202.674 67.52 202.954 67.84C203.241 68.1533 203.587 68.3967 203.994 68.57C204.407 68.7433 204.874 68.83 205.394 68.83ZM218.718 58.68V62.69H223.778V64.76H218.718V68.85H225.138V71H216.018V56.54H225.138V58.68H218.718ZM236.822 59.17C236.742 59.31 236.655 59.4133 236.562 59.48C236.475 59.54 236.365 59.57 236.232 59.57C236.092 59.57 235.938 59.52 235.772 59.42C235.612 59.3133 235.418 59.1967 235.192 59.07C234.965 58.9433 234.698 58.83 234.392 58.73C234.092 58.6233 233.735 58.57 233.322 58.57C232.948 58.57 232.622 58.6167 232.342 58.71C232.062 58.7967 231.825 58.92 231.632 59.08C231.445 59.24 231.305 59.4333 231.212 59.66C231.118 59.88 231.072 60.1233 231.072 60.39C231.072 60.73 231.165 61.0133 231.352 61.24C231.545 61.4667 231.798 61.66 232.112 61.82C232.425 61.98 232.782 62.1233 233.182 62.25C233.582 62.3767 233.992 62.5133 234.412 62.66C234.832 62.8 235.242 62.9667 235.642 63.16C236.042 63.3467 236.398 63.5867 236.712 63.88C237.025 64.1667 237.275 64.52 237.462 64.94C237.655 65.36 237.752 65.87 237.752 66.47C237.752 67.1233 237.638 67.7367 237.412 68.31C237.192 68.8767 236.865 69.3733 236.432 69.8C236.005 70.22 235.482 70.5533 234.862 70.8C234.242 71.04 233.532 71.16 232.732 71.16C232.272 71.16 231.818 71.1133 231.372 71.02C230.925 70.9333 230.495 70.8067 230.082 70.64C229.675 70.4733 229.292 70.2733 228.932 70.04C228.572 69.8067 228.252 69.5467 227.972 69.26L228.762 67.97C228.828 67.8767 228.915 67.8 229.022 67.74C229.128 67.6733 229.242 67.64 229.362 67.64C229.528 67.64 229.708 67.71 229.902 67.85C230.095 67.9833 230.325 68.1333 230.592 68.3C230.858 68.4667 231.168 68.62 231.522 68.76C231.882 68.8933 232.312 68.96 232.812 68.96C233.578 68.96 234.172 68.78 234.592 68.42C235.012 68.0533 235.222 67.53 235.222 66.85C235.222 66.47 235.125 66.16 234.932 65.92C234.745 65.68 234.495 65.48 234.182 65.32C233.868 65.1533 233.512 65.0133 233.112 64.9C232.712 64.7867 232.305 64.6633 231.892 64.53C231.478 64.3967 231.072 64.2367 230.672 64.05C230.272 63.8633 229.915 63.62 229.602 63.32C229.288 63.02 229.035 62.6467 228.842 62.2C228.655 61.7467 228.562 61.19 228.562 60.53C228.562 60.0033 228.665 59.49 228.872 58.99C229.085 58.49 229.392 58.0467 229.792 57.66C230.192 57.2733 230.685 56.9633 231.272 56.73C231.858 56.4967 232.532 56.38 233.292 56.38C234.145 56.38 234.932 56.5133 235.652 56.78C236.372 57.0467 236.985 57.42 237.492 57.9L236.822 59.17ZM251.798 58.75H247.438V71H244.748V58.75H240.388V56.54H251.798V58.75Z" fill="#F1897B"/>
<rect x="20.5" y="20.5" width="299" height="89" stroke="#E4E4E4"/>
<rect x="0.5" y="0.5" width="339" height="239" rx="4.5" stroke="#9747FF" stroke-dasharray="10 5"/>
</svg>
