<svg width="340" height="240" viewBox="0 0 340 240" fill="none" xmlns="http://www.w3.org/2000/svg">
<rect opacity="0.3" x="89.543" y="173.546" width="170" height="14" fill="#E64F3A"/>
<path d="M91.997 177.044C92.1437 177.044 92.2737 177.101 92.387 177.214L93.447 178.364C92.8604 179.091 92.137 179.647 91.277 180.034C90.4237 180.421 89.397 180.614 88.197 180.614C87.1237 180.614 86.157 180.431 85.297 180.064C84.4437 179.697 83.7137 179.187 83.107 178.534C82.5004 177.881 82.0337 177.101 81.707 176.194C81.387 175.287 81.227 174.297 81.227 173.224C81.227 172.137 81.4004 171.144 81.747 170.244C82.0937 169.337 82.5804 168.557 83.207 167.904C83.8404 167.251 84.5937 166.744 85.467 166.384C86.3404 166.017 87.307 165.834 88.367 165.834C89.4204 165.834 90.3537 166.007 91.167 166.354C91.987 166.701 92.6837 167.154 93.257 167.714L92.357 168.964C92.3037 169.044 92.2337 169.114 92.147 169.174C92.067 169.234 91.9537 169.264 91.807 169.264C91.707 169.264 91.6037 169.237 91.497 169.184C91.3904 169.124 91.2737 169.054 91.147 168.974C91.0204 168.887 90.8737 168.794 90.707 168.694C90.5404 168.594 90.347 168.504 90.127 168.424C89.907 168.337 89.6504 168.267 89.357 168.214C89.0704 168.154 88.737 168.124 88.357 168.124C87.7104 168.124 87.117 168.241 86.577 168.474C86.0437 168.701 85.5837 169.034 85.197 169.474C84.8104 169.907 84.5104 170.441 84.297 171.074C84.0837 171.701 83.977 172.417 83.977 173.224C83.977 174.037 84.0904 174.761 84.317 175.394C84.5504 176.027 84.8637 176.561 85.257 176.994C85.6504 177.427 86.1137 177.761 86.647 177.994C87.1804 178.221 87.7537 178.334 88.367 178.334C88.7337 178.334 89.0637 178.314 89.357 178.274C89.657 178.234 89.9304 178.171 90.177 178.084C90.4304 177.997 90.667 177.887 90.887 177.754C91.1137 177.614 91.337 177.444 91.557 177.244C91.6237 177.184 91.6937 177.137 91.767 177.104C91.8404 177.064 91.917 177.044 91.997 177.044ZM110.367 173.224C110.367 174.284 110.191 175.267 109.837 176.174C109.491 177.074 108.997 177.854 108.357 178.514C107.717 179.174 106.947 179.691 106.047 180.064C105.147 180.431 104.147 180.614 103.047 180.614C101.954 180.614 100.957 180.431 100.057 180.064C99.1572 179.691 98.3839 179.174 97.7372 178.514C97.0972 177.854 96.6005 177.074 96.2472 176.174C95.8939 175.267 95.7172 174.284 95.7172 173.224C95.7172 172.164 95.8939 171.184 96.2472 170.284C96.6005 169.377 97.0972 168.594 97.7372 167.934C98.3839 167.274 99.1572 166.761 100.057 166.394C100.957 166.021 101.954 165.834 103.047 165.834C103.781 165.834 104.471 165.921 105.117 166.094C105.764 166.261 106.357 166.501 106.897 166.814C107.437 167.121 107.921 167.497 108.347 167.944C108.781 168.384 109.147 168.877 109.447 169.424C109.747 169.971 109.974 170.564 110.127 171.204C110.287 171.844 110.367 172.517 110.367 173.224ZM107.617 173.224C107.617 172.431 107.511 171.721 107.297 171.094C107.084 170.461 106.781 169.924 106.387 169.484C105.994 169.044 105.514 168.707 104.947 168.474C104.387 168.241 103.754 168.124 103.047 168.124C102.341 168.124 101.704 168.241 101.137 168.474C100.577 168.707 100.097 169.044 99.6972 169.484C99.3039 169.924 99.0005 170.461 98.7872 171.094C98.5739 171.721 98.4672 172.431 98.4672 173.224C98.4672 174.017 98.5739 174.731 98.7872 175.364C99.0005 175.991 99.3039 176.524 99.6972 176.964C100.097 177.397 100.577 177.731 101.137 177.964C101.704 178.197 102.341 178.314 103.047 178.314C103.754 178.314 104.387 178.197 104.947 177.964C105.514 177.731 105.994 177.397 106.387 176.964C106.781 176.524 107.084 175.991 107.297 175.364C107.511 174.731 107.617 174.017 107.617 173.224ZM126.52 165.994V180.454H125.14C124.926 180.454 124.746 180.421 124.6 180.354C124.46 180.281 124.323 180.161 124.19 179.994L116.64 170.354C116.68 170.794 116.7 171.201 116.7 171.574V180.454H114.33V165.994H115.74C115.853 165.994 115.95 166.001 116.03 166.014C116.116 166.021 116.19 166.041 116.25 166.074C116.316 166.101 116.38 166.144 116.44 166.204C116.5 166.257 116.566 166.331 116.64 166.424L124.22 176.104C124.2 175.871 124.183 175.641 124.17 175.414C124.156 175.187 124.15 174.977 124.15 174.784V165.994H126.52ZM141.44 168.204H137.08V180.454H134.39V168.204H130.03V165.994H141.44V168.204ZM151.166 174.994L149.406 170.184C149.319 169.971 149.229 169.717 149.136 169.424C149.042 169.131 148.949 168.814 148.856 168.474C148.769 168.814 148.679 169.134 148.586 169.434C148.492 169.727 148.402 169.984 148.316 170.204L146.566 174.994H151.166ZM155.916 180.454H153.836C153.602 180.454 153.412 180.397 153.266 180.284C153.119 180.164 153.009 180.017 152.936 179.844L151.856 176.894H145.866L144.786 179.844C144.732 179.997 144.629 180.137 144.476 180.264C144.322 180.391 144.132 180.454 143.906 180.454H141.806L147.496 165.994H150.236L155.916 180.454ZM168.513 177.044C168.659 177.044 168.789 177.101 168.903 177.214L169.963 178.364C169.376 179.091 168.653 179.647 167.793 180.034C166.939 180.421 165.913 180.614 164.713 180.614C163.639 180.614 162.673 180.431 161.813 180.064C160.959 179.697 160.229 179.187 159.623 178.534C159.016 177.881 158.549 177.101 158.223 176.194C157.903 175.287 157.743 174.297 157.743 173.224C157.743 172.137 157.916 171.144 158.263 170.244C158.609 169.337 159.096 168.557 159.723 167.904C160.356 167.251 161.109 166.744 161.983 166.384C162.856 166.017 163.823 165.834 164.883 165.834C165.936 165.834 166.869 166.007 167.683 166.354C168.503 166.701 169.199 167.154 169.773 167.714L168.873 168.964C168.819 169.044 168.749 169.114 168.663 169.174C168.583 169.234 168.469 169.264 168.323 169.264C168.223 169.264 168.119 169.237 168.013 169.184C167.906 169.124 167.789 169.054 167.663 168.974C167.536 168.887 167.389 168.794 167.223 168.694C167.056 168.594 166.863 168.504 166.643 168.424C166.423 168.337 166.166 168.267 165.873 168.214C165.586 168.154 165.253 168.124 164.873 168.124C164.226 168.124 163.633 168.241 163.093 168.474C162.559 168.701 162.099 169.034 161.713 169.474C161.326 169.907 161.026 170.441 160.813 171.074C160.599 171.701 160.493 172.417 160.493 173.224C160.493 174.037 160.606 174.761 160.833 175.394C161.066 176.027 161.379 176.561 161.773 176.994C162.166 177.427 162.629 177.761 163.163 177.994C163.696 178.221 164.269 178.334 164.883 178.334C165.249 178.334 165.579 178.314 165.873 178.274C166.173 178.234 166.446 178.171 166.693 178.084C166.946 177.997 167.183 177.887 167.403 177.754C167.629 177.614 167.853 177.444 168.073 177.244C168.139 177.184 168.209 177.137 168.283 177.104C168.356 177.064 168.433 177.044 168.513 177.044ZM183.505 168.204H179.145V180.454H176.455V168.204H172.095V165.994H183.505V168.204ZM200.555 168.624C200.475 168.764 200.389 168.867 200.295 168.934C200.209 168.994 200.099 169.024 199.965 169.024C199.825 169.024 199.672 168.974 199.505 168.874C199.345 168.767 199.152 168.651 198.925 168.524C198.699 168.397 198.432 168.284 198.125 168.184C197.825 168.077 197.469 168.024 197.055 168.024C196.682 168.024 196.355 168.071 196.075 168.164C195.795 168.251 195.559 168.374 195.365 168.534C195.179 168.694 195.039 168.887 194.945 169.114C194.852 169.334 194.805 169.577 194.805 169.844C194.805 170.184 194.899 170.467 195.085 170.694C195.279 170.921 195.532 171.114 195.845 171.274C196.159 171.434 196.515 171.577 196.915 171.704C197.315 171.831 197.725 171.967 198.145 172.114C198.565 172.254 198.975 172.421 199.375 172.614C199.775 172.801 200.132 173.041 200.445 173.334C200.759 173.621 201.009 173.974 201.195 174.394C201.389 174.814 201.485 175.324 201.485 175.924C201.485 176.577 201.372 177.191 201.145 177.764C200.925 178.331 200.599 178.827 200.165 179.254C199.739 179.674 199.215 180.007 198.595 180.254C197.975 180.494 197.265 180.614 196.465 180.614C196.005 180.614 195.552 180.567 195.105 180.474C194.659 180.387 194.229 180.261 193.815 180.094C193.409 179.927 193.025 179.727 192.665 179.494C192.305 179.261 191.985 179.001 191.705 178.714L192.495 177.424C192.562 177.331 192.649 177.254 192.755 177.194C192.862 177.127 192.975 177.094 193.095 177.094C193.262 177.094 193.442 177.164 193.635 177.304C193.829 177.437 194.059 177.587 194.325 177.754C194.592 177.921 194.902 178.074 195.255 178.214C195.615 178.347 196.045 178.414 196.545 178.414C197.312 178.414 197.905 178.234 198.325 177.874C198.745 177.507 198.955 176.984 198.955 176.304C198.955 175.924 198.859 175.614 198.665 175.374C198.479 175.134 198.229 174.934 197.915 174.774C197.602 174.607 197.245 174.467 196.845 174.354C196.445 174.241 196.039 174.117 195.625 173.984C195.212 173.851 194.805 173.691 194.405 173.504C194.005 173.317 193.649 173.074 193.335 172.774C193.022 172.474 192.769 172.101 192.575 171.654C192.389 171.201 192.295 170.644 192.295 169.984C192.295 169.457 192.399 168.944 192.605 168.444C192.819 167.944 193.125 167.501 193.525 167.114C193.925 166.727 194.419 166.417 195.005 166.184C195.592 165.951 196.265 165.834 197.025 165.834C197.879 165.834 198.665 165.967 199.385 166.234C200.105 166.501 200.719 166.874 201.225 167.354L200.555 168.624ZM212.779 174.994L211.019 170.184C210.932 169.971 210.842 169.717 210.749 169.424C210.656 169.131 210.562 168.814 210.469 168.474C210.382 168.814 210.292 169.134 210.199 169.434C210.106 169.727 210.016 169.984 209.929 170.204L208.179 174.994H212.779ZM217.529 180.454H215.449C215.216 180.454 215.026 180.397 214.879 180.284C214.732 180.164 214.622 180.017 214.549 179.844L213.469 176.894H207.479L206.399 179.844C206.346 179.997 206.242 180.137 206.089 180.264C205.936 180.391 205.746 180.454 205.519 180.454H203.419L209.109 165.994H211.849L217.529 180.454ZM229.096 178.234V180.454H220.626V165.994H223.316V178.234H229.096ZM235.316 168.134V172.144H240.376V174.214H235.316V178.304H241.736V180.454H232.616V165.994H241.736V168.134H235.316ZM253.42 168.624C253.34 168.764 253.253 168.867 253.16 168.934C253.073 168.994 252.963 169.024 252.83 169.024C252.69 169.024 252.537 168.974 252.37 168.874C252.21 168.767 252.017 168.651 251.79 168.524C251.563 168.397 251.297 168.284 250.99 168.184C250.69 168.077 250.333 168.024 249.92 168.024C249.547 168.024 249.22 168.071 248.94 168.164C248.66 168.251 248.423 168.374 248.23 168.534C248.043 168.694 247.903 168.887 247.81 169.114C247.717 169.334 247.67 169.577 247.67 169.844C247.67 170.184 247.763 170.467 247.95 170.694C248.143 170.921 248.397 171.114 248.71 171.274C249.023 171.434 249.38 171.577 249.78 171.704C250.18 171.831 250.59 171.967 251.01 172.114C251.43 172.254 251.84 172.421 252.24 172.614C252.64 172.801 252.997 173.041 253.31 173.334C253.623 173.621 253.873 173.974 254.06 174.394C254.253 174.814 254.35 175.324 254.35 175.924C254.35 176.577 254.237 177.191 254.01 177.764C253.79 178.331 253.463 178.827 253.03 179.254C252.603 179.674 252.08 180.007 251.46 180.254C250.84 180.494 250.13 180.614 249.33 180.614C248.87 180.614 248.417 180.567 247.97 180.474C247.523 180.387 247.093 180.261 246.68 180.094C246.273 179.927 245.89 179.727 245.53 179.494C245.17 179.261 244.85 179.001 244.57 178.714L245.36 177.424C245.427 177.331 245.513 177.254 245.62 177.194C245.727 177.127 245.84 177.094 245.96 177.094C246.127 177.094 246.307 177.164 246.5 177.304C246.693 177.437 246.923 177.587 247.19 177.754C247.457 177.921 247.767 178.074 248.12 178.214C248.48 178.347 248.91 178.414 249.41 178.414C250.177 178.414 250.77 178.234 251.19 177.874C251.61 177.507 251.82 176.984 251.82 176.304C251.82 175.924 251.723 175.614 251.53 175.374C251.343 175.134 251.093 174.934 250.78 174.774C250.467 174.607 250.11 174.467 249.71 174.354C249.31 174.241 248.903 174.117 248.49 173.984C248.077 173.851 247.67 173.691 247.27 173.504C246.87 173.317 246.513 173.074 246.2 172.774C245.887 172.474 245.633 172.101 245.44 171.654C245.253 171.201 245.16 170.644 245.16 169.984C245.16 169.457 245.263 168.944 245.47 168.444C245.683 167.944 245.99 167.501 246.39 167.114C246.79 166.727 247.283 166.417 247.87 166.184C248.457 165.951 249.13 165.834 249.89 165.834C250.743 165.834 251.53 165.967 252.25 166.234C252.97 166.501 253.583 166.874 254.09 167.354L253.42 168.624Z" fill="#E64F3A"/>
<rect x="20.5" y="130.5" width="299" height="89" stroke="#E64F3A"/>
<rect opacity="0.3" x="92.001" y="64.0356" width="167" height="13" fill="#F1897B"/>
<path d="M92.539 67.5544C92.6857 67.5544 92.8157 67.611 92.929 67.7244L93.989 68.8744C93.4024 69.601 92.679 70.1577 91.819 70.5444C90.9657 70.931 89.939 71.1244 88.739 71.1244C87.6657 71.1244 86.699 70.941 85.839 70.5744C84.9857 70.2077 84.2557 69.6977 83.649 69.0444C83.0424 68.391 82.5757 67.611 82.249 66.7044C81.929 65.7977 81.769 64.8077 81.769 63.7344C81.769 62.6477 81.9424 61.6544 82.289 60.7544C82.6357 59.8477 83.1224 59.0677 83.749 58.4144C84.3824 57.761 85.1357 57.2544 86.009 56.8944C86.8824 56.5277 87.849 56.3444 88.909 56.3444C89.9624 56.3444 90.8957 56.5177 91.709 56.8644C92.529 57.211 93.2257 57.6644 93.799 58.2244L92.899 59.4744C92.8457 59.5544 92.7757 59.6244 92.689 59.6844C92.609 59.7444 92.4957 59.7744 92.349 59.7744C92.249 59.7744 92.1457 59.7477 92.039 59.6944C91.9324 59.6344 91.8157 59.5644 91.689 59.4844C91.5624 59.3977 91.4157 59.3044 91.249 59.2044C91.0824 59.1044 90.889 59.0144 90.669 58.9344C90.449 58.8477 90.1924 58.7777 89.899 58.7244C89.6124 58.6644 89.279 58.6344 88.899 58.6344C88.2524 58.6344 87.659 58.751 87.119 58.9844C86.5857 59.211 86.1257 59.5444 85.739 59.9844C85.3524 60.4177 85.0524 60.951 84.839 61.5844C84.6257 62.211 84.519 62.9277 84.519 63.7344C84.519 64.5477 84.6324 65.271 84.859 65.9044C85.0924 66.5377 85.4057 67.071 85.799 67.5044C86.1924 67.9377 86.6557 68.271 87.189 68.5044C87.7224 68.731 88.2957 68.8444 88.909 68.8444C89.2757 68.8444 89.6057 68.8244 89.899 68.7844C90.199 68.7444 90.4724 68.681 90.719 68.5944C90.9724 68.5077 91.209 68.3977 91.429 68.2644C91.6557 68.1244 91.879 67.9544 92.099 67.7544C92.1657 67.6944 92.2357 67.6477 92.309 67.6144C92.3824 67.5744 92.459 67.5544 92.539 67.5544ZM110.909 63.7344C110.909 64.7944 110.733 65.7777 110.379 66.6844C110.033 67.5844 109.539 68.3644 108.899 69.0244C108.259 69.6844 107.489 70.201 106.589 70.5744C105.689 70.941 104.689 71.1244 103.589 71.1244C102.496 71.1244 101.499 70.941 100.599 70.5744C99.6992 70.201 98.9258 69.6844 98.2792 69.0244C97.6392 68.3644 97.1425 67.5844 96.7892 66.6844C96.4358 65.7777 96.2592 64.7944 96.2592 63.7344C96.2592 62.6744 96.4358 61.6944 96.7892 60.7944C97.1425 59.8877 97.6392 59.1044 98.2792 58.4444C98.9258 57.7844 99.6992 57.271 100.599 56.9044C101.499 56.531 102.496 56.3444 103.589 56.3444C104.323 56.3444 105.013 56.431 105.659 56.6044C106.306 56.771 106.899 57.011 107.439 57.3244C107.979 57.631 108.463 58.0077 108.889 58.4544C109.323 58.8944 109.689 59.3877 109.989 59.9344C110.289 60.481 110.516 61.0744 110.669 61.7144C110.829 62.3544 110.909 63.0277 110.909 63.7344ZM108.159 63.7344C108.159 62.941 108.053 62.231 107.839 61.6044C107.626 60.971 107.323 60.4344 106.929 59.9944C106.536 59.5544 106.056 59.2177 105.489 58.9844C104.929 58.751 104.296 58.6344 103.589 58.6344C102.883 58.6344 102.246 58.751 101.679 58.9844C101.119 59.2177 100.639 59.5544 100.239 59.9944C99.8458 60.4344 99.5425 60.971 99.3292 61.6044C99.1158 62.231 99.0092 62.941 99.0092 63.7344C99.0092 64.5277 99.1158 65.241 99.3292 65.8744C99.5425 66.501 99.8458 67.0344 100.239 67.4744C100.639 67.9077 101.119 68.241 101.679 68.4744C102.246 68.7077 102.883 68.8244 103.589 68.8244C104.296 68.8244 104.929 68.7077 105.489 68.4744C106.056 68.241 106.536 67.9077 106.929 67.4744C107.323 67.0344 107.626 66.501 107.839 65.8744C108.053 65.241 108.159 64.5277 108.159 63.7344ZM127.062 56.5044V70.9644H125.682C125.468 70.9644 125.288 70.931 125.142 70.8644C125.002 70.791 124.865 70.671 124.732 70.5044L117.182 60.8644C117.222 61.3044 117.242 61.711 117.242 62.0844V70.9644H114.872V56.5044H116.282C116.395 56.5044 116.492 56.511 116.572 56.5244C116.658 56.531 116.732 56.551 116.792 56.5844C116.858 56.611 116.922 56.6544 116.982 56.7144C117.042 56.7677 117.108 56.841 117.182 56.9344L124.762 66.6144C124.742 66.381 124.725 66.151 124.712 65.9244C124.698 65.6977 124.692 65.4877 124.692 65.2944V56.5044H127.062ZM141.982 58.7144H137.622V70.9644H134.932V58.7144H130.572V56.5044H141.982V58.7144ZM151.708 65.5044L149.948 60.6944C149.861 60.481 149.771 60.2277 149.678 59.9344C149.584 59.641 149.491 59.3244 149.398 58.9844C149.311 59.3244 149.221 59.6444 149.128 59.9444C149.034 60.2377 148.944 60.4944 148.858 60.7144L147.108 65.5044H151.708ZM156.458 70.9644H154.378C154.144 70.9644 153.954 70.9077 153.808 70.7944C153.661 70.6744 153.551 70.5277 153.478 70.3544L152.398 67.4044H146.408L145.328 70.3544C145.274 70.5077 145.171 70.6477 145.018 70.7744C144.864 70.901 144.674 70.9644 144.448 70.9644H142.348L148.038 56.5044H150.778L156.458 70.9644ZM169.055 67.5544C169.201 67.5544 169.331 67.611 169.445 67.7244L170.505 68.8744C169.918 69.601 169.195 70.1577 168.335 70.5444C167.481 70.931 166.455 71.1244 165.255 71.1244C164.181 71.1244 163.215 70.941 162.355 70.5744C161.501 70.2077 160.771 69.6977 160.165 69.0444C159.558 68.391 159.091 67.611 158.765 66.7044C158.445 65.7977 158.285 64.8077 158.285 63.7344C158.285 62.6477 158.458 61.6544 158.805 60.7544C159.151 59.8477 159.638 59.0677 160.265 58.4144C160.898 57.761 161.651 57.2544 162.525 56.8944C163.398 56.5277 164.365 56.3444 165.425 56.3444C166.478 56.3444 167.411 56.5177 168.225 56.8644C169.045 57.211 169.741 57.6644 170.315 58.2244L169.415 59.4744C169.361 59.5544 169.291 59.6244 169.205 59.6844C169.125 59.7444 169.011 59.7744 168.865 59.7744C168.765 59.7744 168.661 59.7477 168.555 59.6944C168.448 59.6344 168.331 59.5644 168.205 59.4844C168.078 59.3977 167.931 59.3044 167.765 59.2044C167.598 59.1044 167.405 59.0144 167.185 58.9344C166.965 58.8477 166.708 58.7777 166.415 58.7244C166.128 58.6644 165.795 58.6344 165.415 58.6344C164.768 58.6344 164.175 58.751 163.635 58.9844C163.101 59.211 162.641 59.5444 162.255 59.9844C161.868 60.4177 161.568 60.951 161.355 61.5844C161.141 62.211 161.035 62.9277 161.035 63.7344C161.035 64.5477 161.148 65.271 161.375 65.9044C161.608 66.5377 161.921 67.071 162.315 67.5044C162.708 67.9377 163.171 68.271 163.705 68.5044C164.238 68.731 164.811 68.8444 165.425 68.8444C165.791 68.8444 166.121 68.8244 166.415 68.7844C166.715 68.7444 166.988 68.681 167.235 68.5944C167.488 68.5077 167.725 68.3977 167.945 68.2644C168.171 68.1244 168.395 67.9544 168.615 67.7544C168.681 67.6944 168.751 67.6477 168.825 67.6144C168.898 67.5744 168.975 67.5544 169.055 67.5544ZM184.047 58.7144H179.687V70.9644H176.997V58.7144H172.637V56.5044H184.047V58.7144ZM201.097 59.1344C201.017 59.2744 200.931 59.3777 200.837 59.4444C200.751 59.5044 200.641 59.5344 200.507 59.5344C200.367 59.5344 200.214 59.4844 200.047 59.3844C199.887 59.2777 199.694 59.161 199.467 59.0344C199.241 58.9077 198.974 58.7944 198.667 58.6944C198.367 58.5877 198.011 58.5344 197.597 58.5344C197.224 58.5344 196.897 58.581 196.617 58.6744C196.337 58.761 196.101 58.8844 195.907 59.0444C195.721 59.2044 195.581 59.3977 195.487 59.6244C195.394 59.8444 195.347 60.0877 195.347 60.3544C195.347 60.6944 195.441 60.9777 195.627 61.2044C195.821 61.431 196.074 61.6244 196.387 61.7844C196.701 61.9444 197.057 62.0877 197.457 62.2144C197.857 62.341 198.267 62.4777 198.687 62.6244C199.107 62.7644 199.517 62.931 199.917 63.1244C200.317 63.311 200.674 63.551 200.987 63.8444C201.301 64.131 201.551 64.4844 201.737 64.9044C201.931 65.3244 202.027 65.8344 202.027 66.4344C202.027 67.0877 201.914 67.701 201.687 68.2744C201.467 68.841 201.141 69.3377 200.707 69.7644C200.281 70.1844 199.757 70.5177 199.137 70.7644C198.517 71.0044 197.807 71.1244 197.007 71.1244C196.547 71.1244 196.094 71.0777 195.647 70.9844C195.201 70.8977 194.771 70.771 194.357 70.6044C193.951 70.4377 193.567 70.2377 193.207 70.0044C192.847 69.771 192.527 69.511 192.247 69.2244L193.037 67.9344C193.104 67.841 193.191 67.7644 193.297 67.7044C193.404 67.6377 193.517 67.6044 193.637 67.6044C193.804 67.6044 193.984 67.6744 194.177 67.8144C194.371 67.9477 194.601 68.0977 194.867 68.2644C195.134 68.431 195.444 68.5844 195.797 68.7244C196.157 68.8577 196.587 68.9244 197.087 68.9244C197.854 68.9244 198.447 68.7444 198.867 68.3844C199.287 68.0177 199.497 67.4944 199.497 66.8144C199.497 66.4344 199.401 66.1244 199.207 65.8844C199.021 65.6444 198.771 65.4444 198.457 65.2844C198.144 65.1177 197.787 64.9777 197.387 64.8644C196.987 64.751 196.581 64.6277 196.167 64.4944C195.754 64.361 195.347 64.201 194.947 64.0144C194.547 63.8277 194.191 63.5844 193.877 63.2844C193.564 62.9844 193.311 62.611 193.117 62.1644C192.931 61.711 192.837 61.1544 192.837 60.4944C192.837 59.9677 192.941 59.4544 193.147 58.9544C193.361 58.4544 193.667 58.011 194.067 57.6244C194.467 57.2377 194.961 56.9277 195.547 56.6944C196.134 56.461 196.807 56.3444 197.567 56.3444C198.421 56.3444 199.207 56.4777 199.927 56.7444C200.647 57.011 201.261 57.3844 201.767 57.8644L201.097 59.1344ZM213.321 65.5044L211.561 60.6944C211.474 60.481 211.384 60.2277 211.291 59.9344C211.198 59.641 211.104 59.3244 211.011 58.9844C210.924 59.3244 210.834 59.6444 210.741 59.9444C210.648 60.2377 210.558 60.4944 210.471 60.7144L208.721 65.5044H213.321ZM218.071 70.9644H215.991C215.758 70.9644 215.568 70.9077 215.421 70.7944C215.274 70.6744 215.164 70.5277 215.091 70.3544L214.011 67.4044H208.021L206.941 70.3544C206.888 70.5077 206.784 70.6477 206.631 70.7744C206.478 70.901 206.288 70.9644 206.061 70.9644H203.961L209.651 56.5044H212.391L218.071 70.9644ZM229.638 68.7444V70.9644H221.168V56.5044H223.858V68.7444H229.638ZM235.858 58.6444V62.6544H240.918V64.7244H235.858V68.8144H242.278V70.9644H233.158V56.5044H242.278V58.6444H235.858ZM253.962 59.1344C253.882 59.2744 253.795 59.3777 253.702 59.4444C253.615 59.5044 253.505 59.5344 253.372 59.5344C253.232 59.5344 253.079 59.4844 252.912 59.3844C252.752 59.2777 252.559 59.161 252.332 59.0344C252.105 58.9077 251.839 58.7944 251.532 58.6944C251.232 58.5877 250.875 58.5344 250.462 58.5344C250.089 58.5344 249.762 58.581 249.482 58.6744C249.202 58.761 248.965 58.8844 248.772 59.0444C248.585 59.2044 248.445 59.3977 248.352 59.6244C248.259 59.8444 248.212 60.0877 248.212 60.3544C248.212 60.6944 248.305 60.9777 248.492 61.2044C248.685 61.431 248.939 61.6244 249.252 61.7844C249.565 61.9444 249.922 62.0877 250.322 62.2144C250.722 62.341 251.132 62.4777 251.552 62.6244C251.972 62.7644 252.382 62.931 252.782 63.1244C253.182 63.311 253.539 63.551 253.852 63.8444C254.165 64.131 254.415 64.4844 254.602 64.9044C254.795 65.3244 254.892 65.8344 254.892 66.4344C254.892 67.0877 254.779 67.701 254.552 68.2744C254.332 68.841 254.005 69.3377 253.572 69.7644C253.145 70.1844 252.622 70.5177 252.002 70.7644C251.382 71.0044 250.672 71.1244 249.872 71.1244C249.412 71.1244 248.959 71.0777 248.512 70.9844C248.065 70.8977 247.635 70.771 247.222 70.6044C246.815 70.4377 246.432 70.2377 246.072 70.0044C245.712 69.771 245.392 69.511 245.112 69.2244L245.902 67.9344C245.969 67.841 246.055 67.7644 246.162 67.7044C246.269 67.6377 246.382 67.6044 246.502 67.6044C246.669 67.6044 246.849 67.6744 247.042 67.8144C247.235 67.9477 247.465 68.0977 247.732 68.2644C247.999 68.431 248.309 68.5844 248.662 68.7244C249.022 68.8577 249.452 68.9244 249.952 68.9244C250.719 68.9244 251.312 68.7444 251.732 68.3844C252.152 68.0177 252.362 67.4944 252.362 66.8144C252.362 66.4344 252.265 66.1244 252.072 65.8844C251.885 65.6444 251.635 65.4444 251.322 65.2844C251.009 65.1177 250.652 64.9777 250.252 64.8644C249.852 64.751 249.445 64.6277 249.032 64.4944C248.619 64.361 248.212 64.201 247.812 64.0144C247.412 63.8277 247.055 63.5844 246.742 63.2844C246.429 62.9844 246.175 62.611 245.982 62.1644C245.795 61.711 245.702 61.1544 245.702 60.4944C245.702 59.9677 245.805 59.4544 246.012 58.9544C246.225 58.4544 246.532 58.011 246.932 57.6244C247.332 57.2377 247.825 56.9277 248.412 56.6944C248.999 56.461 249.672 56.3444 250.432 56.3444C251.285 56.3444 252.072 56.4777 252.792 56.7444C253.512 57.011 254.125 57.3844 254.632 57.8644L253.962 59.1344Z" fill="#F1897B"/>
<rect x="20.5" y="20.5" width="299" height="89" stroke="#E4E4E4"/>
<rect x="0.5" y="0.5" width="339" height="239" rx="4.5" stroke="#9747FF" stroke-dasharray="10 5"/>
</svg>
