<svg width="340" height="240" viewBox="0 0 340 240" fill="none" xmlns="http://www.w3.org/2000/svg">
<rect opacity="0.3" x="119" y="174" width="112" height="13" fill="#E64F3A"/>
<path d="M116.12 175.86C116.12 176.673 116.02 177.407 115.82 178.06C115.62 178.713 115.32 179.27 114.92 179.73C114.527 180.19 114.033 180.543 113.44 180.79C112.847 181.037 112.157 181.16 111.37 181.16C111.01 181.16 110.657 181.137 110.31 181.09C109.963 181.05 109.6 180.983 109.22 180.89C109.24 180.623 109.263 180.357 109.29 180.09C109.317 179.823 109.34 179.557 109.36 179.29C109.38 179.143 109.437 179.027 109.53 178.94C109.63 178.847 109.77 178.8 109.95 178.8C110.063 178.8 110.21 178.823 110.39 178.87C110.577 178.917 110.81 178.94 111.09 178.94C111.47 178.94 111.807 178.887 112.1 178.78C112.393 178.667 112.637 178.49 112.83 178.25C113.03 178.01 113.18 177.7 113.28 177.32C113.38 176.933 113.43 176.467 113.43 175.92V166.54H116.12V175.86ZM134.594 173.77C134.594 174.83 134.417 175.813 134.064 176.72C133.717 177.62 133.224 178.4 132.584 179.06C131.944 179.72 131.174 180.237 130.274 180.61C129.374 180.977 128.374 181.16 127.274 181.16C126.18 181.16 125.184 180.977 124.284 180.61C123.384 180.237 122.61 179.72 121.964 179.06C121.324 178.4 120.827 177.62 120.474 176.72C120.12 175.813 119.944 174.83 119.944 173.77C119.944 172.71 120.12 171.73 120.474 170.83C120.827 169.923 121.324 169.14 121.964 168.48C122.61 167.82 123.384 167.307 124.284 166.94C125.184 166.567 126.18 166.38 127.274 166.38C128.007 166.38 128.697 166.467 129.344 166.64C129.99 166.807 130.584 167.047 131.124 167.36C131.664 167.667 132.147 168.043 132.574 168.49C133.007 168.93 133.374 169.423 133.674 169.97C133.974 170.517 134.2 171.11 134.354 171.75C134.514 172.39 134.594 173.063 134.594 173.77ZM131.844 173.77C131.844 172.977 131.737 172.267 131.524 171.64C131.31 171.007 131.007 170.47 130.614 170.03C130.22 169.59 129.74 169.253 129.174 169.02C128.614 168.787 127.98 168.67 127.274 168.67C126.567 168.67 125.93 168.787 125.364 169.02C124.804 169.253 124.324 169.59 123.924 170.03C123.53 170.47 123.227 171.007 123.014 171.64C122.8 172.267 122.694 172.977 122.694 173.77C122.694 174.563 122.8 175.277 123.014 175.91C123.227 176.537 123.53 177.07 123.924 177.51C124.324 177.943 124.804 178.277 125.364 178.51C125.93 178.743 126.567 178.86 127.274 178.86C127.98 178.86 128.614 178.743 129.174 178.51C129.74 178.277 130.22 177.943 130.614 177.51C131.007 177.07 131.31 176.537 131.524 175.91C131.737 175.277 131.844 174.563 131.844 173.77ZM141.256 181H138.556V166.54H141.256V181ZM158.284 166.54V181H156.904C156.69 181 156.51 180.967 156.364 180.9C156.224 180.827 156.087 180.707 155.954 180.54L148.404 170.9C148.444 171.34 148.464 171.747 148.464 172.12V181H146.094V166.54H147.504C147.617 166.54 147.714 166.547 147.794 166.56C147.88 166.567 147.954 166.587 148.014 166.62C148.08 166.647 148.144 166.69 148.204 166.75C148.264 166.803 148.33 166.877 148.404 166.97L155.984 176.65C155.964 176.417 155.947 176.187 155.934 175.96C155.92 175.733 155.914 175.523 155.914 175.33V166.54H158.284ZM181.757 166.54V181H180.377C180.164 181 179.984 180.967 179.837 180.9C179.697 180.827 179.56 180.707 179.427 180.54L171.877 170.9C171.917 171.34 171.937 171.747 171.937 172.12V181H169.567V166.54H170.977C171.09 166.54 171.187 166.547 171.267 166.56C171.354 166.567 171.427 166.587 171.487 166.62C171.554 166.647 171.617 166.69 171.677 166.75C171.737 166.803 171.804 166.877 171.877 166.97L179.457 176.65C179.437 176.417 179.42 176.187 179.407 175.96C179.394 175.733 179.387 175.523 179.387 175.33V166.54H181.757ZM200.367 173.77C200.367 174.83 200.191 175.813 199.837 176.72C199.491 177.62 198.997 178.4 198.357 179.06C197.717 179.72 196.947 180.237 196.047 180.61C195.147 180.977 194.147 181.16 193.047 181.16C191.954 181.16 190.957 180.977 190.057 180.61C189.157 180.237 188.384 179.72 187.737 179.06C187.097 178.4 186.601 177.62 186.247 176.72C185.894 175.813 185.717 174.83 185.717 173.77C185.717 172.71 185.894 171.73 186.247 170.83C186.601 169.923 187.097 169.14 187.737 168.48C188.384 167.82 189.157 167.307 190.057 166.94C190.957 166.567 191.954 166.38 193.047 166.38C193.781 166.38 194.471 166.467 195.117 166.64C195.764 166.807 196.357 167.047 196.897 167.36C197.437 167.667 197.921 168.043 198.347 168.49C198.781 168.93 199.147 169.423 199.447 169.97C199.747 170.517 199.974 171.11 200.127 171.75C200.287 172.39 200.367 173.063 200.367 173.77ZM197.617 173.77C197.617 172.977 197.511 172.267 197.297 171.64C197.084 171.007 196.781 170.47 196.387 170.03C195.994 169.59 195.514 169.253 194.947 169.02C194.387 168.787 193.754 168.67 193.047 168.67C192.341 168.67 191.704 168.787 191.137 169.02C190.577 169.253 190.097 169.59 189.697 170.03C189.304 170.47 189.001 171.007 188.787 171.64C188.574 172.267 188.467 172.977 188.467 173.77C188.467 174.563 188.574 175.277 188.787 175.91C189.001 176.537 189.304 177.07 189.697 177.51C190.097 177.943 190.577 178.277 191.137 178.51C191.704 178.743 192.341 178.86 193.047 178.86C193.754 178.86 194.387 178.743 194.947 178.51C195.514 178.277 195.994 177.943 196.387 177.51C196.781 177.07 197.084 176.537 197.297 175.91C197.511 175.277 197.617 174.563 197.617 173.77ZM223.277 166.54L218.787 181H216.357L213.197 171.12C213.11 170.88 213.03 170.587 212.957 170.24C212.917 170.407 212.877 170.563 212.837 170.71C212.797 170.857 212.753 170.993 212.707 171.12L209.517 181H207.077L202.597 166.54H204.847C205.08 166.54 205.273 166.597 205.427 166.71C205.587 166.817 205.693 166.963 205.747 167.15L208.207 175.8C208.26 176.013 208.31 176.247 208.357 176.5C208.41 176.747 208.463 177.007 208.517 177.28C208.57 177 208.627 176.737 208.687 176.49C208.753 176.243 208.823 176.013 208.897 175.8L211.737 167.15C211.79 166.997 211.893 166.857 212.047 166.73C212.207 166.603 212.4 166.54 212.627 166.54H213.417C213.65 166.54 213.84 166.597 213.987 166.71C214.133 166.823 214.243 166.97 214.317 167.15L217.147 175.8C217.287 176.213 217.413 176.69 217.527 177.23C217.613 176.703 217.71 176.227 217.817 175.8L220.277 167.15C220.317 166.983 220.417 166.84 220.577 166.72C220.743 166.6 220.94 166.54 221.167 166.54H223.277Z" fill="#E64F3A"/>
<rect x="20.5" y="130.5" width="299" height="89" stroke="#E64F3A"/>
<rect opacity="0.3" x="119" y="64" width="112" height="13" fill="#F1897B"/>
<path d="M116.12 65.86C116.12 66.6733 116.02 67.4067 115.82 68.06C115.62 68.7133 115.32 69.27 114.92 69.73C114.527 70.19 114.033 70.5433 113.44 70.79C112.847 71.0367 112.157 71.16 111.37 71.16C111.01 71.16 110.657 71.1367 110.31 71.09C109.963 71.05 109.6 70.9833 109.22 70.89C109.24 70.6233 109.263 70.3567 109.29 70.09C109.317 69.8233 109.34 69.5567 109.36 69.29C109.38 69.1433 109.437 69.0267 109.53 68.94C109.63 68.8467 109.77 68.8 109.95 68.8C110.063 68.8 110.21 68.8233 110.39 68.87C110.577 68.9167 110.81 68.94 111.09 68.94C111.47 68.94 111.807 68.8867 112.1 68.78C112.393 68.6667 112.637 68.49 112.83 68.25C113.03 68.01 113.18 67.7 113.28 67.32C113.38 66.9333 113.43 66.4667 113.43 65.92V56.54H116.12V65.86ZM134.594 63.77C134.594 64.83 134.417 65.8133 134.064 66.72C133.717 67.62 133.224 68.4 132.584 69.06C131.944 69.72 131.174 70.2367 130.274 70.61C129.374 70.9767 128.374 71.16 127.274 71.16C126.18 71.16 125.184 70.9767 124.284 70.61C123.384 70.2367 122.61 69.72 121.964 69.06C121.324 68.4 120.827 67.62 120.474 66.72C120.12 65.8133 119.944 64.83 119.944 63.77C119.944 62.71 120.12 61.73 120.474 60.83C120.827 59.9233 121.324 59.14 121.964 58.48C122.61 57.82 123.384 57.3067 124.284 56.94C125.184 56.5667 126.18 56.38 127.274 56.38C128.007 56.38 128.697 56.4667 129.344 56.64C129.99 56.8067 130.584 57.0467 131.124 57.36C131.664 57.6667 132.147 58.0433 132.574 58.49C133.007 58.93 133.374 59.4233 133.674 59.97C133.974 60.5167 134.2 61.11 134.354 61.75C134.514 62.39 134.594 63.0633 134.594 63.77ZM131.844 63.77C131.844 62.9767 131.737 62.2667 131.524 61.64C131.31 61.0067 131.007 60.47 130.614 60.03C130.22 59.59 129.74 59.2533 129.174 59.02C128.614 58.7867 127.98 58.67 127.274 58.67C126.567 58.67 125.93 58.7867 125.364 59.02C124.804 59.2533 124.324 59.59 123.924 60.03C123.53 60.47 123.227 61.0067 123.014 61.64C122.8 62.2667 122.694 62.9767 122.694 63.77C122.694 64.5633 122.8 65.2767 123.014 65.91C123.227 66.5367 123.53 67.07 123.924 67.51C124.324 67.9433 124.804 68.2767 125.364 68.51C125.93 68.7433 126.567 68.86 127.274 68.86C127.98 68.86 128.614 68.7433 129.174 68.51C129.74 68.2767 130.22 67.9433 130.614 67.51C131.007 67.07 131.31 66.5367 131.524 65.91C131.737 65.2767 131.844 64.5633 131.844 63.77ZM141.256 71H138.556V56.54H141.256V71ZM158.284 56.54V71H156.904C156.69 71 156.51 70.9667 156.364 70.9C156.224 70.8267 156.087 70.7067 155.954 70.54L148.404 60.9C148.444 61.34 148.464 61.7467 148.464 62.12V71H146.094V56.54H147.504C147.617 56.54 147.714 56.5467 147.794 56.56C147.88 56.5667 147.954 56.5867 148.014 56.62C148.08 56.6467 148.144 56.69 148.204 56.75C148.264 56.8033 148.33 56.8767 148.404 56.97L155.984 66.65C155.964 66.4167 155.947 66.1867 155.934 65.96C155.92 65.7333 155.914 65.5233 155.914 65.33V56.54H158.284ZM181.757 56.54V71H180.377C180.164 71 179.984 70.9667 179.837 70.9C179.697 70.8267 179.56 70.7067 179.427 70.54L171.877 60.9C171.917 61.34 171.937 61.7467 171.937 62.12V71H169.567V56.54H170.977C171.09 56.54 171.187 56.5467 171.267 56.56C171.354 56.5667 171.427 56.5867 171.487 56.62C171.554 56.6467 171.617 56.69 171.677 56.75C171.737 56.8033 171.804 56.8767 171.877 56.97L179.457 66.65C179.437 66.4167 179.42 66.1867 179.407 65.96C179.394 65.7333 179.387 65.5233 179.387 65.33V56.54H181.757ZM200.367 63.77C200.367 64.83 200.191 65.8133 199.837 66.72C199.491 67.62 198.997 68.4 198.357 69.06C197.717 69.72 196.947 70.2367 196.047 70.61C195.147 70.9767 194.147 71.16 193.047 71.16C191.954 71.16 190.957 70.9767 190.057 70.61C189.157 70.2367 188.384 69.72 187.737 69.06C187.097 68.4 186.601 67.62 186.247 66.72C185.894 65.8133 185.717 64.83 185.717 63.77C185.717 62.71 185.894 61.73 186.247 60.83C186.601 59.9233 187.097 59.14 187.737 58.48C188.384 57.82 189.157 57.3067 190.057 56.94C190.957 56.5667 191.954 56.38 193.047 56.38C193.781 56.38 194.471 56.4667 195.117 56.64C195.764 56.8067 196.357 57.0467 196.897 57.36C197.437 57.6667 197.921 58.0433 198.347 58.49C198.781 58.93 199.147 59.4233 199.447 59.97C199.747 60.5167 199.974 61.11 200.127 61.75C200.287 62.39 200.367 63.0633 200.367 63.77ZM197.617 63.77C197.617 62.9767 197.511 62.2667 197.297 61.64C197.084 61.0067 196.781 60.47 196.387 60.03C195.994 59.59 195.514 59.2533 194.947 59.02C194.387 58.7867 193.754 58.67 193.047 58.67C192.341 58.67 191.704 58.7867 191.137 59.02C190.577 59.2533 190.097 59.59 189.697 60.03C189.304 60.47 189.001 61.0067 188.787 61.64C188.574 62.2667 188.467 62.9767 188.467 63.77C188.467 64.5633 188.574 65.2767 188.787 65.91C189.001 66.5367 189.304 67.07 189.697 67.51C190.097 67.9433 190.577 68.2767 191.137 68.51C191.704 68.7433 192.341 68.86 193.047 68.86C193.754 68.86 194.387 68.7433 194.947 68.51C195.514 68.2767 195.994 67.9433 196.387 67.51C196.781 67.07 197.084 66.5367 197.297 65.91C197.511 65.2767 197.617 64.5633 197.617 63.77ZM223.277 56.54L218.787 71H216.357L213.197 61.12C213.11 60.88 213.03 60.5867 212.957 60.24C212.917 60.4067 212.877 60.5633 212.837 60.71C212.797 60.8567 212.753 60.9933 212.707 61.12L209.517 71H207.077L202.597 56.54H204.847C205.08 56.54 205.273 56.5967 205.427 56.71C205.587 56.8167 205.693 56.9633 205.747 57.15L208.207 65.8C208.26 66.0133 208.31 66.2467 208.357 66.5C208.41 66.7467 208.463 67.0067 208.517 67.28C208.57 67 208.627 66.7367 208.687 66.49C208.753 66.2433 208.823 66.0133 208.897 65.8L211.737 57.15C211.79 56.9967 211.893 56.8567 212.047 56.73C212.207 56.6033 212.4 56.54 212.627 56.54H213.417C213.65 56.54 213.84 56.5967 213.987 56.71C214.133 56.8233 214.243 56.97 214.317 57.15L217.147 65.8C217.287 66.2133 217.413 66.69 217.527 67.23C217.613 66.7033 217.71 66.2267 217.817 65.8L220.277 57.15C220.317 56.9833 220.417 56.84 220.577 56.72C220.743 56.6 220.94 56.54 221.167 56.54H223.277Z" fill="#F1897B"/>
<rect x="20.5" y="20.5" width="299" height="89" stroke="#E4E4E4"/>
<rect x="0.5" y="0.5" width="339" height="239" rx="4.5" stroke="#9747FF" stroke-dasharray="10 5"/>
</svg>
