<svg width="11" height="17" viewBox="0 0 11 17" fill="none" xmlns="http://www.w3.org/2000/svg">
<path d="M10.1161 9.59821C10.3006 9.77679 10.3423 9.98214 10.2411 10.2143C10.1399 10.4524 9.96429 10.5714 9.71429 10.5714H6.30357L8.09822 14.8214C8.15774 14.9702 8.15774 15.1161 8.09822 15.2589C8.03869 15.4018 7.9375 15.506 7.79464 15.5714L6.21429 16.2411C6.06548 16.3006 5.91964 16.3006 5.77679 16.2411C5.63393 16.1815 5.52976 16.0804 5.46429 15.9375L3.75893 11.9018L0.973214 14.6875C0.860119 14.8006 0.726191 14.8571 0.571429 14.8571C0.5 14.8571 0.428571 14.8423 0.357143 14.8125C0.119048 14.7113 0 14.5357 0 14.2857V0.857142C0 0.607142 0.119048 0.431547 0.357143 0.330357C0.428571 0.300594 0.5 0.285713 0.571429 0.285713C0.732143 0.285713 0.866071 0.342261 0.973214 0.455357L10.1161 9.59821Z" fill="white"/>
</svg>
