<svg width="164" height="108" viewBox="0 0 164 108" fill="none" xmlns="http://www.w3.org/2000/svg">
<path d="M115.674 68.4266C116.496 67.952 117 67.083 117.061 66.1343L117.869 42.8008L130.429 35.5494C132.325 34.4551 132.971 32.0417 131.877 30.1463C130.783 28.2509 128.369 27.6042 126.474 28.6986L113.914 35.95L93.3024 24.9836C92.473 24.549 91.4461 24.5634 90.624 25.038C89.0254 25.9609 88.7573 28.1862 90.1334 29.4622L103.638 41.883L91.078 49.1344L85.6219 46.8038C85.245 46.6256 84.8101 46.6635 84.4447 46.8745L83.0974 47.6524C82.3438 48.0875 82.2177 49.1346 82.8451 49.7467L88.4884 55.1967L90.3866 62.809C90.603 63.6584 91.5729 64.0727 92.3265 63.6376L93.6739 62.8598C94.0392 62.6488 94.2895 62.2912 94.3236 61.8757L95.0333 55.9853L107.593 48.7338L111.598 66.6394C112.015 68.4691 114.076 69.3495 115.674 68.4266Z" fill="#1673FF"/>
<path d="M1.4 60V45.6H6.96C7.76667 45.6 8.47 45.7667 9.07 46.1C9.67 46.4333 10.1367 46.8833 10.47 47.45C10.8033 48.01 10.97 48.63 10.97 49.31C10.97 50.0833 10.7633 50.7733 10.35 51.38C9.93667 51.98 9.38333 52.3967 8.69 52.63L8.67 52.14C9.60333 52.4067 10.3367 52.8733 10.87 53.54C11.4033 54.2067 11.67 55.0133 11.67 55.96C11.67 56.7933 11.4933 57.5133 11.14 58.12C10.7867 58.72 10.29 59.1833 9.65 59.51C9.01 59.8367 8.26667 60 7.42 60H1.4ZM2.88 58.59H7.06C7.64667 58.59 8.17333 58.4867 8.64 58.28C9.10667 58.0667 9.47333 57.7667 9.74 57.38C10.0133 56.9933 10.15 56.5267 10.15 55.98C10.15 55.4467 10.0267 54.9667 9.78 54.54C9.53333 54.1133 9.19667 53.7733 8.77 53.52C8.35 53.26 7.87 53.13 7.33 53.13H2.88V58.59ZM2.88 51.74H6.95C7.41 51.74 7.83 51.6367 8.21 51.43C8.59 51.2167 8.89 50.9267 9.11 50.56C9.33667 50.1933 9.45 49.77 9.45 49.29C9.45 48.61 9.21333 48.0567 8.74 47.63C8.27333 47.2033 7.67667 46.99 6.95 46.99H2.88V51.74ZM13.6656 60V49.2H14.9856V51.8L14.7256 51.46C14.8456 51.14 15.0023 50.8467 15.1956 50.58C15.389 50.3067 15.599 50.0833 15.8256 49.91C16.1056 49.6633 16.4323 49.4767 16.8056 49.35C17.179 49.2167 17.5556 49.14 17.9356 49.12C18.3156 49.0933 18.6623 49.12 18.9756 49.2V50.58C18.5823 50.48 18.1523 50.4567 17.6856 50.51C17.219 50.5633 16.789 50.75 16.3956 51.07C16.0356 51.35 15.7656 51.6867 15.5856 52.08C15.4056 52.4667 15.2856 52.88 15.2256 53.32C15.1656 53.7533 15.1356 54.1833 15.1356 54.61V60H13.6656ZM21.0727 47.15V45.5H22.5427V47.15H21.0727ZM21.0727 60V49.2H22.5427V60H21.0727ZM30.1106 60.3C29.0573 60.3 28.144 60.0667 27.3706 59.6C26.604 59.1333 26.0073 58.4767 25.5806 57.63C25.154 56.7833 24.9406 55.79 24.9406 54.65C24.9406 53.47 25.1506 52.45 25.5706 51.59C25.9906 50.73 26.5806 50.0667 27.3406 49.6C28.1073 49.1333 29.0106 48.9 30.0506 48.9C31.1173 48.9 32.0273 49.1467 32.7806 49.64C33.534 50.1267 34.104 50.8267 34.4906 51.74C34.8773 52.6533 35.054 53.7433 35.0206 55.01H33.5206V54.49C33.494 53.09 33.1906 52.0333 32.6106 51.32C32.0373 50.6067 31.1973 50.25 30.0906 50.25C28.9306 50.25 28.0406 50.6267 27.4206 51.38C26.8073 52.1333 26.5006 53.2067 26.5006 54.6C26.5006 55.96 26.8073 57.0167 27.4206 57.77C28.0406 58.5167 28.9173 58.89 30.0506 58.89C30.824 58.89 31.4973 58.7133 32.0706 58.36C32.6506 58 33.1073 57.4833 33.4406 56.81L34.8106 57.34C34.384 58.28 33.754 59.01 32.9206 59.53C32.094 60.0433 31.1573 60.3 30.1106 60.3ZM25.9806 55.01V53.78H34.2306V55.01H25.9806ZM38.3098 60V48.4C38.3098 48.12 38.3232 47.8433 38.3498 47.57C38.3832 47.2967 38.4465 47.0367 38.5398 46.79C38.6332 46.5367 38.7798 46.3033 38.9798 46.09C39.1998 45.85 39.4398 45.6767 39.6998 45.57C39.9598 45.4567 40.2298 45.3833 40.5098 45.35C40.7965 45.3167 41.0765 45.3 41.3498 45.3H42.7298V46.54H41.4498C40.8898 46.54 40.4698 46.6767 40.1898 46.95C39.9165 47.2233 39.7798 47.6533 39.7798 48.24V60H38.3098ZM36.4398 50.46V49.2H42.7298V50.46H36.4398ZM44.8298 47.15V45.5H46.2998V47.15H44.8298ZM44.8298 60V49.2H46.2998V60H44.8298ZM57.0906 60V54.49C57.0906 53.89 57.034 53.34 56.9206 52.84C56.8073 52.3333 56.624 51.8933 56.3706 51.52C56.124 51.14 55.8006 50.8467 55.4006 50.64C55.0073 50.4333 54.5273 50.33 53.9606 50.33C53.4406 50.33 52.9806 50.42 52.5806 50.6C52.1873 50.78 51.854 51.04 51.5806 51.38C51.314 51.7133 51.1106 52.12 50.9706 52.6C50.8306 53.08 50.7606 53.6267 50.7606 54.24L49.7206 54.01C49.7206 52.9033 49.914 51.9733 50.3006 51.22C50.6873 50.4667 51.2206 49.8967 51.9006 49.51C52.5806 49.1233 53.3606 48.93 54.2406 48.93C54.8873 48.93 55.4506 49.03 55.9306 49.23C56.4173 49.43 56.8273 49.7 57.1606 50.04C57.5006 50.38 57.774 50.77 57.9806 51.21C58.1873 51.6433 58.3373 52.1067 58.4306 52.6C58.524 53.0867 58.5706 53.5733 58.5706 54.06V60H57.0906ZM49.2806 60V49.2H50.6106V51.86H50.7606V60H49.2806ZM65.4556 65.1C64.9023 65.1 64.3556 65.0167 63.8156 64.85C63.2823 64.69 62.789 64.4333 62.3356 64.08C61.8823 63.7333 61.5023 63.28 61.1956 62.72L62.5256 61.98C62.8256 62.58 63.2456 63.01 63.7856 63.27C64.3323 63.5367 64.889 63.67 65.4556 63.67C66.2356 63.67 66.8656 63.5233 67.3456 63.23C67.8323 62.9433 68.1856 62.5167 68.4056 61.95C68.6256 61.3833 68.7323 60.6767 68.7256 59.83V56.95H68.8956V49.2H70.2056V59.85C70.2056 60.1567 70.1956 60.45 70.1756 60.73C70.1623 61.0167 70.1323 61.2967 70.0856 61.57C69.959 62.3767 69.6956 63.04 69.2956 63.56C68.9023 64.08 68.3823 64.4667 67.7356 64.72C67.0956 64.9733 66.3356 65.1 65.4556 65.1ZM65.3556 60.3C64.349 60.3 63.489 60.05 62.7756 59.55C62.0623 59.0433 61.5156 58.36 61.1356 57.5C60.7556 56.64 60.5656 55.67 60.5656 54.59C60.5656 53.5167 60.7523 52.55 61.1256 51.69C61.5056 50.83 62.049 50.15 62.7556 49.65C63.4623 49.15 64.309 48.9 65.2956 48.9C66.309 48.9 67.1623 49.1467 67.8556 49.64C68.549 50.1333 69.0723 50.81 69.4256 51.67C69.7856 52.5233 69.9656 53.4967 69.9656 54.59C69.9656 55.6633 69.789 56.6333 69.4356 57.5C69.0823 58.36 68.5623 59.0433 67.8756 59.55C67.189 60.05 66.349 60.3 65.3556 60.3ZM65.5056 58.93C66.2723 58.93 66.9056 58.7433 67.4056 58.37C67.9056 57.9967 68.279 57.4833 68.5256 56.83C68.7723 56.17 68.8956 55.4233 68.8956 54.59C68.8956 53.7433 68.7723 52.9967 68.5256 52.35C68.279 51.6967 67.9056 51.1867 67.4056 50.82C66.9123 50.4533 66.289 50.27 65.5356 50.27C64.7623 50.27 64.1223 50.46 63.6156 50.84C63.109 51.22 62.7323 51.7367 62.4856 52.39C62.2456 53.0433 62.1256 53.7767 62.1256 54.59C62.1256 55.41 62.249 56.15 62.4956 56.81C62.749 57.4633 63.1256 57.98 63.6256 58.36C64.1256 58.74 64.7523 58.93 65.5056 58.93Z" fill="#F3F3F3"/>
<path d="M8.88 96L0.46 67.2H5.52L11.26 88L16.98 67.24L22.04 67.2L27.78 88L33.5 67.2H38.56L30.16 96H25.4L19.5 75.52L13.64 96H8.88Z" fill="#1673FF"/>
<path d="M51.1834 96.6C49.0634 96.6 47.2101 96.1333 45.6234 95.2C44.0501 94.2533 42.8234 92.94 41.9434 91.26C41.0634 89.5667 40.6234 87.5933 40.6234 85.34C40.6234 82.98 41.0568 80.94 41.9234 79.22C42.7901 77.4867 43.9968 76.1533 45.5434 75.22C47.1034 74.2733 48.9301 73.8 51.0234 73.8C53.1968 73.8 55.0434 74.3 56.5634 75.3C58.0968 76.3 59.2434 77.7267 60.0034 79.58C60.7768 81.4333 61.1101 83.64 61.0034 86.2H57.4034V84.92C57.3634 82.2667 56.8234 80.2867 55.7834 78.98C54.7434 77.66 53.1968 77 51.1434 77C48.9434 77 47.2701 77.7067 46.1234 79.12C44.9768 80.5333 44.4034 82.56 44.4034 85.2C44.4034 87.7467 44.9768 89.72 46.1234 91.12C47.2701 92.52 48.9034 93.22 51.0234 93.22C52.4501 93.22 53.6901 92.8933 54.7434 92.24C55.7968 91.5867 56.6234 90.6467 57.2234 89.42L60.6434 90.6C59.8034 92.5067 58.5368 93.9867 56.8434 95.04C55.1634 96.08 53.2768 96.6 51.1834 96.6ZM43.2034 86.2V83.34H59.1634V86.2H43.2034ZM71.2056 96.6C69.5923 96.6 68.239 96.3067 67.1456 95.72C66.0656 95.12 65.2456 94.3333 64.6856 93.36C64.139 92.3867 63.8656 91.32 63.8656 90.16C63.8656 89.0267 64.079 88.0467 64.5056 87.22C64.9456 86.38 65.559 85.6867 66.3456 85.14C67.1323 84.58 68.0723 84.14 69.1656 83.82C70.1923 83.54 71.339 83.3 72.6056 83.1C73.8856 82.8867 75.179 82.6933 76.4856 82.52C77.7923 82.3467 79.0123 82.18 80.1456 82.02L78.8656 82.76C78.9056 80.84 78.519 79.42 77.7056 78.5C76.9056 77.58 75.519 77.12 73.5456 77.12C72.239 77.12 71.0923 77.42 70.1056 78.02C69.1323 78.6067 68.4456 79.5667 68.0456 80.9L64.6656 79.88C65.1856 77.9867 66.1923 76.5 67.6856 75.42C69.179 74.34 71.1456 73.8 73.5856 73.8C75.5456 73.8 77.2256 74.1533 78.6256 74.86C80.039 75.5533 81.0523 76.6067 81.6656 78.02C81.9723 78.6867 82.1656 79.4133 82.2456 80.2C82.3256 80.9733 82.3656 81.7867 82.3656 82.64V96H79.2056V90.82L79.9456 91.3C79.1323 93.0467 77.9923 94.3667 76.5256 95.26C75.0723 96.1533 73.299 96.6 71.2056 96.6ZM71.7456 93.62C73.0256 93.62 74.1323 93.3933 75.0656 92.94C76.0123 92.4733 76.7723 91.8667 77.3456 91.12C77.919 90.36 78.2923 89.5333 78.4656 88.64C78.6656 87.9733 78.7723 87.2333 78.7856 86.42C78.8123 85.5933 78.8256 84.96 78.8256 84.52L80.0656 85.06C78.9056 85.22 77.7656 85.3733 76.6456 85.52C75.5256 85.6667 74.4656 85.8267 73.4656 86C72.4656 86.16 71.5656 86.3533 70.7656 86.58C70.179 86.7667 69.6256 87.0067 69.1056 87.3C68.599 87.5933 68.1856 87.9733 67.8656 88.44C67.559 88.8933 67.4056 89.46 67.4056 90.14C67.4056 90.7267 67.5523 91.2867 67.8456 91.82C68.1523 92.3533 68.619 92.7867 69.2456 93.12C69.8856 93.4533 70.719 93.62 71.7456 93.62ZM99.6256 96C98.3456 96.2533 97.079 96.3533 95.8256 96.3C94.5856 96.26 93.479 96.0133 92.5056 95.56C91.5323 95.0933 90.7923 94.3733 90.2856 93.4C89.859 92.5467 89.6256 91.6867 89.5856 90.82C89.559 89.94 89.5456 88.9467 89.5456 87.84V68.4H93.1056V87.68C93.1056 88.56 93.1123 89.3133 93.1256 89.94C93.1523 90.5667 93.2923 91.1067 93.5456 91.56C94.0256 92.4133 94.7856 92.9133 95.8256 93.06C96.879 93.2067 98.1456 93.1667 99.6256 92.94V96ZM85.1656 77.34V74.4H99.6256V77.34H85.1656ZM119.391 96V85.18C119.391 84.1533 119.298 83.1667 119.111 82.22C118.938 81.2733 118.624 80.4267 118.171 79.68C117.731 78.92 117.131 78.32 116.371 77.88C115.624 77.44 114.678 77.22 113.531 77.22C112.638 77.22 111.824 77.3733 111.091 77.68C110.371 77.9733 109.751 78.4267 109.231 79.04C108.711 79.6533 108.304 80.4267 108.011 81.36C107.731 82.28 107.591 83.3667 107.591 84.62L105.251 83.9C105.251 81.8067 105.624 80.0133 106.371 78.52C107.131 77.0133 108.191 75.86 109.551 75.06C110.924 74.2467 112.538 73.84 114.391 73.84C115.791 73.84 116.984 74.06 117.971 74.5C118.958 74.94 119.778 75.5267 120.431 76.26C121.084 76.98 121.598 77.7933 121.971 78.7C122.344 79.5933 122.604 80.5067 122.751 81.44C122.911 82.36 122.991 83.2333 122.991 84.06V96H119.391ZM103.991 96V67.2H107.191V83.1H107.591V96H103.991ZM137.551 96.6C135.431 96.6 133.577 96.1333 131.991 95.2C130.417 94.2533 129.191 92.94 128.311 91.26C127.431 89.5667 126.991 87.5933 126.991 85.34C126.991 82.98 127.424 80.94 128.291 79.22C129.157 77.4867 130.364 76.1533 131.911 75.22C133.471 74.2733 135.297 73.8 137.391 73.8C139.564 73.8 141.411 74.3 142.931 75.3C144.464 76.3 145.611 77.7267 146.371 79.58C147.144 81.4333 147.477 83.64 147.371 86.2H143.771V84.92C143.731 82.2667 143.191 80.2867 142.151 78.98C141.111 77.66 139.564 77 137.511 77C135.311 77 133.637 77.7067 132.491 79.12C131.344 80.5333 130.771 82.56 130.771 85.2C130.771 87.7467 131.344 89.72 132.491 91.12C133.637 92.52 135.271 93.22 137.391 93.22C138.817 93.22 140.057 92.8933 141.111 92.24C142.164 91.5867 142.991 90.6467 143.591 89.42L147.011 90.6C146.171 92.5067 144.904 93.9867 143.211 95.04C141.531 96.08 139.644 96.6 137.551 96.6ZM129.571 86.2V83.34H145.531V86.2H129.571ZM151.823 96V74.4H155.003V79.62L154.483 78.94C154.737 78.2733 155.063 77.66 155.463 77.1C155.877 76.54 156.337 76.08 156.843 75.72C157.403 75.2667 158.037 74.92 158.743 74.68C159.45 74.44 160.17 74.3 160.903 74.26C161.637 74.2067 162.323 74.2533 162.963 74.4V77.74C162.217 77.54 161.397 77.4867 160.503 77.58C159.61 77.6733 158.783 78 158.023 78.56C157.33 79.0533 156.79 79.6533 156.403 80.36C156.03 81.0667 155.77 81.8333 155.623 82.66C155.477 83.4733 155.403 84.3067 155.403 85.16V96H151.823Z" fill="#F3F3F3"/>
</svg>
